<?xml version="1.0" encoding="utf-8" standalone="no"?>
<!DOCTYPE svg PUBLIC "-//W3C//DTD SVG 1.1//EN"
  "http://www.w3.org/Graphics/SVG/1.1/DTD/svg11.dtd">
<!-- Created with matplotlib (http://matplotlib.org/) -->
<svg height="441pt" version="1.1" viewBox="0 0 585 441" width="585pt" xmlns="http://www.w3.org/2000/svg" xmlns:xlink="http://www.w3.org/1999/xlink">
 <defs>
  <style type="text/css">
*{stroke-linecap:butt;stroke-linejoin:round;}
  </style>
 </defs>
 <g id="figure_1">
  <g id="patch_1">
   <path d="
M0 441
L585 441
L585 0
L0 0
z
" style="fill:#ffffff;"/>
  </g>
  <g id="axes_1">
   <g id="patch_2">
    <path d="
M73.125 396.9
L526.5 396.9
L526.5 44.1
L73.125 44.1
z
" style="fill:#ffffff;"/>
   </g>
   <g id="line2d_1">
    <path clip-path="url(#p5873ec822d)" d="
M73.125 370.572
L137.893 373.436
L145.824 365.535
L153.754 358.015
L161.685 350.848
L169.616 344.007
L177.547 337.466
L185.477 331.198
L193.408 325.175
L201.339 319.372
L209.27 313.761
L217.2 308.32
L225.131 303.027
L233.062 297.863
L240.993 292.805
L248.923 287.833
L256.854 282.926
L264.785 278.062
L272.716 273.222
L280.647 268.397
L288.577 263.587
L296.508 258.79
L304.439 254.005
L312.37 249.232
L320.3 244.47
L328.231 239.718
L336.162 234.976
L344.093 230.241
L352.023 225.515
L359.954 220.796
L367.885 216.085
L375.816 211.379
L383.746 206.68
L391.677 201.986
L399.608 197.297
L407.539 192.622
L415.469 187.989
L423.4 183.423
L431.331 178.952
L439.262 174.604
L447.192 170.404
L455.123 166.381
L463.054 162.561
L470.985 158.975
L478.915 155.655
L486.846 152.636
L494.777 149.955
L502.708 147.645
L510.638 145.741
L518.569 144.279
L526.5 143.292" style="fill:none;stroke:#0000ff;stroke-dasharray:3.000000,5.000000,1.000000,5.000000;stroke-dashoffset:0.0;"/>
   </g>
   <g id="line2d_2">
    <path clip-path="url(#p5873ec822d)" d="
M73.125 370.572
L137.893 375.372
L145.824 365.829
L153.754 356.865
L161.685 348.436
L169.616 340.504
L177.547 333.026
L185.477 325.961
L193.408 319.269
L201.339 312.908
L209.27 306.837
L217.2 301.02
L225.131 295.419
L233.062 289.998
L240.993 284.721
L248.923 279.551
L256.854 274.453
L264.785 269.389
L272.716 264.326
L280.647 259.243
L288.577 254.133
L296.508 248.989
L304.439 243.801
L312.37 238.562
L320.3 233.265
L328.231 227.9
L336.162 222.461
L344.093 216.957
L352.023 211.415
L359.954 205.862
L367.885 200.325
L375.816 194.831
L383.746 189.407
L391.677 184.081
L399.608 178.879
L407.539 173.821
L415.469 168.917
L423.4 164.174
L431.331 159.602
L439.262 155.208
L447.192 151
L455.123 146.987
L463.054 143.177
L470.985 139.576
L478.915 136.186
L486.846 133.008
L494.777 130.044
L502.708 127.294
L510.638 124.759
L518.569 122.442
L526.5 120.342" style="fill:none;stroke:#008000;stroke-dasharray:6.000000,6.000000;stroke-dashoffset:0.0;"/>
   </g>
   <g id="line2d_3">
    <path clip-path="url(#p5873ec822d)" d="
M73.125 370.572
L137.893 370.237
L145.824 358.791
L153.754 348.22
L161.685 338.442
L169.616 329.38
L177.547 320.955
L185.477 313.087
L193.408 305.697
L201.339 298.706
L209.27 292.038
L217.2 285.63
L225.131 279.427
L233.062 273.371
L240.993 267.409
L248.923 261.483
L256.854 255.537
L264.785 249.516
L272.716 243.368
L280.647 237.091
L288.577 230.715
L296.508 224.271
L304.439 217.789
L312.37 211.3
L320.3 204.834
L328.231 198.423
L336.162 192.097
L344.093 185.878
L352.023 179.781
L359.954 173.822
L367.885 168.014
L375.816 162.374
L383.746 156.916
L391.677 151.655
L399.608 146.604
L407.539 141.754
L415.469 137.055
L423.4 132.454
L431.331 127.897
L439.262 123.332
L447.192 118.704
L455.123 113.963
L463.054 109.053
L470.985 103.918
L478.915 98.4918
L486.846 92.7044
L494.777 86.4877
L502.708 79.7732
L510.638 72.4921
L518.569 64.5758
L526.5 55.9558" style="fill:none;stroke:#ff0000;stroke-linecap:square;"/>
   </g>
   <g id="line2d_4">
    <path clip-path="url(#p5873ec822d)" d="
M73.125 370.572
L137.893 372.476
L145.824 364.777
L153.754 356.972
L161.685 349.092
L169.616 341.169
L177.547 333.236
L185.477 325.323
L193.408 317.464
L201.339 309.689
L209.27 302.031
L217.2 294.51
L225.131 287.149
L233.062 279.967
L240.993 272.983
L248.923 266.219
L256.854 259.693
L264.785 253.427
L272.716 247.437
L280.647 241.712
L288.577 236.218
L296.508 230.925
L304.439 225.8
L312.37 220.811
L320.3 215.927
L328.231 211.114
L336.162 206.341
L344.093 201.574
L352.023 196.778
L359.954 191.919
L367.885 186.96
L375.816 181.867
L383.746 176.604
L391.677 171.137
L399.608 165.431
L407.539 159.491
L415.469 153.381
L423.4 147.172
L431.331 140.934
L439.262 134.738
L447.192 128.653
L455.123 122.751
L463.054 117.102
L470.985 111.782
L478.915 106.888
L486.846 102.516
L494.777 98.7658
L502.708 95.7341
L510.638 93.519
L518.569 92.2184
L526.5 91.93" style="fill:none;stroke:#00bfbf;stroke-linecap:square;"/>
   </g>
   <g id="line2d_5">
    <path clip-path="url(#p5873ec822d)" d="
M73.125 370.572
L137.893 371.33
L145.824 360.403
L153.754 350.349
L161.685 341.075
L169.616 332.486
L177.547 324.488
L185.477 316.989
L193.408 309.894
L201.339 303.109
L209.27 296.546
L217.2 290.145
L225.131 283.861
L233.062 277.648
L240.993 271.459
L248.923 265.248
L256.854 258.97
L264.785 252.578
L272.716 246.032
L280.647 239.363
L288.577 232.647
L296.508 225.96
L304.439 219.38
L312.37 212.982
L320.3 206.844
L328.231 201.042
L336.162 195.649
L344.093 190.656
L352.023 185.969
L359.954 181.49
L367.885 177.124
L375.816 172.773
L383.746 168.34
L391.677 163.728
L399.608 158.841
L407.539 153.632
L415.469 148.132
L423.4 142.377
L431.331 136.404
L439.262 130.248
L447.192 123.948
L455.123 117.539
L463.054 111.058
L470.985 104.554
L478.915 98.1109
L486.846 91.8144
L494.777 85.7519
L502.708 80.0101
L510.638 74.6762
L518.569 69.8371
L526.5 65.5798" style="fill:none;stroke:#bf00bf;stroke-linecap:square;"/>
   </g>
   <g id="line2d_6">
    <path clip-path="url(#p5873ec822d)" d="
M73.125 370.572
L137.893 372.465
L145.824 359.203
L153.754 347.461
L161.685 337.066
L169.616 327.847
L177.547 319.629
L185.477 312.243
L193.408 305.515
L201.339 299.273
L209.27 293.353
L217.2 287.646
L225.131 282.064
L233.062 276.52
L240.993 270.927
L248.923 265.197
L256.854 259.243
L264.785 252.978
L272.716 246.325
L280.647 239.339
L288.577 232.157
L296.508 224.919
L304.439 217.764
L312.37 210.83
L320.3 204.257
L328.231 198.184
L336.162 192.744
L344.093 187.932
L352.023 183.605
L359.954 179.612
L367.885 175.804
L375.816 172.03
L383.746 168.142
L391.677 163.99
L399.608 159.424
L407.539 154.372
L415.469 148.875
L423.4 142.986
L431.331 136.755
L439.262 130.235
L447.192 123.478
L455.123 116.536
L463.054 109.461
L470.985 102.325
L478.915 95.2509
L486.846 88.3702
L494.777 81.8131
L502.708 75.7102
L510.638 70.192
L518.569 65.3893
L526.5 61.4326" style="fill:none;stroke:#bfbf00;stroke-linecap:square;"/>
   </g>
   <g id="line2d_7">
    <path clip-path="url(#p5873ec822d)" d="
M73.125 370.572
L137.893 371.125
L145.824 361.079
L153.754 351.581
L161.685 342.579
L169.616 334.017
L177.547 325.843
L185.477 318.003
L193.408 310.443
L201.339 303.11
L209.27 295.953
L217.2 288.942
L225.131 282.056
L233.062 275.272
L240.993 268.57
L248.923 261.928
L256.854 255.324
L264.785 248.737
L272.716 242.149
L280.647 235.587
L288.577 229.106
L296.508 222.76
L304.439 216.605
L312.37 210.697
L320.3 205.092
L328.231 199.843
L336.162 195.005
L344.093 190.562
L352.023 186.431
L359.954 182.527
L367.885 178.764
L375.816 175.057
L383.746 171.321
L391.677 167.47
L399.608 163.418
L407.539 159.112
L415.469 154.542
L423.4 149.704
L431.331 144.593
L439.262 139.205
L447.192 133.534
L455.123 127.578
L463.054 121.33
L470.985 114.795
L478.915 107.998
L486.846 100.968
L494.777 93.7332
L502.708 86.3224
L510.638 78.7638
L518.569 71.086
L526.5 63.3176" style="fill:none;stroke:#000000;stroke-linecap:square;"/>
   </g>
   <g id="line2d_8">
    <path clip-path="url(#p5873ec822d)" d="
M73.125 370.572
L137.893 371.805
L145.824 365.187
L153.754 358.04
L161.685 350.448
L169.616 342.493
L177.547 334.257
L185.477 325.821
L193.408 317.269
L201.339 308.681
L209.27 300.137
L217.2 291.689
L225.131 283.378
L233.062 275.246
L240.993 267.334
L248.923 259.684
L256.854 252.339
L264.785 245.338
L272.716 238.719
L280.647 232.456
L288.577 226.483
L296.508 220.732
L304.439 215.138
L312.37 209.633
L320.3 204.151
L328.231 198.625
L336.162 192.991
L344.093 187.245
L352.023 181.448
L359.954 175.659
L367.885 169.941
L375.816 164.354
L383.746 158.96
L391.677 153.82
L399.608 148.994
L407.539 144.495
L415.469 140.258
L423.4 136.214
L431.331 132.293
L439.262 128.424
L447.192 124.539
L455.123 120.566
L463.054 116.436
L470.985 112.067
L478.915 107.347
L486.846 102.16
L494.777 96.3888
L502.708 89.9184
L510.638 82.6322
L518.569 74.414
L526.5 65.1475" style="fill:none;stroke:#0000ff;stroke-linecap:square;"/>
   </g>
   <g id="line2d_9">
    <path clip-path="url(#p5873ec822d)" d="
M73.125 370.572
L137.893 373.212
L145.824 361.267
L153.754 350.218
L161.685 339.978
L169.616 330.462
L177.547 321.581
L185.477 313.25
L193.408 305.381
L201.339 297.888
L209.27 290.688
L217.2 283.725
L225.131 276.957
L233.062 270.337
L240.993 263.823
L248.923 257.37
L256.854 250.934
L264.785 244.471
L272.716 237.942
L280.647 231.369
L288.577 224.813
L296.508 218.335
L304.439 211.997
L312.37 205.861
L320.3 199.989
L328.231 194.442
L336.162 189.279
L344.093 184.479
L352.023 179.946
L359.954 175.577
L367.885 171.272
L375.816 166.93
L383.746 162.45
L391.677 157.729
L399.608 152.669
L407.539 147.223
L415.469 141.433
L423.4 135.346
L431.331 129.009
L439.262 122.47
L447.192 115.778
L455.123 108.979
L463.054 102.121
L470.985 95.2658
L478.915 88.5096
L486.846 81.9533
L494.777 75.698
L502.708 69.8445
L510.638 64.4941
L518.569 59.7477
L526.5 55.7063" style="fill:none;stroke:#008000;stroke-linecap:square;"/>
   </g>
   <g id="patch_3">
    <path d="
M73.125 44.1
L526.5 44.1" style="fill:none;stroke:#000000;stroke-linecap:square;stroke-linejoin:miter;"/>
   </g>
   <g id="patch_4">
    <path d="
M526.5 396.9
L526.5 44.1" style="fill:none;stroke:#000000;stroke-linecap:square;stroke-linejoin:miter;"/>
   </g>
   <g id="patch_5">
    <path d="
M73.125 396.9
L526.5 396.9" style="fill:none;stroke:#000000;stroke-linecap:square;stroke-linejoin:miter;"/>
   </g>
   <g id="patch_6">
    <path d="
M73.125 396.9
L73.125 44.1" style="fill:none;stroke:#000000;stroke-linecap:square;stroke-linejoin:miter;"/>
   </g>
   <g id="matplotlib.axis_1">
    <g id="xtick_1">
     <g id="line2d_10">
      <path clip-path="url(#p5873ec822d)" d="
M73.125 396.9
L73.125 44.1" style="fill:none;stroke:#000000;stroke-dasharray:1.000000,3.000000;stroke-dashoffset:0.0;stroke-width:0.5;"/>
     </g>
     <g id="line2d_11">
      <defs>
       <path d="
M0 0
L0 -4" id="m93b0483c22" style="stroke:#000000;stroke-width:0.5;"/>
      </defs>
      <g>
       <use style="stroke:#000000;stroke-width:0.5;" x="73.125" xlink:href="#m93b0483c22" y="396.9"/>
      </g>
     </g>
     <g id="line2d_12">
      <defs>
       <path d="
M0 0
L0 4" id="m741efc42ff" style="stroke:#000000;stroke-width:0.5;"/>
      </defs>
      <g>
       <use style="stroke:#000000;stroke-width:0.5;" x="73.125" xlink:href="#m741efc42ff" y="44.1"/>
      </g>
     </g>
     <g id="text_1">
      <!-- 0 -->
      <defs>
       <path d="
M31.7812 66.4062
Q24.1719 66.4062 20.3281 58.9062
Q16.5 51.4219 16.5 36.375
Q16.5 21.3906 20.3281 13.8906
Q24.1719 6.39062 31.7812 6.39062
Q39.4531 6.39062 43.2812 13.8906
Q47.125 21.3906 47.125 36.375
Q47.125 51.4219 43.2812 58.9062
Q39.4531 66.4062 31.7812 66.4062
M31.7812 74.2188
Q44.0469 74.2188 50.5156 64.5156
Q56.9844 54.8281 56.9844 36.375
Q56.9844 17.9688 50.5156 8.26562
Q44.0469 -1.42188 31.7812 -1.42188
Q19.5312 -1.42188 13.0625 8.26562
Q6.59375 17.9688 6.59375 36.375
Q6.59375 54.8281 13.0625 64.5156
Q19.5312 74.2188 31.7812 74.2188" id="DejaVuSans-30"/>
      </defs>
      <g transform="translate(70.1015625 410.018125)scale(0.12 -0.12)">
       <use xlink:href="#DejaVuSans-30"/>
      </g>
     </g>
    </g>
    <g id="xtick_2">
     <g id="line2d_13">
      <path clip-path="url(#p5873ec822d)" d="
M137.893 396.9
L137.893 44.1" style="fill:none;stroke:#000000;stroke-dasharray:1.000000,3.000000;stroke-dashoffset:0.0;stroke-width:0.5;"/>
     </g>
     <g id="line2d_14">
      <g>
       <use style="stroke:#000000;stroke-width:0.5;" x="137.892857143" xlink:href="#m93b0483c22" y="396.9"/>
      </g>
     </g>
     <g id="line2d_15">
      <g>
       <use style="stroke:#000000;stroke-width:0.5;" x="137.892857143" xlink:href="#m741efc42ff" y="44.1"/>
      </g>
     </g>
     <g id="text_2">
      <!-- 1 -->
      <defs>
       <path d="
M12.4062 8.29688
L28.5156 8.29688
L28.5156 63.9219
L10.9844 60.4062
L10.9844 69.3906
L28.4219 72.9062
L38.2812 72.9062
L38.2812 8.29688
L54.3906 8.29688
L54.3906 0
L12.4062 0
z
" id="DejaVuSans-31"/>
      </defs>
      <g transform="translate(135.288482143 410.018125)scale(0.12 -0.12)">
       <use xlink:href="#DejaVuSans-31"/>
      </g>
     </g>
    </g>
    <g id="xtick_3">
     <g id="line2d_16">
      <path clip-path="url(#p5873ec822d)" d="
M202.661 396.9
L202.661 44.1" style="fill:none;stroke:#000000;stroke-dasharray:1.000000,3.000000;stroke-dashoffset:0.0;stroke-width:0.5;"/>
     </g>
     <g id="line2d_17">
      <g>
       <use style="stroke:#000000;stroke-width:0.5;" x="202.660714286" xlink:href="#m93b0483c22" y="396.9"/>
      </g>
     </g>
     <g id="line2d_18">
      <g>
       <use style="stroke:#000000;stroke-width:0.5;" x="202.660714286" xlink:href="#m741efc42ff" y="44.1"/>
      </g>
     </g>
     <g id="text_3">
      <!-- 2 -->
      <defs>
       <path d="
M19.1875 8.29688
L53.6094 8.29688
L53.6094 0
L7.32812 0
L7.32812 8.29688
Q12.9375 14.1094 22.625 23.8906
Q32.3281 33.6875 34.8125 36.5312
Q39.5469 41.8438 41.4219 45.5312
Q43.3125 49.2188 43.3125 52.7812
Q43.3125 58.5938 39.2344 62.25
Q35.1562 65.9219 28.6094 65.9219
Q23.9688 65.9219 18.8125 64.3125
Q13.6719 62.7031 7.8125 59.4219
L7.8125 69.3906
Q13.7656 71.7812 18.9375 73
Q24.125 74.2188 28.4219 74.2188
Q39.75 74.2188 46.4844 68.5469
Q53.2188 62.8906 53.2188 53.4219
Q53.2188 48.9219 51.5312 44.8906
Q49.8594 40.875 45.4062 35.4062
Q44.1875 33.9844 37.6406 27.2188
Q31.1094 20.4531 19.1875 8.29688" id="DejaVuSans-32"/>
      </defs>
      <g transform="translate(199.883839286 410.018125)scale(0.12 -0.12)">
       <use xlink:href="#DejaVuSans-32"/>
      </g>
     </g>
    </g>
    <g id="xtick_4">
     <g id="line2d_19">
      <path clip-path="url(#p5873ec822d)" d="
M267.429 396.9
L267.429 44.1" style="fill:none;stroke:#000000;stroke-dasharray:1.000000,3.000000;stroke-dashoffset:0.0;stroke-width:0.5;"/>
     </g>
     <g id="line2d_20">
      <g>
       <use style="stroke:#000000;stroke-width:0.5;" x="267.428571429" xlink:href="#m93b0483c22" y="396.9"/>
      </g>
     </g>
     <g id="line2d_21">
      <g>
       <use style="stroke:#000000;stroke-width:0.5;" x="267.428571429" xlink:href="#m741efc42ff" y="44.1"/>
      </g>
     </g>
     <g id="text_4">
      <!-- 3 -->
      <defs>
       <path d="
M40.5781 39.3125
Q47.6562 37.7969 51.625 33
Q55.6094 28.2188 55.6094 21.1875
Q55.6094 10.4062 48.1875 4.48438
Q40.7656 -1.42188 27.0938 -1.42188
Q22.5156 -1.42188 17.6562 -0.515625
Q12.7969 0.390625 7.625 2.20312
L7.625 11.7188
Q11.7188 9.32812 16.5938 8.10938
Q21.4844 6.89062 26.8125 6.89062
Q36.0781 6.89062 40.9375 10.5469
Q45.7969 14.2031 45.7969 21.1875
Q45.7969 27.6406 41.2812 31.2656
Q36.7656 34.9062 28.7188 34.9062
L20.2188 34.9062
L20.2188 43.0156
L29.1094 43.0156
Q36.375 43.0156 40.2344 45.9219
Q44.0938 48.8281 44.0938 54.2969
Q44.0938 59.9062 40.1094 62.9062
Q36.1406 65.9219 28.7188 65.9219
Q24.6562 65.9219 20.0156 65.0312
Q15.375 64.1562 9.8125 62.3125
L9.8125 71.0938
Q15.4375 72.6562 20.3438 73.4375
Q25.25 74.2188 29.5938 74.2188
Q40.8281 74.2188 47.3594 69.1094
Q53.9062 64.0156 53.9062 55.3281
Q53.9062 49.2656 50.4375 45.0938
Q46.9688 40.9219 40.5781 39.3125" id="DejaVuSans-33"/>
      </defs>
      <g transform="translate(264.549508929 410.018125)scale(0.12 -0.12)">
       <use xlink:href="#DejaVuSans-33"/>
      </g>
     </g>
    </g>
    <g id="xtick_5">
     <g id="line2d_22">
      <path clip-path="url(#p5873ec822d)" d="
M332.196 396.9
L332.196 44.1" style="fill:none;stroke:#000000;stroke-dasharray:1.000000,3.000000;stroke-dashoffset:0.0;stroke-width:0.5;"/>
     </g>
     <g id="line2d_23">
      <g>
       <use style="stroke:#000000;stroke-width:0.5;" x="332.196428571" xlink:href="#m93b0483c22" y="396.9"/>
      </g>
     </g>
     <g id="line2d_24">
      <g>
       <use style="stroke:#000000;stroke-width:0.5;" x="332.196428571" xlink:href="#m741efc42ff" y="44.1"/>
      </g>
     </g>
     <g id="text_5">
      <!-- 4 -->
      <defs>
       <path d="
M37.7969 64.3125
L12.8906 25.3906
L37.7969 25.3906
z

M35.2031 72.9062
L47.6094 72.9062
L47.6094 25.3906
L58.0156 25.3906
L58.0156 17.1875
L47.6094 17.1875
L47.6094 0
L37.7969 0
L37.7969 17.1875
L4.89062 17.1875
L4.89062 26.7031
z
" id="DejaVuSans-34"/>
      </defs>
      <g transform="translate(329.008928571 410.018125)scale(0.12 -0.12)">
       <use xlink:href="#DejaVuSans-34"/>
      </g>
     </g>
    </g>
    <g id="xtick_6">
     <g id="line2d_25">
      <path clip-path="url(#p5873ec822d)" d="
M396.964 396.9
L396.964 44.1" style="fill:none;stroke:#000000;stroke-dasharray:1.000000,3.000000;stroke-dashoffset:0.0;stroke-width:0.5;"/>
     </g>
     <g id="line2d_26">
      <g>
       <use style="stroke:#000000;stroke-width:0.5;" x="396.964285714" xlink:href="#m93b0483c22" y="396.9"/>
      </g>
     </g>
     <g id="line2d_27">
      <g>
       <use style="stroke:#000000;stroke-width:0.5;" x="396.964285714" xlink:href="#m741efc42ff" y="44.1"/>
      </g>
     </g>
     <g id="text_6">
      <!-- 5 -->
      <defs>
       <path d="
M10.7969 72.9062
L49.5156 72.9062
L49.5156 64.5938
L19.8281 64.5938
L19.8281 46.7344
Q21.9688 47.4688 24.1094 47.8281
Q26.2656 48.1875 28.4219 48.1875
Q40.625 48.1875 47.75 41.5
Q54.8906 34.8125 54.8906 23.3906
Q54.8906 11.625 47.5625 5.09375
Q40.2344 -1.42188 26.9062 -1.42188
Q22.3125 -1.42188 17.5469 -0.640625
Q12.7969 0.140625 7.71875 1.70312
L7.71875 11.625
Q12.1094 9.23438 16.7969 8.0625
Q21.4844 6.89062 26.7031 6.89062
Q35.1562 6.89062 40.0781 11.3281
Q45.0156 15.7656 45.0156 23.3906
Q45.0156 31 40.0781 35.4375
Q35.1562 39.8906 26.7031 39.8906
Q22.75 39.8906 18.8125 39.0156
Q14.8906 38.1406 10.7969 36.2812
z
" id="DejaVuSans-35"/>
      </defs>
      <g transform="translate(394.133973214 410.018125)scale(0.12 -0.12)">
       <use xlink:href="#DejaVuSans-35"/>
      </g>
     </g>
    </g>
    <g id="xtick_7">
     <g id="line2d_28">
      <path clip-path="url(#p5873ec822d)" d="
M461.732 396.9
L461.732 44.1" style="fill:none;stroke:#000000;stroke-dasharray:1.000000,3.000000;stroke-dashoffset:0.0;stroke-width:0.5;"/>
     </g>
     <g id="line2d_29">
      <g>
       <use style="stroke:#000000;stroke-width:0.5;" x="461.732142857" xlink:href="#m93b0483c22" y="396.9"/>
      </g>
     </g>
     <g id="line2d_30">
      <g>
       <use style="stroke:#000000;stroke-width:0.5;" x="461.732142857" xlink:href="#m741efc42ff" y="44.1"/>
      </g>
     </g>
     <g id="text_7">
      <!-- 6 -->
      <defs>
       <path d="
M33.0156 40.375
Q26.375 40.375 22.4844 35.8281
Q18.6094 31.2969 18.6094 23.3906
Q18.6094 15.5312 22.4844 10.9531
Q26.375 6.39062 33.0156 6.39062
Q39.6562 6.39062 43.5312 10.9531
Q47.4062 15.5312 47.4062 23.3906
Q47.4062 31.2969 43.5312 35.8281
Q39.6562 40.375 33.0156 40.375
M52.5938 71.2969
L52.5938 62.3125
Q48.875 64.0625 45.0938 64.9844
Q41.3125 65.9219 37.5938 65.9219
Q27.8281 65.9219 22.6719 59.3281
Q17.5312 52.7344 16.7969 39.4062
Q19.6719 43.6562 24.0156 45.9219
Q28.375 48.1875 33.5938 48.1875
Q44.5781 48.1875 50.9531 41.5156
Q57.3281 34.8594 57.3281 23.3906
Q57.3281 12.1562 50.6875 5.35938
Q44.0469 -1.42188 33.0156 -1.42188
Q20.3594 -1.42188 13.6719 8.26562
Q6.98438 17.9688 6.98438 36.375
Q6.98438 53.6562 15.1875 63.9375
Q23.3906 74.2188 37.2031 74.2188
Q40.9219 74.2188 44.7031 73.4844
Q48.4844 72.75 52.5938 71.2969" id="DejaVuSans-36"/>
      </defs>
      <g transform="translate(458.711517857 410.018125)scale(0.12 -0.12)">
       <use xlink:href="#DejaVuSans-36"/>
      </g>
     </g>
    </g>
    <g id="xtick_8">
     <g id="line2d_31">
      <path clip-path="url(#p5873ec822d)" d="
M526.5 396.9
L526.5 44.1" style="fill:none;stroke:#000000;stroke-dasharray:1.000000,3.000000;stroke-dashoffset:0.0;stroke-width:0.5;"/>
     </g>
     <g id="line2d_32">
      <g>
       <use style="stroke:#000000;stroke-width:0.5;" x="526.5" xlink:href="#m93b0483c22" y="396.9"/>
      </g>
     </g>
     <g id="line2d_33">
      <g>
       <use style="stroke:#000000;stroke-width:0.5;" x="526.5" xlink:href="#m741efc42ff" y="44.1"/>
      </g>
     </g>
     <g id="text_8">
      <!-- 7 -->
      <defs>
       <path d="
M8.20312 72.9062
L55.0781 72.9062
L55.0781 68.7031
L28.6094 0
L18.3125 0
L43.2188 64.5938
L8.20312 64.5938
z
" id="DejaVuSans-37"/>
      </defs>
      <g transform="translate(523.6875 410.018125)scale(0.12 -0.12)">
       <use xlink:href="#DejaVuSans-37"/>
      </g>
     </g>
    </g>
    <g id="text_9">
     <!-- Server -->
     <defs>
      <path d="
M53.5156 70.5156
L53.5156 60.8906
Q47.9062 63.5781 42.9219 64.8906
Q37.9375 66.2188 33.2969 66.2188
Q25.25 66.2188 20.875 63.0938
Q16.5 59.9688 16.5 54.2031
Q16.5 49.3594 19.4062 46.8906
Q22.3125 44.4375 30.4219 42.9219
L36.375 41.7031
Q47.4062 39.5938 52.6562 34.2969
Q57.9062 29 57.9062 20.125
Q57.9062 9.51562 50.7969 4.04688
Q43.7031 -1.42188 29.9844 -1.42188
Q24.8125 -1.42188 18.9688 -0.25
Q13.1406 0.921875 6.89062 3.21875
L6.89062 13.375
Q12.8906 10.0156 18.6562 8.29688
Q24.4219 6.59375 29.9844 6.59375
Q38.4219 6.59375 43.0156 9.90625
Q47.6094 13.2344 47.6094 19.3906
Q47.6094 24.75 44.3125 27.7812
Q41.0156 30.8125 33.5 32.3281
L27.4844 33.5
Q16.4531 35.6875 11.5156 40.375
Q6.59375 45.0625 6.59375 53.4219
Q6.59375 63.0938 13.4062 68.6562
Q20.2188 74.2188 32.1719 74.2188
Q37.3125 74.2188 42.625 73.2812
Q47.9531 72.3594 53.5156 70.5156" id="DejaVuSans-53"/>
      <path d="
M56.2031 29.5938
L56.2031 25.2031
L14.8906 25.2031
Q15.4844 15.9219 20.4844 11.0625
Q25.4844 6.20312 34.4219 6.20312
Q39.5938 6.20312 44.4531 7.46875
Q49.3125 8.73438 54.1094 11.2812
L54.1094 2.78125
Q49.2656 0.734375 44.1875 -0.34375
Q39.1094 -1.42188 33.8906 -1.42188
Q20.7969 -1.42188 13.1562 6.1875
Q5.51562 13.8125 5.51562 26.8125
Q5.51562 40.2344 12.7656 48.1094
Q20.0156 56 32.3281 56
Q43.3594 56 49.7812 48.8906
Q56.2031 41.7969 56.2031 29.5938
M47.2188 32.2344
Q47.125 39.5938 43.0938 43.9844
Q39.0625 48.3906 32.4219 48.3906
Q24.9062 48.3906 20.3906 44.1406
Q15.875 39.8906 15.1875 32.1719
z
" id="DejaVuSans-65"/>
      <path d="
M2.98438 54.6875
L12.5 54.6875
L29.5938 8.79688
L46.6875 54.6875
L56.2031 54.6875
L35.6875 0
L23.4844 0
z
" id="DejaVuSans-76"/>
      <path d="
M41.1094 46.2969
Q39.5938 47.1719 37.8125 47.5781
Q36.0312 48 33.8906 48
Q26.2656 48 22.1875 43.0469
Q18.1094 38.0938 18.1094 28.8125
L18.1094 0
L9.07812 0
L9.07812 54.6875
L18.1094 54.6875
L18.1094 46.1875
Q20.9531 51.1719 25.4844 53.5781
Q30.0312 56 36.5312 56
Q37.4531 56 38.5781 55.875
Q39.7031 55.7656 41.0625 55.5156
z
" id="DejaVuSans-72"/>
     </defs>
     <g transform="translate(280.5309375 426.631875)scale(0.12 -0.12)">
      <use xlink:href="#DejaVuSans-53"/>
      <use x="63.4765625" xlink:href="#DejaVuSans-65"/>
      <use x="125.0" xlink:href="#DejaVuSans-72"/>
      <use x="166.11328125" xlink:href="#DejaVuSans-76"/>
      <use x="225.29296875" xlink:href="#DejaVuSans-65"/>
      <use x="286.81640625" xlink:href="#DejaVuSans-72"/>
     </g>
    </g>
   </g>
   <g id="matplotlib.axis_2">
    <g id="ytick_1">
     <g id="line2d_34">
      <path clip-path="url(#p5873ec822d)" d="
M73.125 370.572
L526.5 370.572" style="fill:none;stroke:#000000;stroke-dasharray:1.000000,3.000000;stroke-dashoffset:0.0;stroke-width:0.5;"/>
     </g>
     <g id="line2d_35">
      <defs>
       <path d="
M0 0
L4 0" id="m728421d6d4" style="stroke:#000000;stroke-width:0.5;"/>
      </defs>
      <g>
       <use style="stroke:#000000;stroke-width:0.5;" x="73.125" xlink:href="#m728421d6d4" y="370.571641791"/>
      </g>
     </g>
     <g id="line2d_36">
      <defs>
       <path d="
M0 0
L-4 0" id="mcb0005524f" style="stroke:#000000;stroke-width:0.5;"/>
      </defs>
      <g>
       <use style="stroke:#000000;stroke-width:0.5;" x="526.5" xlink:href="#mcb0005524f" y="370.571641791"/>
      </g>
     </g>
     <g id="text_10">
      <!-- 1 -->
      <g transform="translate(63.91625 373.882891791)scale(0.12 -0.12)">
       <use xlink:href="#DejaVuSans-31"/>
      </g>
     </g>
    </g>
    <g id="ytick_2">
     <g id="line2d_37">
      <path clip-path="url(#p5873ec822d)" d="
M73.125 317.915
L526.5 317.915" style="fill:none;stroke:#000000;stroke-dasharray:1.000000,3.000000;stroke-dashoffset:0.0;stroke-width:0.5;"/>
     </g>
     <g id="line2d_38">
      <g>
       <use style="stroke:#000000;stroke-width:0.5;" x="73.125" xlink:href="#m728421d6d4" y="317.914925373"/>
      </g>
     </g>
     <g id="line2d_39">
      <g>
       <use style="stroke:#000000;stroke-width:0.5;" x="526.5" xlink:href="#mcb0005524f" y="317.914925373"/>
      </g>
     </g>
     <g id="text_11">
      <!-- 2 -->
      <g transform="translate(63.57125 321.226175373)scale(0.12 -0.12)">
       <use xlink:href="#DejaVuSans-32"/>
      </g>
     </g>
    </g>
    <g id="ytick_3">
     <g id="line2d_40">
      <path clip-path="url(#p5873ec822d)" d="
M73.125 265.258
L526.5 265.258" style="fill:none;stroke:#000000;stroke-dasharray:1.000000,3.000000;stroke-dashoffset:0.0;stroke-width:0.5;"/>
     </g>
     <g id="line2d_41">
      <g>
       <use style="stroke:#000000;stroke-width:0.5;" x="73.125" xlink:href="#m728421d6d4" y="265.258208955"/>
      </g>
     </g>
     <g id="line2d_42">
      <g>
       <use style="stroke:#000000;stroke-width:0.5;" x="526.5" xlink:href="#mcb0005524f" y="265.258208955"/>
      </g>
     </g>
     <g id="text_12">
      <!-- 3 -->
      <g transform="translate(63.366875 268.569458955)scale(0.12 -0.12)">
       <use xlink:href="#DejaVuSans-33"/>
      </g>
     </g>
    </g>
    <g id="ytick_4">
     <g id="line2d_43">
      <path clip-path="url(#p5873ec822d)" d="
M73.125 212.601
L526.5 212.601" style="fill:none;stroke:#000000;stroke-dasharray:1.000000,3.000000;stroke-dashoffset:0.0;stroke-width:0.5;"/>
     </g>
     <g id="line2d_44">
      <g>
       <use style="stroke:#000000;stroke-width:0.5;" x="73.125" xlink:href="#m728421d6d4" y="212.601492537"/>
      </g>
     </g>
     <g id="line2d_45">
      <g>
       <use style="stroke:#000000;stroke-width:0.5;" x="526.5" xlink:href="#mcb0005524f" y="212.601492537"/>
      </g>
     </g>
     <g id="text_13">
      <!-- 4 -->
      <g transform="translate(62.75 215.912742537)scale(0.12 -0.12)">
       <use xlink:href="#DejaVuSans-34"/>
      </g>
     </g>
    </g>
    <g id="ytick_5">
     <g id="line2d_46">
      <path clip-path="url(#p5873ec822d)" d="
M73.125 159.945
L526.5 159.945" style="fill:none;stroke:#000000;stroke-dasharray:1.000000,3.000000;stroke-dashoffset:0.0;stroke-width:0.5;"/>
     </g>
     <g id="line2d_47">
      <g>
       <use style="stroke:#000000;stroke-width:0.5;" x="73.125" xlink:href="#m728421d6d4" y="159.944776119"/>
      </g>
     </g>
     <g id="line2d_48">
      <g>
       <use style="stroke:#000000;stroke-width:0.5;" x="526.5" xlink:href="#mcb0005524f" y="159.944776119"/>
      </g>
     </g>
     <g id="text_14">
      <!-- 5 -->
      <g transform="translate(63.464375 163.256026119)scale(0.12 -0.12)">
       <use xlink:href="#DejaVuSans-35"/>
      </g>
     </g>
    </g>
    <g id="ytick_6">
     <g id="line2d_49">
      <path clip-path="url(#p5873ec822d)" d="
M73.125 107.288
L526.5 107.288" style="fill:none;stroke:#000000;stroke-dasharray:1.000000,3.000000;stroke-dashoffset:0.0;stroke-width:0.5;"/>
     </g>
     <g id="line2d_50">
      <g>
       <use style="stroke:#000000;stroke-width:0.5;" x="73.125" xlink:href="#m728421d6d4" y="107.288059701"/>
      </g>
     </g>
     <g id="line2d_51">
      <g>
       <use style="stroke:#000000;stroke-width:0.5;" x="526.5" xlink:href="#mcb0005524f" y="107.288059701"/>
      </g>
     </g>
     <g id="text_15">
      <!-- 6 -->
      <g transform="translate(63.08375 110.599309701)scale(0.12 -0.12)">
       <use xlink:href="#DejaVuSans-36"/>
      </g>
     </g>
    </g>
    <g id="ytick_7">
     <g id="line2d_52">
      <path clip-path="url(#p5873ec822d)" d="
M73.125 54.6313
L526.5 54.6313" style="fill:none;stroke:#000000;stroke-dasharray:1.000000,3.000000;stroke-dashoffset:0.0;stroke-width:0.5;"/>
     </g>
     <g id="line2d_53">
      <g>
       <use style="stroke:#000000;stroke-width:0.5;" x="73.125" xlink:href="#m728421d6d4" y="54.6313432836"/>
      </g>
     </g>
     <g id="line2d_54">
      <g>
       <use style="stroke:#000000;stroke-width:0.5;" x="526.5" xlink:href="#mcb0005524f" y="54.6313432836"/>
      </g>
     </g>
     <g id="text_16">
      <!-- 7 -->
      <g transform="translate(63.5 57.9425932836)scale(0.12 -0.12)">
       <use xlink:href="#DejaVuSans-37"/>
      </g>
     </g>
    </g>
    <g id="text_17">
     <!-- $\eta$ -->
     <defs>
      <path d="
M10.6875 -1.125
Q9.46875 -1.125 8.59375 -0.34375
Q7.71875 0.4375 7.71875 1.70312
Q7.71875 2.29688 7.8125 2.59375
L15.2812 32.4219
Q16.0156 35.2031 16.0156 37.3125
Q16.0156 41.6094 13.0938 41.6094
Q9.96875 41.6094 8.45312 37.8594
Q6.9375 34.125 5.51562 28.4219
Q5.51562 28.125 5.21875 27.9531
Q4.9375 27.7812 4.6875 27.7812
L3.51562 27.7812
Q3.17188 27.7812 2.92188 28.1406
Q2.6875 28.5156 2.6875 28.8125
Q3.76562 33.1562 4.76562 36.1719
Q5.76562 39.2031 7.89062 41.6875
Q10.0156 44.1875 13.1875 44.1875
Q16.8906 44.1875 19.7969 41.8438
Q22.7031 39.5 22.7031 35.7969
Q25.6406 39.7031 29.5938 41.9375
Q33.5469 44.1875 38.1875 44.1875
Q43.4062 44.1875 46.5469 41.375
Q49.7031 38.5781 49.7031 33.4062
Q49.7031 30.4219 49.0312 27.875
L37.4062 -18.4062
Q37.1094 -19.8281 35.9375 -20.7031
Q34.7656 -21.5781 33.2969 -21.5781
Q32.0781 -21.5781 31.2031 -20.8125
Q30.3281 -20.0625 30.3281 -18.7969
Q30.3281 -18.2188 30.4219 -18.0156
L41.8906 28.0781
Q42.9219 32.1719 42.9219 34.9062
Q42.9219 37.7031 41.75 39.6562
Q40.5781 41.6094 37.9844 41.6094
Q28.1719 41.6094 21.6875 29.5
L14.8906 2.20312
Q14.5469 0.828125 13.3438 -0.140625
Q12.1562 -1.125 10.6875 -1.125" id="Cmmi10-b4"/>
     </defs>
     <g transform="translate(55.11 223.5)rotate(-90.0)scale(0.12 -0.12)">
      <use transform="translate(0.0 0.8125)" xlink:href="#Cmmi10-b4"/>
     </g>
    </g>
   </g>
   <g id="text_18">
    <!-- Speedup 1:n Verteilung partielle Ableitungen -->
    <defs>
     <path d="
M11.7188 12.4062
L22.0156 12.4062
L22.0156 0
L11.7188 0
z

M11.7188 51.7031
L22.0156 51.7031
L22.0156 39.3125
L11.7188 39.3125
z
" id="DejaVuSans-3a"/>
     <path d="
M45.4062 27.9844
Q45.4062 37.75 41.375 43.1094
Q37.3594 48.4844 30.0781 48.4844
Q22.8594 48.4844 18.8281 43.1094
Q14.7969 37.75 14.7969 27.9844
Q14.7969 18.2656 18.8281 12.8906
Q22.8594 7.51562 30.0781 7.51562
Q37.3594 7.51562 41.375 12.8906
Q45.4062 18.2656 45.4062 27.9844
M54.3906 6.78125
Q54.3906 -7.17188 48.1875 -13.9844
Q42 -20.7969 29.2031 -20.7969
Q24.4688 -20.7969 20.2656 -20.0938
Q16.0625 -19.3906 12.1094 -17.9219
L12.1094 -9.1875
Q16.0625 -11.3281 19.9219 -12.3438
Q23.7812 -13.375 27.7812 -13.375
Q36.625 -13.375 41.0156 -8.76562
Q45.4062 -4.15625 45.4062 5.17188
L45.4062 9.625
Q42.625 4.78125 38.2812 2.39062
Q33.9375 0 27.875 0
Q17.8281 0 11.6719 7.65625
Q5.51562 15.3281 5.51562 27.9844
Q5.51562 40.6719 11.6719 48.3281
Q17.8281 56 27.875 56
Q33.9375 56 38.2812 53.6094
Q42.625 51.2188 45.4062 46.3906
L45.4062 54.6875
L54.3906 54.6875
z
" id="DejaVuSans-67"/>
     <path d="
M54.8906 33.0156
L54.8906 0
L45.9062 0
L45.9062 32.7188
Q45.9062 40.4844 42.875 44.3281
Q39.8438 48.1875 33.7969 48.1875
Q26.5156 48.1875 22.3125 43.5469
Q18.1094 38.9219 18.1094 30.9062
L18.1094 0
L9.07812 0
L9.07812 54.6875
L18.1094 54.6875
L18.1094 46.1875
Q21.3438 51.125 25.7031 53.5625
Q30.0781 56 35.7969 56
Q45.2188 56 50.0469 50.1719
Q54.8906 44.3438 54.8906 33.0156" id="DejaVuSans-6e"/>
     <path d="
M9.42188 75.9844
L18.4062 75.9844
L18.4062 0
L9.42188 0
z
" id="DejaVuSans-6c"/>
     <path d="
M28.6094 0
L0.78125 72.9062
L11.0781 72.9062
L34.1875 11.5312
L57.3281 72.9062
L67.5781 72.9062
L39.7969 0
z
" id="DejaVuSans-56"/>
     <path id="DejaVuSans-20"/>
     <path d="
M34.1875 63.1875
L20.7969 26.9062
L47.6094 26.9062
z

M28.6094 72.9062
L39.7969 72.9062
L67.5781 0
L57.3281 0
L50.6875 18.7031
L17.8281 18.7031
L11.1875 0
L0.78125 0
z
" id="DejaVuSans-41"/>
     <path d="
M9.42188 54.6875
L18.4062 54.6875
L18.4062 0
L9.42188 0
z

M9.42188 75.9844
L18.4062 75.9844
L18.4062 64.5938
L9.42188 64.5938
z
" id="DejaVuSans-69"/>
     <path d="
M8.5 21.5781
L8.5 54.6875
L17.4844 54.6875
L17.4844 21.9219
Q17.4844 14.1562 20.5 10.2656
Q23.5312 6.39062 29.5938 6.39062
Q36.8594 6.39062 41.0781 11.0312
Q45.3125 15.6719 45.3125 23.6875
L45.3125 54.6875
L54.2969 54.6875
L54.2969 0
L45.3125 0
L45.3125 8.40625
Q42.0469 3.42188 37.7188 1
Q33.4062 -1.42188 27.6875 -1.42188
Q18.2656 -1.42188 13.375 4.4375
Q8.5 10.2969 8.5 21.5781
M31.1094 56
z
" id="DejaVuSans-75"/>
     <path d="
M18.3125 70.2188
L18.3125 54.6875
L36.8125 54.6875
L36.8125 47.7031
L18.3125 47.7031
L18.3125 18.0156
Q18.3125 11.3281 20.1406 9.42188
Q21.9688 7.51562 27.5938 7.51562
L36.8125 7.51562
L36.8125 0
L27.5938 0
Q17.1875 0 13.2344 3.875
Q9.28125 7.76562 9.28125 18.0156
L9.28125 47.7031
L2.6875 47.7031
L2.6875 54.6875
L9.28125 54.6875
L9.28125 70.2188
z
" id="DejaVuSans-74"/>
     <path d="
M45.4062 46.3906
L45.4062 75.9844
L54.3906 75.9844
L54.3906 0
L45.4062 0
L45.4062 8.20312
Q42.5781 3.32812 38.25 0.953125
Q33.9375 -1.42188 27.875 -1.42188
Q17.9688 -1.42188 11.7344 6.48438
Q5.51562 14.4062 5.51562 27.2969
Q5.51562 40.1875 11.7344 48.0938
Q17.9688 56 27.875 56
Q33.9375 56 38.25 53.625
Q42.5781 51.2656 45.4062 46.3906
M14.7969 27.2969
Q14.7969 17.3906 18.875 11.75
Q22.9531 6.10938 30.0781 6.10938
Q37.2031 6.10938 41.2969 11.75
Q45.4062 17.3906 45.4062 27.2969
Q45.4062 37.2031 41.2969 42.8438
Q37.2031 48.4844 30.0781 48.4844
Q22.9531 48.4844 18.875 42.8438
Q14.7969 37.2031 14.7969 27.2969" id="DejaVuSans-64"/>
     <path d="
M48.6875 27.2969
Q48.6875 37.2031 44.6094 42.8438
Q40.5312 48.4844 33.4062 48.4844
Q26.2656 48.4844 22.1875 42.8438
Q18.1094 37.2031 18.1094 27.2969
Q18.1094 17.3906 22.1875 11.75
Q26.2656 6.10938 33.4062 6.10938
Q40.5312 6.10938 44.6094 11.75
Q48.6875 17.3906 48.6875 27.2969
M18.1094 46.3906
Q20.9531 51.2656 25.2656 53.625
Q29.5938 56 35.5938 56
Q45.5625 56 51.7812 48.0938
Q58.0156 40.1875 58.0156 27.2969
Q58.0156 14.4062 51.7812 6.48438
Q45.5625 -1.42188 35.5938 -1.42188
Q29.5938 -1.42188 25.2656 0.953125
Q20.9531 3.32812 18.1094 8.20312
L18.1094 0
L9.07812 0
L9.07812 75.9844
L18.1094 75.9844
z
" id="DejaVuSans-62"/>
     <path d="
M18.1094 8.20312
L18.1094 -20.7969
L9.07812 -20.7969
L9.07812 54.6875
L18.1094 54.6875
L18.1094 46.3906
Q20.9531 51.2656 25.2656 53.625
Q29.5938 56 35.5938 56
Q45.5625 56 51.7812 48.0938
Q58.0156 40.1875 58.0156 27.2969
Q58.0156 14.4062 51.7812 6.48438
Q45.5625 -1.42188 35.5938 -1.42188
Q29.5938 -1.42188 25.2656 0.953125
Q20.9531 3.32812 18.1094 8.20312
M48.6875 27.2969
Q48.6875 37.2031 44.6094 42.8438
Q40.5312 48.4844 33.4062 48.4844
Q26.2656 48.4844 22.1875 42.8438
Q18.1094 37.2031 18.1094 27.2969
Q18.1094 17.3906 22.1875 11.75
Q26.2656 6.10938 33.4062 6.10938
Q40.5312 6.10938 44.6094 11.75
Q48.6875 17.3906 48.6875 27.2969" id="DejaVuSans-70"/>
     <path d="
M34.2812 27.4844
Q23.3906 27.4844 19.1875 25
Q14.9844 22.5156 14.9844 16.5
Q14.9844 11.7188 18.1406 8.90625
Q21.2969 6.10938 26.7031 6.10938
Q34.1875 6.10938 38.7031 11.4062
Q43.2188 16.7031 43.2188 25.4844
L43.2188 27.4844
z

M52.2031 31.2031
L52.2031 0
L43.2188 0
L43.2188 8.29688
Q40.1406 3.32812 35.5469 0.953125
Q30.9531 -1.42188 24.3125 -1.42188
Q15.9219 -1.42188 10.9531 3.29688
Q6 8.01562 6 15.9219
Q6 25.1406 12.1719 29.8281
Q18.3594 34.5156 30.6094 34.5156
L43.2188 34.5156
L43.2188 35.4062
Q43.2188 41.6094 39.1406 45
Q35.0625 48.3906 27.6875 48.3906
Q23 48.3906 18.5469 47.2656
Q14.1094 46.1406 10.0156 43.8906
L10.0156 52.2031
Q14.9375 54.1094 19.5781 55.0469
Q24.2188 56 28.6094 56
Q40.4844 56 46.3438 49.8438
Q52.2031 43.7031 52.2031 31.2031" id="DejaVuSans-61"/>
    </defs>
    <g transform="translate(138.21975 39.1)scale(0.144 -0.144)">
     <use xlink:href="#DejaVuSans-53"/>
     <use x="63.4765625" xlink:href="#DejaVuSans-70"/>
     <use x="126.953125" xlink:href="#DejaVuSans-65"/>
     <use x="188.4765625" xlink:href="#DejaVuSans-65"/>
     <use x="250.0" xlink:href="#DejaVuSans-64"/>
     <use x="313.4765625" xlink:href="#DejaVuSans-75"/>
     <use x="376.85546875" xlink:href="#DejaVuSans-70"/>
     <use x="440.33203125" xlink:href="#DejaVuSans-20"/>
     <use x="472.119140625" xlink:href="#DejaVuSans-31"/>
     <use x="535.7421875" xlink:href="#DejaVuSans-3a"/>
     <use x="569.43359375" xlink:href="#DejaVuSans-6e"/>
     <use x="632.8125" xlink:href="#DejaVuSans-20"/>
     <use x="664.599609375" xlink:href="#DejaVuSans-56"/>
     <use x="725.2578125" xlink:href="#DejaVuSans-65"/>
     <use x="786.78125" xlink:href="#DejaVuSans-72"/>
     <use x="827.89453125" xlink:href="#DejaVuSans-74"/>
     <use x="867.103515625" xlink:href="#DejaVuSans-65"/>
     <use x="928.626953125" xlink:href="#DejaVuSans-69"/>
     <use x="956.41015625" xlink:href="#DejaVuSans-6c"/>
     <use x="984.193359375" xlink:href="#DejaVuSans-75"/>
     <use x="1047.57226562" xlink:href="#DejaVuSans-6e"/>
     <use x="1110.95117188" xlink:href="#DejaVuSans-67"/>
     <use x="1174.42773438" xlink:href="#DejaVuSans-20"/>
     <use x="1206.21484375" xlink:href="#DejaVuSans-70"/>
     <use x="1269.69140625" xlink:href="#DejaVuSans-61"/>
     <use x="1330.97070312" xlink:href="#DejaVuSans-72"/>
     <use x="1372.08398438" xlink:href="#DejaVuSans-74"/>
     <use x="1411.29296875" xlink:href="#DejaVuSans-69"/>
     <use x="1439.07617188" xlink:href="#DejaVuSans-65"/>
     <use x="1500.59960938" xlink:href="#DejaVuSans-6c"/>
     <use x="1528.3828125" xlink:href="#DejaVuSans-6c"/>
     <use x="1556.16601562" xlink:href="#DejaVuSans-65"/>
     <use x="1617.68945312" xlink:href="#DejaVuSans-20"/>
     <use x="1649.4765625" xlink:href="#DejaVuSans-41"/>
     <use x="1717.88476562" xlink:href="#DejaVuSans-62"/>
     <use x="1781.36132812" xlink:href="#DejaVuSans-6c"/>
     <use x="1809.14453125" xlink:href="#DejaVuSans-65"/>
     <use x="1870.66796875" xlink:href="#DejaVuSans-69"/>
     <use x="1898.45117188" xlink:href="#DejaVuSans-74"/>
     <use x="1937.66015625" xlink:href="#DejaVuSans-75"/>
     <use x="2001.0390625" xlink:href="#DejaVuSans-6e"/>
     <use x="2064.41796875" xlink:href="#DejaVuSans-67"/>
     <use x="2127.89453125" xlink:href="#DejaVuSans-65"/>
     <use x="2189.41796875" xlink:href="#DejaVuSans-6e"/>
    </g>
   </g>
   <g id="legend_1">
    <g id="patch_7">
     <path d="
M80.325 245.848
L187.742 245.848
L187.742 51.3
L80.325 51.3
z
" style="fill:#ffffff;stroke:#000000;stroke-linejoin:miter;"/>
    </g>
    <g id="line2d_55">
     <path d="
M90.405 62.9617
L110.565 62.9617" style="fill:none;stroke:#0000ff;stroke-dasharray:3.000000,5.000000,1.000000,5.000000;stroke-dashoffset:0.0;"/>
    </g>
    <g id="line2d_56"/>
    <g id="text_19">
     <!-- n=1000 -->
     <defs>
      <path d="
M10.5938 45.4062
L73.1875 45.4062
L73.1875 37.2031
L10.5938 37.2031
z

M10.5938 25.4844
L73.1875 25.4844
L73.1875 17.1875
L10.5938 17.1875
z
" id="DejaVuSans-3d"/>
     </defs>
     <g transform="translate(126.405 68.00175)scale(0.144 -0.144)">
      <use xlink:href="#DejaVuSans-6e"/>
      <use x="63.37890625" xlink:href="#DejaVuSans-3d"/>
      <use x="147.16796875" xlink:href="#DejaVuSans-31"/>
      <use x="210.791015625" xlink:href="#DejaVuSans-30"/>
      <use x="274.4140625" xlink:href="#DejaVuSans-30"/>
      <use x="338.037109375" xlink:href="#DejaVuSans-30"/>
     </g>
    </g>
    <g id="line2d_57">
     <path d="
M90.405 84.0982
L110.565 84.0982" style="fill:none;stroke:#008000;stroke-dasharray:6.000000,6.000000;stroke-dashoffset:0.0;"/>
    </g>
    <g id="line2d_58"/>
    <g id="text_20">
     <!-- n=1500 -->
     <g transform="translate(126.405 89.13825)scale(0.144 -0.144)">
      <use xlink:href="#DejaVuSans-6e"/>
      <use x="63.37890625" xlink:href="#DejaVuSans-3d"/>
      <use x="147.16796875" xlink:href="#DejaVuSans-31"/>
      <use x="210.791015625" xlink:href="#DejaVuSans-35"/>
      <use x="274.4140625" xlink:href="#DejaVuSans-30"/>
      <use x="338.037109375" xlink:href="#DejaVuSans-30"/>
     </g>
    </g>
    <g id="line2d_59">
     <path d="
M90.405 105.235
L110.565 105.235" style="fill:none;stroke:#ff0000;stroke-linecap:square;"/>
    </g>
    <g id="line2d_60"/>
    <g id="text_21">
     <!-- n=2000 -->
     <g transform="translate(126.405 110.27475)scale(0.144 -0.144)">
      <use xlink:href="#DejaVuSans-6e"/>
      <use x="63.37890625" xlink:href="#DejaVuSans-3d"/>
      <use x="147.16796875" xlink:href="#DejaVuSans-32"/>
      <use x="210.791015625" xlink:href="#DejaVuSans-30"/>
      <use x="274.4140625" xlink:href="#DejaVuSans-30"/>
      <use x="338.037109375" xlink:href="#DejaVuSans-30"/>
     </g>
    </g>
    <g id="line2d_61">
     <path d="
M90.405 126.371
L110.565 126.371" style="fill:none;stroke:#00bfbf;stroke-linecap:square;"/>
    </g>
    <g id="line2d_62"/>
    <g id="text_22">
     <!-- n=2500 -->
     <g transform="translate(126.405 131.41125)scale(0.144 -0.144)">
      <use xlink:href="#DejaVuSans-6e"/>
      <use x="63.37890625" xlink:href="#DejaVuSans-3d"/>
      <use x="147.16796875" xlink:href="#DejaVuSans-32"/>
      <use x="210.791015625" xlink:href="#DejaVuSans-35"/>
      <use x="274.4140625" xlink:href="#DejaVuSans-30"/>
      <use x="338.037109375" xlink:href="#DejaVuSans-30"/>
     </g>
    </g>
    <g id="line2d_63">
     <path d="
M90.405 147.508
L110.565 147.508" style="fill:none;stroke:#bf00bf;stroke-linecap:square;"/>
    </g>
    <g id="line2d_64"/>
    <g id="text_23">
     <!-- n=3000 -->
     <g transform="translate(126.405 152.54775)scale(0.144 -0.144)">
      <use xlink:href="#DejaVuSans-6e"/>
      <use x="63.37890625" xlink:href="#DejaVuSans-3d"/>
      <use x="147.16796875" xlink:href="#DejaVuSans-33"/>
      <use x="210.791015625" xlink:href="#DejaVuSans-30"/>
      <use x="274.4140625" xlink:href="#DejaVuSans-30"/>
      <use x="338.037109375" xlink:href="#DejaVuSans-30"/>
     </g>
    </g>
    <g id="line2d_65">
     <path d="
M90.405 168.644
L110.565 168.644" style="fill:none;stroke:#bfbf00;stroke-linecap:square;"/>
    </g>
    <g id="line2d_66"/>
    <g id="text_24">
     <!-- n=3500 -->
     <g transform="translate(126.405 173.68425)scale(0.144 -0.144)">
      <use xlink:href="#DejaVuSans-6e"/>
      <use x="63.37890625" xlink:href="#DejaVuSans-3d"/>
      <use x="147.16796875" xlink:href="#DejaVuSans-33"/>
      <use x="210.791015625" xlink:href="#DejaVuSans-35"/>
      <use x="274.4140625" xlink:href="#DejaVuSans-30"/>
      <use x="338.037109375" xlink:href="#DejaVuSans-30"/>
     </g>
    </g>
    <g id="line2d_67">
     <path d="
M90.405 189.781
L110.565 189.781" style="fill:none;stroke:#000000;stroke-linecap:square;"/>
    </g>
    <g id="line2d_68"/>
    <g id="text_25">
     <!-- n=4000 -->
     <g transform="translate(126.405 194.82075)scale(0.144 -0.144)">
      <use xlink:href="#DejaVuSans-6e"/>
      <use x="63.37890625" xlink:href="#DejaVuSans-3d"/>
      <use x="147.16796875" xlink:href="#DejaVuSans-34"/>
      <use x="210.791015625" xlink:href="#DejaVuSans-30"/>
      <use x="274.4140625" xlink:href="#DejaVuSans-30"/>
      <use x="338.037109375" xlink:href="#DejaVuSans-30"/>
     </g>
    </g>
    <g id="line2d_69">
     <path d="
M90.405 210.917
L110.565 210.917" style="fill:none;stroke:#0000ff;stroke-linecap:square;"/>
    </g>
    <g id="line2d_70"/>
    <g id="text_26">
     <!-- n=4500 -->
     <g transform="translate(126.405 215.95725)scale(0.144 -0.144)">
      <use xlink:href="#DejaVuSans-6e"/>
      <use x="63.37890625" xlink:href="#DejaVuSans-3d"/>
      <use x="147.16796875" xlink:href="#DejaVuSans-34"/>
      <use x="210.791015625" xlink:href="#DejaVuSans-35"/>
      <use x="274.4140625" xlink:href="#DejaVuSans-30"/>
      <use x="338.037109375" xlink:href="#DejaVuSans-30"/>
     </g>
    </g>
    <g id="line2d_71">
     <path d="
M90.405 232.054
L110.565 232.054" style="fill:none;stroke:#008000;stroke-linecap:square;"/>
    </g>
    <g id="line2d_72"/>
    <g id="text_27">
     <!-- n=5000 -->
     <g transform="translate(126.405 237.09375)scale(0.144 -0.144)">
      <use xlink:href="#DejaVuSans-6e"/>
      <use x="63.37890625" xlink:href="#DejaVuSans-3d"/>
      <use x="147.16796875" xlink:href="#DejaVuSans-35"/>
      <use x="210.791015625" xlink:href="#DejaVuSans-30"/>
      <use x="274.4140625" xlink:href="#DejaVuSans-30"/>
      <use x="338.037109375" xlink:href="#DejaVuSans-30"/>
     </g>
    </g>
   </g>
  </g>
 </g>
 <defs>
  <clipPath id="p5873ec822d">
   <rect height="352.8" width="453.375" x="73.125" y="44.1"/>
  </clipPath>
 </defs>
</svg>
