<?xml version="1.0" encoding="utf-8" standalone="no"?>
<!DOCTYPE svg PUBLIC "-//W3C//DTD SVG 1.1//EN"
  "http://www.w3.org/Graphics/SVG/1.1/DTD/svg11.dtd">
<!-- Created with matplotlib (http://matplotlib.org/) -->
<svg height="441pt" version="1.1" viewBox="0 0 585 441" width="585pt" xmlns="http://www.w3.org/2000/svg" xmlns:xlink="http://www.w3.org/1999/xlink">
 <defs>
  <style type="text/css">
*{stroke-linecap:butt;stroke-linejoin:round;}
  </style>
 </defs>
 <g id="figure_1">
  <g id="patch_1">
   <path d="
M0 441
L585 441
L585 0
L0 0
z
" style="fill:#ffffff;"/>
  </g>
  <g id="axes_1">
   <g id="patch_2">
    <path d="
M73.125 396.9
L526.5 396.9
L526.5 44.1
L73.125 44.1
z
" style="fill:#ffffff;"/>
   </g>
   <g id="line2d_1">
    <path clip-path="url(#p5873ec822d)" d="
M73.125 370.572
L137.893 373.389
L145.824 375.209
L153.754 376.209
L161.685 376.513
L169.616 376.246
L177.547 375.533
L185.477 374.499
L193.408 373.268
L201.339 371.966
L209.27 370.71
L217.2 369.569
L225.131 368.591
L233.062 367.825
L240.993 367.321
L248.923 367.127
L256.854 367.292
L264.785 367.864
L272.716 368.884
L280.647 370.279
L288.577 371.906
L296.508 373.621
L304.439 375.279
L312.37 376.737
L320.3 377.849
L328.231 378.471
L336.162 378.465
L344.093 377.831
L352.023 376.707
L359.954 375.237
L367.885 373.567
L375.816 371.839
L383.746 370.199
L391.677 368.791
L399.608 367.758
L407.539 367.168
L415.469 366.976
L423.4 367.125
L431.331 367.558
L439.262 368.22
L447.192 369.054
L455.123 370.004
L463.054 371.012
L470.985 372.004
L478.915 372.851
L486.846 373.421
L494.777 373.578
L502.708 373.188
L510.638 372.118
L518.569 370.233
L526.5 367.399" style="fill:none;stroke:#0000ff;stroke-linecap:square;"/>
   </g>
   <g id="line2d_2">
    <path clip-path="url(#p5873ec822d)" d="
M73.125 370.572
L137.893 380.761
L145.824 380.005
L153.754 379.037
L161.685 377.917
L169.616 376.703
L177.547 375.455
L185.477 374.232
L193.408 373.092
L201.339 372.095
L209.27 371.294
L217.2 370.711
L225.131 370.352
L233.062 370.224
L240.993 370.334
L248.923 370.689
L256.854 371.296
L264.785 372.162
L272.716 373.288
L280.647 374.607
L288.577 376.013
L296.508 377.394
L304.439 378.642
L312.37 379.648
L320.3 380.301
L328.231 380.492
L336.162 380.116
L344.093 379.188
L352.023 377.839
L359.954 376.204
L367.885 374.419
L375.816 372.621
L383.746 370.947
L391.677 369.531
L399.608 368.51
L407.539 367.947
L415.469 367.799
L423.4 368.009
L431.331 368.524
L439.262 369.289
L447.192 370.251
L455.123 371.353
L463.054 372.543
L470.985 373.747
L478.915 374.846
L486.846 375.715
L494.777 376.23
L502.708 376.266
L510.638 375.696
L518.569 374.396
L526.5 372.241" style="fill:none;stroke:#008000;stroke-linecap:square;"/>
   </g>
   <g id="line2d_3">
    <path clip-path="url(#p5873ec822d)" d="
M73.125 370.572
L137.893 373.141
L145.824 371.35
L153.754 369.679
L161.685 368.147
L169.616 366.774
L177.547 365.578
L185.477 364.579
L193.408 363.797
L201.339 363.25
L209.27 362.954
L217.2 362.905
L225.131 363.087
L233.062 363.487
L240.993 364.091
L248.923 364.884
L256.854 365.852
L264.785 366.981
L272.716 368.254
L280.647 369.614
L288.577 370.982
L296.508 372.275
L304.439 373.415
L312.37 374.318
L320.3 374.905
L328.231 375.095
L336.162 374.81
L344.093 374.062
L352.023 372.949
L359.954 371.575
L367.885 370.043
L375.816 368.457
L383.746 366.918
L391.677 365.531
L399.608 364.397
L407.539 363.569
L415.469 363.024
L423.4 362.731
L431.331 362.659
L439.262 362.777
L447.192 363.056
L455.123 363.465
L463.054 363.972
L470.985 364.535
L478.915 365.078
L486.846 365.519
L494.777 365.778
L502.708 365.776
L510.638 365.429
L518.569 364.659
L526.5 363.385" style="fill:none;stroke:#ff0000;stroke-linecap:square;"/>
   </g>
   <g id="line2d_4">
    <path clip-path="url(#p5873ec822d)" d="
M73.125 370.572
L137.893 380.656
L145.824 379.939
L153.754 378.972
L161.685 377.82
L169.616 376.547
L177.547 375.219
L185.477 373.901
L193.408 372.658
L201.339 371.554
L209.27 370.65
L217.2 369.973
L225.131 369.533
L233.062 369.343
L240.993 369.415
L248.923 369.762
L256.854 370.395
L264.785 371.327
L272.716 372.564
L280.647 374.038
L288.577 375.639
L296.508 377.251
L304.439 378.762
L312.37 380.058
L320.3 381.025
L328.231 381.55
L336.162 381.523
L344.093 380.948
L352.023 379.937
L359.954 378.609
L367.885 377.081
L375.816 375.473
L383.746 373.901
L391.677 372.484
L399.608 371.34
L407.539 370.531
L415.469 370.032
L423.4 369.815
L431.331 369.847
L439.262 370.1
L447.192 370.542
L455.123 371.142
L463.054 371.871
L470.985 372.682
L478.915 373.492
L486.846 374.212
L494.777 374.752
L502.708 375.024
L510.638 374.938
L518.569 374.405
L526.5 373.337" style="fill:none;stroke:#00bfbf;stroke-linecap:square;"/>
   </g>
   <g id="line2d_5">
    <path clip-path="url(#p5873ec822d)" d="
M73.125 370.572
L137.893 378.568
L145.824 378.224
L153.754 377.726
L161.685 377.107
L169.616 376.398
L177.547 375.631
L185.477 374.838
L193.408 374.052
L201.339 373.304
L209.27 372.624
L217.2 372.028
L225.131 371.527
L233.062 371.132
L240.993 370.853
L248.923 370.7
L256.854 370.685
L264.785 370.818
L272.716 371.106
L280.647 371.526
L288.577 372.034
L296.508 372.583
L304.439 373.13
L312.37 373.629
L320.3 374.035
L328.231 374.303
L336.162 374.391
L344.093 374.293
L352.023 374.044
L359.954 373.679
L367.885 373.234
L375.816 372.744
L383.746 372.246
L391.677 371.775
L399.608 371.367
L407.539 371.041
L415.469 370.796
L423.4 370.625
L431.331 370.525
L439.262 370.489
L447.192 370.513
L455.123 370.592
L463.054 370.721
L470.985 370.89
L478.915 371.078
L486.846 371.263
L494.777 371.421
L502.708 371.53
L510.638 371.568
L518.569 371.511
L526.5 371.338" style="fill:none;stroke:#bf00bf;stroke-linecap:square;"/>
   </g>
   <g id="line2d_6">
    <path clip-path="url(#p5873ec822d)" d="
M73.125 370.572
L137.893 377.557
L145.824 374.986
L153.754 372.988
L161.685 371.497
L169.616 370.449
L177.547 369.781
L185.477 369.428
L193.408 369.326
L201.339 369.41
L209.27 369.619
L217.2 369.911
L225.131 370.252
L233.062 370.606
L240.993 370.939
L248.923 371.216
L256.854 371.404
L264.785 371.467
L272.716 371.375
L280.647 371.144
L288.577 370.821
L296.508 370.452
L304.439 370.086
L312.37 369.769
L320.3 369.548
L328.231 369.47
L336.162 369.581
L344.093 369.88
L352.023 370.322
L359.954 370.859
L367.885 371.445
L375.816 372.03
L383.746 372.569
L391.677 373.014
L399.608 373.318
L407.539 373.455
L415.469 373.435
L423.4 373.269
L431.331 372.969
L439.262 372.548
L447.192 372.016
L455.123 371.387
L463.054 370.672
L470.985 369.888
L478.915 369.071
L486.846 368.255
L494.777 367.476
L502.708 366.771
L510.638 366.176
L518.569 365.727
L526.5 365.459" style="fill:none;stroke:#bfbf00;stroke-linecap:square;"/>
   </g>
   <g id="line2d_7">
    <path clip-path="url(#p5873ec822d)" d="
M73.125 370.572
L137.893 376.801
L145.824 374.337
L153.754 372.422
L161.685 370.994
L169.616 369.989
L177.547 369.345
L185.477 368.998
L193.408 368.888
L201.339 368.949
L209.27 369.124
L217.2 369.373
L225.131 369.667
L233.062 369.975
L240.993 370.267
L248.923 370.514
L256.854 370.685
L264.785 370.751
L272.716 370.685
L280.647 370.509
L288.577 370.273
L296.508 370.028
L304.439 369.826
L312.37 369.718
L320.3 369.756
L328.231 369.99
L336.162 370.471
L344.093 371.185
L352.023 372.063
L359.954 373.031
L367.885 374.015
L375.816 374.941
L383.746 375.736
L391.677 376.326
L399.608 376.638
L407.539 376.641
L415.469 376.369
L423.4 375.862
L431.331 375.159
L439.262 374.3
L447.192 373.324
L455.123 372.272
L463.054 371.183
L470.985 370.107
L478.915 369.121
L486.846 368.304
L494.777 367.738
L502.708 367.503
L510.638 367.68
L518.569 368.347
L526.5 369.587" style="fill:none;stroke:#000000;stroke-linecap:square;"/>
   </g>
   <g id="line2d_8">
    <path clip-path="url(#p5873ec822d)" d="
M73.125 370.572
L137.893 377.517
L145.824 376.302
L153.754 375.339
L161.685 374.595
L169.616 374.034
L177.547 373.622
L185.477 373.326
L193.408 373.111
L201.339 372.943
L209.27 372.79
L217.2 372.638
L225.131 372.479
L233.062 372.306
L240.993 372.111
L248.923 371.886
L256.854 371.625
L264.785 371.32
L272.716 370.965
L280.647 370.588
L288.577 370.235
L296.508 369.954
L304.439 369.792
L312.37 369.795
L320.3 370.012
L328.231 370.489
L336.162 371.271
L344.093 372.337
L352.023 373.6
L359.954 374.973
L367.885 376.366
L375.816 377.69
L383.746 378.857
L391.677 379.778
L399.608 380.364
L407.539 380.578
L415.469 380.453
L423.4 380.035
L431.331 379.365
L439.262 378.486
L447.192 377.441
L455.123 376.273
L463.054 375.024
L470.985 373.75
L478.915 372.535
L486.846 371.467
L494.777 370.636
L502.708 370.129
L510.638 370.036
L518.569 370.446
L526.5 371.447" style="fill:none;stroke:#0000ff;stroke-linecap:square;"/>
   </g>
   <g id="line2d_9">
    <path clip-path="url(#p5873ec822d)" d="
M73.125 370.572
L137.893 380.491
L145.824 378.88
L153.754 377.513
L161.685 376.356
L169.616 375.379
L177.547 374.549
L185.477 373.835
L193.408 373.205
L201.339 372.627
L209.27 372.072
L217.2 371.531
L225.131 371.002
L233.062 370.482
L240.993 369.971
L248.923 369.465
L256.854 368.964
L264.785 368.465
L272.716 367.97
L280.647 367.507
L288.577 367.128
L296.508 366.881
L304.439 366.816
L312.37 366.983
L320.3 367.432
L328.231 368.212
L336.162 369.37
L344.093 370.869
L352.023 372.587
L359.954 374.401
L367.885 376.187
L375.816 377.821
L383.746 379.179
L391.677 380.136
L399.608 380.57
L407.539 380.433
L415.469 379.795
L423.4 378.735
L431.331 377.332
L439.262 375.666
L447.192 373.816
L455.123 371.862
L463.054 369.883
L470.985 367.976
L478.915 366.281
L486.846 364.947
L494.777 364.12
L502.708 363.947
L510.638 364.576
L518.569 366.154
L526.5 368.828" style="fill:none;stroke:#008000;stroke-linecap:square;"/>
   </g>
   <g id="patch_3">
    <path d="
M73.125 44.1
L526.5 44.1" style="fill:none;stroke:#000000;stroke-linecap:square;stroke-linejoin:miter;"/>
   </g>
   <g id="patch_4">
    <path d="
M526.5 396.9
L526.5 44.1" style="fill:none;stroke:#000000;stroke-linecap:square;stroke-linejoin:miter;"/>
   </g>
   <g id="patch_5">
    <path d="
M73.125 396.9
L526.5 396.9" style="fill:none;stroke:#000000;stroke-linecap:square;stroke-linejoin:miter;"/>
   </g>
   <g id="patch_6">
    <path d="
M73.125 396.9
L73.125 44.1" style="fill:none;stroke:#000000;stroke-linecap:square;stroke-linejoin:miter;"/>
   </g>
   <g id="matplotlib.axis_1">
    <g id="xtick_1">
     <g id="line2d_10">
      <path clip-path="url(#p5873ec822d)" d="
M73.125 396.9
L73.125 44.1" style="fill:none;stroke:#000000;stroke-dasharray:1.000000,3.000000;stroke-dashoffset:0.0;stroke-width:0.5;"/>
     </g>
     <g id="line2d_11">
      <defs>
       <path d="
M0 0
L0 -4" id="m93b0483c22" style="stroke:#000000;stroke-width:0.5;"/>
      </defs>
      <g>
       <use style="stroke:#000000;stroke-width:0.5;" x="73.125" xlink:href="#m93b0483c22" y="396.9"/>
      </g>
     </g>
     <g id="line2d_12">
      <defs>
       <path d="
M0 0
L0 4" id="m741efc42ff" style="stroke:#000000;stroke-width:0.5;"/>
      </defs>
      <g>
       <use style="stroke:#000000;stroke-width:0.5;" x="73.125" xlink:href="#m741efc42ff" y="44.1"/>
      </g>
     </g>
     <g id="text_1">
      <!-- 0 -->
      <defs>
       <path d="
M31.7812 66.4062
Q24.1719 66.4062 20.3281 58.9062
Q16.5 51.4219 16.5 36.375
Q16.5 21.3906 20.3281 13.8906
Q24.1719 6.39062 31.7812 6.39062
Q39.4531 6.39062 43.2812 13.8906
Q47.125 21.3906 47.125 36.375
Q47.125 51.4219 43.2812 58.9062
Q39.4531 66.4062 31.7812 66.4062
M31.7812 74.2188
Q44.0469 74.2188 50.5156 64.5156
Q56.9844 54.8281 56.9844 36.375
Q56.9844 17.9688 50.5156 8.26562
Q44.0469 -1.42188 31.7812 -1.42188
Q19.5312 -1.42188 13.0625 8.26562
Q6.59375 17.9688 6.59375 36.375
Q6.59375 54.8281 13.0625 64.5156
Q19.5312 74.2188 31.7812 74.2188" id="DejaVuSans-30"/>
      </defs>
      <g transform="translate(70.1015625 410.018125)scale(0.12 -0.12)">
       <use xlink:href="#DejaVuSans-30"/>
      </g>
     </g>
    </g>
    <g id="xtick_2">
     <g id="line2d_13">
      <path clip-path="url(#p5873ec822d)" d="
M137.893 396.9
L137.893 44.1" style="fill:none;stroke:#000000;stroke-dasharray:1.000000,3.000000;stroke-dashoffset:0.0;stroke-width:0.5;"/>
     </g>
     <g id="line2d_14">
      <g>
       <use style="stroke:#000000;stroke-width:0.5;" x="137.892857143" xlink:href="#m93b0483c22" y="396.9"/>
      </g>
     </g>
     <g id="line2d_15">
      <g>
       <use style="stroke:#000000;stroke-width:0.5;" x="137.892857143" xlink:href="#m741efc42ff" y="44.1"/>
      </g>
     </g>
     <g id="text_2">
      <!-- 1 -->
      <defs>
       <path d="
M12.4062 8.29688
L28.5156 8.29688
L28.5156 63.9219
L10.9844 60.4062
L10.9844 69.3906
L28.4219 72.9062
L38.2812 72.9062
L38.2812 8.29688
L54.3906 8.29688
L54.3906 0
L12.4062 0
z
" id="DejaVuSans-31"/>
      </defs>
      <g transform="translate(135.288482143 410.018125)scale(0.12 -0.12)">
       <use xlink:href="#DejaVuSans-31"/>
      </g>
     </g>
    </g>
    <g id="xtick_3">
     <g id="line2d_16">
      <path clip-path="url(#p5873ec822d)" d="
M202.661 396.9
L202.661 44.1" style="fill:none;stroke:#000000;stroke-dasharray:1.000000,3.000000;stroke-dashoffset:0.0;stroke-width:0.5;"/>
     </g>
     <g id="line2d_17">
      <g>
       <use style="stroke:#000000;stroke-width:0.5;" x="202.660714286" xlink:href="#m93b0483c22" y="396.9"/>
      </g>
     </g>
     <g id="line2d_18">
      <g>
       <use style="stroke:#000000;stroke-width:0.5;" x="202.660714286" xlink:href="#m741efc42ff" y="44.1"/>
      </g>
     </g>
     <g id="text_3">
      <!-- 2 -->
      <defs>
       <path d="
M19.1875 8.29688
L53.6094 8.29688
L53.6094 0
L7.32812 0
L7.32812 8.29688
Q12.9375 14.1094 22.625 23.8906
Q32.3281 33.6875 34.8125 36.5312
Q39.5469 41.8438 41.4219 45.5312
Q43.3125 49.2188 43.3125 52.7812
Q43.3125 58.5938 39.2344 62.25
Q35.1562 65.9219 28.6094 65.9219
Q23.9688 65.9219 18.8125 64.3125
Q13.6719 62.7031 7.8125 59.4219
L7.8125 69.3906
Q13.7656 71.7812 18.9375 73
Q24.125 74.2188 28.4219 74.2188
Q39.75 74.2188 46.4844 68.5469
Q53.2188 62.8906 53.2188 53.4219
Q53.2188 48.9219 51.5312 44.8906
Q49.8594 40.875 45.4062 35.4062
Q44.1875 33.9844 37.6406 27.2188
Q31.1094 20.4531 19.1875 8.29688" id="DejaVuSans-32"/>
      </defs>
      <g transform="translate(199.883839286 410.018125)scale(0.12 -0.12)">
       <use xlink:href="#DejaVuSans-32"/>
      </g>
     </g>
    </g>
    <g id="xtick_4">
     <g id="line2d_19">
      <path clip-path="url(#p5873ec822d)" d="
M267.429 396.9
L267.429 44.1" style="fill:none;stroke:#000000;stroke-dasharray:1.000000,3.000000;stroke-dashoffset:0.0;stroke-width:0.5;"/>
     </g>
     <g id="line2d_20">
      <g>
       <use style="stroke:#000000;stroke-width:0.5;" x="267.428571429" xlink:href="#m93b0483c22" y="396.9"/>
      </g>
     </g>
     <g id="line2d_21">
      <g>
       <use style="stroke:#000000;stroke-width:0.5;" x="267.428571429" xlink:href="#m741efc42ff" y="44.1"/>
      </g>
     </g>
     <g id="text_4">
      <!-- 3 -->
      <defs>
       <path d="
M40.5781 39.3125
Q47.6562 37.7969 51.625 33
Q55.6094 28.2188 55.6094 21.1875
Q55.6094 10.4062 48.1875 4.48438
Q40.7656 -1.42188 27.0938 -1.42188
Q22.5156 -1.42188 17.6562 -0.515625
Q12.7969 0.390625 7.625 2.20312
L7.625 11.7188
Q11.7188 9.32812 16.5938 8.10938
Q21.4844 6.89062 26.8125 6.89062
Q36.0781 6.89062 40.9375 10.5469
Q45.7969 14.2031 45.7969 21.1875
Q45.7969 27.6406 41.2812 31.2656
Q36.7656 34.9062 28.7188 34.9062
L20.2188 34.9062
L20.2188 43.0156
L29.1094 43.0156
Q36.375 43.0156 40.2344 45.9219
Q44.0938 48.8281 44.0938 54.2969
Q44.0938 59.9062 40.1094 62.9062
Q36.1406 65.9219 28.7188 65.9219
Q24.6562 65.9219 20.0156 65.0312
Q15.375 64.1562 9.8125 62.3125
L9.8125 71.0938
Q15.4375 72.6562 20.3438 73.4375
Q25.25 74.2188 29.5938 74.2188
Q40.8281 74.2188 47.3594 69.1094
Q53.9062 64.0156 53.9062 55.3281
Q53.9062 49.2656 50.4375 45.0938
Q46.9688 40.9219 40.5781 39.3125" id="DejaVuSans-33"/>
      </defs>
      <g transform="translate(264.549508929 410.018125)scale(0.12 -0.12)">
       <use xlink:href="#DejaVuSans-33"/>
      </g>
     </g>
    </g>
    <g id="xtick_5">
     <g id="line2d_22">
      <path clip-path="url(#p5873ec822d)" d="
M332.196 396.9
L332.196 44.1" style="fill:none;stroke:#000000;stroke-dasharray:1.000000,3.000000;stroke-dashoffset:0.0;stroke-width:0.5;"/>
     </g>
     <g id="line2d_23">
      <g>
       <use style="stroke:#000000;stroke-width:0.5;" x="332.196428571" xlink:href="#m93b0483c22" y="396.9"/>
      </g>
     </g>
     <g id="line2d_24">
      <g>
       <use style="stroke:#000000;stroke-width:0.5;" x="332.196428571" xlink:href="#m741efc42ff" y="44.1"/>
      </g>
     </g>
     <g id="text_5">
      <!-- 4 -->
      <defs>
       <path d="
M37.7969 64.3125
L12.8906 25.3906
L37.7969 25.3906
z

M35.2031 72.9062
L47.6094 72.9062
L47.6094 25.3906
L58.0156 25.3906
L58.0156 17.1875
L47.6094 17.1875
L47.6094 0
L37.7969 0
L37.7969 17.1875
L4.89062 17.1875
L4.89062 26.7031
z
" id="DejaVuSans-34"/>
      </defs>
      <g transform="translate(329.008928571 410.018125)scale(0.12 -0.12)">
       <use xlink:href="#DejaVuSans-34"/>
      </g>
     </g>
    </g>
    <g id="xtick_6">
     <g id="line2d_25">
      <path clip-path="url(#p5873ec822d)" d="
M396.964 396.9
L396.964 44.1" style="fill:none;stroke:#000000;stroke-dasharray:1.000000,3.000000;stroke-dashoffset:0.0;stroke-width:0.5;"/>
     </g>
     <g id="line2d_26">
      <g>
       <use style="stroke:#000000;stroke-width:0.5;" x="396.964285714" xlink:href="#m93b0483c22" y="396.9"/>
      </g>
     </g>
     <g id="line2d_27">
      <g>
       <use style="stroke:#000000;stroke-width:0.5;" x="396.964285714" xlink:href="#m741efc42ff" y="44.1"/>
      </g>
     </g>
     <g id="text_6">
      <!-- 5 -->
      <defs>
       <path d="
M10.7969 72.9062
L49.5156 72.9062
L49.5156 64.5938
L19.8281 64.5938
L19.8281 46.7344
Q21.9688 47.4688 24.1094 47.8281
Q26.2656 48.1875 28.4219 48.1875
Q40.625 48.1875 47.75 41.5
Q54.8906 34.8125 54.8906 23.3906
Q54.8906 11.625 47.5625 5.09375
Q40.2344 -1.42188 26.9062 -1.42188
Q22.3125 -1.42188 17.5469 -0.640625
Q12.7969 0.140625 7.71875 1.70312
L7.71875 11.625
Q12.1094 9.23438 16.7969 8.0625
Q21.4844 6.89062 26.7031 6.89062
Q35.1562 6.89062 40.0781 11.3281
Q45.0156 15.7656 45.0156 23.3906
Q45.0156 31 40.0781 35.4375
Q35.1562 39.8906 26.7031 39.8906
Q22.75 39.8906 18.8125 39.0156
Q14.8906 38.1406 10.7969 36.2812
z
" id="DejaVuSans-35"/>
      </defs>
      <g transform="translate(394.133973214 410.018125)scale(0.12 -0.12)">
       <use xlink:href="#DejaVuSans-35"/>
      </g>
     </g>
    </g>
    <g id="xtick_7">
     <g id="line2d_28">
      <path clip-path="url(#p5873ec822d)" d="
M461.732 396.9
L461.732 44.1" style="fill:none;stroke:#000000;stroke-dasharray:1.000000,3.000000;stroke-dashoffset:0.0;stroke-width:0.5;"/>
     </g>
     <g id="line2d_29">
      <g>
       <use style="stroke:#000000;stroke-width:0.5;" x="461.732142857" xlink:href="#m93b0483c22" y="396.9"/>
      </g>
     </g>
     <g id="line2d_30">
      <g>
       <use style="stroke:#000000;stroke-width:0.5;" x="461.732142857" xlink:href="#m741efc42ff" y="44.1"/>
      </g>
     </g>
     <g id="text_7">
      <!-- 6 -->
      <defs>
       <path d="
M33.0156 40.375
Q26.375 40.375 22.4844 35.8281
Q18.6094 31.2969 18.6094 23.3906
Q18.6094 15.5312 22.4844 10.9531
Q26.375 6.39062 33.0156 6.39062
Q39.6562 6.39062 43.5312 10.9531
Q47.4062 15.5312 47.4062 23.3906
Q47.4062 31.2969 43.5312 35.8281
Q39.6562 40.375 33.0156 40.375
M52.5938 71.2969
L52.5938 62.3125
Q48.875 64.0625 45.0938 64.9844
Q41.3125 65.9219 37.5938 65.9219
Q27.8281 65.9219 22.6719 59.3281
Q17.5312 52.7344 16.7969 39.4062
Q19.6719 43.6562 24.0156 45.9219
Q28.375 48.1875 33.5938 48.1875
Q44.5781 48.1875 50.9531 41.5156
Q57.3281 34.8594 57.3281 23.3906
Q57.3281 12.1562 50.6875 5.35938
Q44.0469 -1.42188 33.0156 -1.42188
Q20.3594 -1.42188 13.6719 8.26562
Q6.98438 17.9688 6.98438 36.375
Q6.98438 53.6562 15.1875 63.9375
Q23.3906 74.2188 37.2031 74.2188
Q40.9219 74.2188 44.7031 73.4844
Q48.4844 72.75 52.5938 71.2969" id="DejaVuSans-36"/>
      </defs>
      <g transform="translate(458.711517857 410.018125)scale(0.12 -0.12)">
       <use xlink:href="#DejaVuSans-36"/>
      </g>
     </g>
    </g>
    <g id="xtick_8">
     <g id="line2d_31">
      <path clip-path="url(#p5873ec822d)" d="
M526.5 396.9
L526.5 44.1" style="fill:none;stroke:#000000;stroke-dasharray:1.000000,3.000000;stroke-dashoffset:0.0;stroke-width:0.5;"/>
     </g>
     <g id="line2d_32">
      <g>
       <use style="stroke:#000000;stroke-width:0.5;" x="526.5" xlink:href="#m93b0483c22" y="396.9"/>
      </g>
     </g>
     <g id="line2d_33">
      <g>
       <use style="stroke:#000000;stroke-width:0.5;" x="526.5" xlink:href="#m741efc42ff" y="44.1"/>
      </g>
     </g>
     <g id="text_8">
      <!-- 7 -->
      <defs>
       <path d="
M8.20312 72.9062
L55.0781 72.9062
L55.0781 68.7031
L28.6094 0
L18.3125 0
L43.2188 64.5938
L8.20312 64.5938
z
" id="DejaVuSans-37"/>
      </defs>
      <g transform="translate(523.6875 410.018125)scale(0.12 -0.12)">
       <use xlink:href="#DejaVuSans-37"/>
      </g>
     </g>
    </g>
    <g id="text_9">
     <!-- Server -->
     <defs>
      <path d="
M53.5156 70.5156
L53.5156 60.8906
Q47.9062 63.5781 42.9219 64.8906
Q37.9375 66.2188 33.2969 66.2188
Q25.25 66.2188 20.875 63.0938
Q16.5 59.9688 16.5 54.2031
Q16.5 49.3594 19.4062 46.8906
Q22.3125 44.4375 30.4219 42.9219
L36.375 41.7031
Q47.4062 39.5938 52.6562 34.2969
Q57.9062 29 57.9062 20.125
Q57.9062 9.51562 50.7969 4.04688
Q43.7031 -1.42188 29.9844 -1.42188
Q24.8125 -1.42188 18.9688 -0.25
Q13.1406 0.921875 6.89062 3.21875
L6.89062 13.375
Q12.8906 10.0156 18.6562 8.29688
Q24.4219 6.59375 29.9844 6.59375
Q38.4219 6.59375 43.0156 9.90625
Q47.6094 13.2344 47.6094 19.3906
Q47.6094 24.75 44.3125 27.7812
Q41.0156 30.8125 33.5 32.3281
L27.4844 33.5
Q16.4531 35.6875 11.5156 40.375
Q6.59375 45.0625 6.59375 53.4219
Q6.59375 63.0938 13.4062 68.6562
Q20.2188 74.2188 32.1719 74.2188
Q37.3125 74.2188 42.625 73.2812
Q47.9531 72.3594 53.5156 70.5156" id="DejaVuSans-53"/>
      <path d="
M56.2031 29.5938
L56.2031 25.2031
L14.8906 25.2031
Q15.4844 15.9219 20.4844 11.0625
Q25.4844 6.20312 34.4219 6.20312
Q39.5938 6.20312 44.4531 7.46875
Q49.3125 8.73438 54.1094 11.2812
L54.1094 2.78125
Q49.2656 0.734375 44.1875 -0.34375
Q39.1094 -1.42188 33.8906 -1.42188
Q20.7969 -1.42188 13.1562 6.1875
Q5.51562 13.8125 5.51562 26.8125
Q5.51562 40.2344 12.7656 48.1094
Q20.0156 56 32.3281 56
Q43.3594 56 49.7812 48.8906
Q56.2031 41.7969 56.2031 29.5938
M47.2188 32.2344
Q47.125 39.5938 43.0938 43.9844
Q39.0625 48.3906 32.4219 48.3906
Q24.9062 48.3906 20.3906 44.1406
Q15.875 39.8906 15.1875 32.1719
z
" id="DejaVuSans-65"/>
      <path d="
M2.98438 54.6875
L12.5 54.6875
L29.5938 8.79688
L46.6875 54.6875
L56.2031 54.6875
L35.6875 0
L23.4844 0
z
" id="DejaVuSans-76"/>
      <path d="
M41.1094 46.2969
Q39.5938 47.1719 37.8125 47.5781
Q36.0312 48 33.8906 48
Q26.2656 48 22.1875 43.0469
Q18.1094 38.0938 18.1094 28.8125
L18.1094 0
L9.07812 0
L9.07812 54.6875
L18.1094 54.6875
L18.1094 46.1875
Q20.9531 51.1719 25.4844 53.5781
Q30.0312 56 36.5312 56
Q37.4531 56 38.5781 55.875
Q39.7031 55.7656 41.0625 55.5156
z
" id="DejaVuSans-72"/>
     </defs>
     <g transform="translate(280.5309375 426.631875)scale(0.12 -0.12)">
      <use xlink:href="#DejaVuSans-53"/>
      <use x="63.4765625" xlink:href="#DejaVuSans-65"/>
      <use x="125.0" xlink:href="#DejaVuSans-72"/>
      <use x="166.11328125" xlink:href="#DejaVuSans-76"/>
      <use x="225.29296875" xlink:href="#DejaVuSans-65"/>
      <use x="286.81640625" xlink:href="#DejaVuSans-72"/>
     </g>
    </g>
   </g>
   <g id="matplotlib.axis_2">
    <g id="ytick_1">
     <g id="line2d_34">
      <path clip-path="url(#p5873ec822d)" d="
M73.125 370.572
L526.5 370.572" style="fill:none;stroke:#000000;stroke-dasharray:1.000000,3.000000;stroke-dashoffset:0.0;stroke-width:0.5;"/>
     </g>
     <g id="line2d_35">
      <defs>
       <path d="
M0 0
L4 0" id="m728421d6d4" style="stroke:#000000;stroke-width:0.5;"/>
      </defs>
      <g>
       <use style="stroke:#000000;stroke-width:0.5;" x="73.125" xlink:href="#m728421d6d4" y="370.571641791"/>
      </g>
     </g>
     <g id="line2d_36">
      <defs>
       <path d="
M0 0
L-4 0" id="mcb0005524f" style="stroke:#000000;stroke-width:0.5;"/>
      </defs>
      <g>
       <use style="stroke:#000000;stroke-width:0.5;" x="526.5" xlink:href="#mcb0005524f" y="370.571641791"/>
      </g>
     </g>
     <g id="text_10">
      <!-- 1 -->
      <g transform="translate(63.91625 373.882891791)scale(0.12 -0.12)">
       <use xlink:href="#DejaVuSans-31"/>
      </g>
     </g>
    </g>
    <g id="ytick_2">
     <g id="line2d_37">
      <path clip-path="url(#p5873ec822d)" d="
M73.125 317.915
L526.5 317.915" style="fill:none;stroke:#000000;stroke-dasharray:1.000000,3.000000;stroke-dashoffset:0.0;stroke-width:0.5;"/>
     </g>
     <g id="line2d_38">
      <g>
       <use style="stroke:#000000;stroke-width:0.5;" x="73.125" xlink:href="#m728421d6d4" y="317.914925373"/>
      </g>
     </g>
     <g id="line2d_39">
      <g>
       <use style="stroke:#000000;stroke-width:0.5;" x="526.5" xlink:href="#mcb0005524f" y="317.914925373"/>
      </g>
     </g>
     <g id="text_11">
      <!-- 2 -->
      <g transform="translate(63.57125 321.226175373)scale(0.12 -0.12)">
       <use xlink:href="#DejaVuSans-32"/>
      </g>
     </g>
    </g>
    <g id="ytick_3">
     <g id="line2d_40">
      <path clip-path="url(#p5873ec822d)" d="
M73.125 265.258
L526.5 265.258" style="fill:none;stroke:#000000;stroke-dasharray:1.000000,3.000000;stroke-dashoffset:0.0;stroke-width:0.5;"/>
     </g>
     <g id="line2d_41">
      <g>
       <use style="stroke:#000000;stroke-width:0.5;" x="73.125" xlink:href="#m728421d6d4" y="265.258208955"/>
      </g>
     </g>
     <g id="line2d_42">
      <g>
       <use style="stroke:#000000;stroke-width:0.5;" x="526.5" xlink:href="#mcb0005524f" y="265.258208955"/>
      </g>
     </g>
     <g id="text_12">
      <!-- 3 -->
      <g transform="translate(63.366875 268.569458955)scale(0.12 -0.12)">
       <use xlink:href="#DejaVuSans-33"/>
      </g>
     </g>
    </g>
    <g id="ytick_4">
     <g id="line2d_43">
      <path clip-path="url(#p5873ec822d)" d="
M73.125 212.601
L526.5 212.601" style="fill:none;stroke:#000000;stroke-dasharray:1.000000,3.000000;stroke-dashoffset:0.0;stroke-width:0.5;"/>
     </g>
     <g id="line2d_44">
      <g>
       <use style="stroke:#000000;stroke-width:0.5;" x="73.125" xlink:href="#m728421d6d4" y="212.601492537"/>
      </g>
     </g>
     <g id="line2d_45">
      <g>
       <use style="stroke:#000000;stroke-width:0.5;" x="526.5" xlink:href="#mcb0005524f" y="212.601492537"/>
      </g>
     </g>
     <g id="text_13">
      <!-- 4 -->
      <g transform="translate(62.75 215.912742537)scale(0.12 -0.12)">
       <use xlink:href="#DejaVuSans-34"/>
      </g>
     </g>
    </g>
    <g id="ytick_5">
     <g id="line2d_46">
      <path clip-path="url(#p5873ec822d)" d="
M73.125 159.945
L526.5 159.945" style="fill:none;stroke:#000000;stroke-dasharray:1.000000,3.000000;stroke-dashoffset:0.0;stroke-width:0.5;"/>
     </g>
     <g id="line2d_47">
      <g>
       <use style="stroke:#000000;stroke-width:0.5;" x="73.125" xlink:href="#m728421d6d4" y="159.944776119"/>
      </g>
     </g>
     <g id="line2d_48">
      <g>
       <use style="stroke:#000000;stroke-width:0.5;" x="526.5" xlink:href="#mcb0005524f" y="159.944776119"/>
      </g>
     </g>
     <g id="text_14">
      <!-- 5 -->
      <g transform="translate(63.464375 163.256026119)scale(0.12 -0.12)">
       <use xlink:href="#DejaVuSans-35"/>
      </g>
     </g>
    </g>
    <g id="ytick_6">
     <g id="line2d_49">
      <path clip-path="url(#p5873ec822d)" d="
M73.125 107.288
L526.5 107.288" style="fill:none;stroke:#000000;stroke-dasharray:1.000000,3.000000;stroke-dashoffset:0.0;stroke-width:0.5;"/>
     </g>
     <g id="line2d_50">
      <g>
       <use style="stroke:#000000;stroke-width:0.5;" x="73.125" xlink:href="#m728421d6d4" y="107.288059701"/>
      </g>
     </g>
     <g id="line2d_51">
      <g>
       <use style="stroke:#000000;stroke-width:0.5;" x="526.5" xlink:href="#mcb0005524f" y="107.288059701"/>
      </g>
     </g>
     <g id="text_15">
      <!-- 6 -->
      <g transform="translate(63.08375 110.599309701)scale(0.12 -0.12)">
       <use xlink:href="#DejaVuSans-36"/>
      </g>
     </g>
    </g>
    <g id="ytick_7">
     <g id="line2d_52">
      <path clip-path="url(#p5873ec822d)" d="
M73.125 54.6313
L526.5 54.6313" style="fill:none;stroke:#000000;stroke-dasharray:1.000000,3.000000;stroke-dashoffset:0.0;stroke-width:0.5;"/>
     </g>
     <g id="line2d_53">
      <g>
       <use style="stroke:#000000;stroke-width:0.5;" x="73.125" xlink:href="#m728421d6d4" y="54.6313432836"/>
      </g>
     </g>
     <g id="line2d_54">
      <g>
       <use style="stroke:#000000;stroke-width:0.5;" x="526.5" xlink:href="#mcb0005524f" y="54.6313432836"/>
      </g>
     </g>
     <g id="text_16">
      <!-- 7 -->
      <g transform="translate(63.5 57.9425932836)scale(0.12 -0.12)">
       <use xlink:href="#DejaVuSans-37"/>
      </g>
     </g>
    </g>
    <g id="text_17">
     <!-- $\eta$ -->
     <defs>
      <path d="
M10.6875 -1.125
Q9.46875 -1.125 8.59375 -0.34375
Q7.71875 0.4375 7.71875 1.70312
Q7.71875 2.29688 7.8125 2.59375
L15.2812 32.4219
Q16.0156 35.2031 16.0156 37.3125
Q16.0156 41.6094 13.0938 41.6094
Q9.96875 41.6094 8.45312 37.8594
Q6.9375 34.125 5.51562 28.4219
Q5.51562 28.125 5.21875 27.9531
Q4.9375 27.7812 4.6875 27.7812
L3.51562 27.7812
Q3.17188 27.7812 2.92188 28.1406
Q2.6875 28.5156 2.6875 28.8125
Q3.76562 33.1562 4.76562 36.1719
Q5.76562 39.2031 7.89062 41.6875
Q10.0156 44.1875 13.1875 44.1875
Q16.8906 44.1875 19.7969 41.8438
Q22.7031 39.5 22.7031 35.7969
Q25.6406 39.7031 29.5938 41.9375
Q33.5469 44.1875 38.1875 44.1875
Q43.4062 44.1875 46.5469 41.375
Q49.7031 38.5781 49.7031 33.4062
Q49.7031 30.4219 49.0312 27.875
L37.4062 -18.4062
Q37.1094 -19.8281 35.9375 -20.7031
Q34.7656 -21.5781 33.2969 -21.5781
Q32.0781 -21.5781 31.2031 -20.8125
Q30.3281 -20.0625 30.3281 -18.7969
Q30.3281 -18.2188 30.4219 -18.0156
L41.8906 28.0781
Q42.9219 32.1719 42.9219 34.9062
Q42.9219 37.7031 41.75 39.6562
Q40.5781 41.6094 37.9844 41.6094
Q28.1719 41.6094 21.6875 29.5
L14.8906 2.20312
Q14.5469 0.828125 13.3438 -0.140625
Q12.1562 -1.125 10.6875 -1.125" id="Cmmi10-b4"/>
     </defs>
     <g transform="translate(55.11 223.5)rotate(-90.0)scale(0.12 -0.12)">
      <use transform="translate(0.0 0.8125)" xlink:href="#Cmmi10-b4"/>
     </g>
    </g>
   </g>
   <g id="text_18">
    <!-- Speedup 1:n Verteilung Dichtefunktion -->
    <defs>
     <path d="
M11.7188 12.4062
L22.0156 12.4062
L22.0156 0
L11.7188 0
z

M11.7188 51.7031
L22.0156 51.7031
L22.0156 39.3125
L11.7188 39.3125
z
" id="DejaVuSans-3a"/>
     <path d="
M45.4062 27.9844
Q45.4062 37.75 41.375 43.1094
Q37.3594 48.4844 30.0781 48.4844
Q22.8594 48.4844 18.8281 43.1094
Q14.7969 37.75 14.7969 27.9844
Q14.7969 18.2656 18.8281 12.8906
Q22.8594 7.51562 30.0781 7.51562
Q37.3594 7.51562 41.375 12.8906
Q45.4062 18.2656 45.4062 27.9844
M54.3906 6.78125
Q54.3906 -7.17188 48.1875 -13.9844
Q42 -20.7969 29.2031 -20.7969
Q24.4688 -20.7969 20.2656 -20.0938
Q16.0625 -19.3906 12.1094 -17.9219
L12.1094 -9.1875
Q16.0625 -11.3281 19.9219 -12.3438
Q23.7812 -13.375 27.7812 -13.375
Q36.625 -13.375 41.0156 -8.76562
Q45.4062 -4.15625 45.4062 5.17188
L45.4062 9.625
Q42.625 4.78125 38.2812 2.39062
Q33.9375 0 27.875 0
Q17.8281 0 11.6719 7.65625
Q5.51562 15.3281 5.51562 27.9844
Q5.51562 40.6719 11.6719 48.3281
Q17.8281 56 27.875 56
Q33.9375 56 38.2812 53.6094
Q42.625 51.2188 45.4062 46.3906
L45.4062 54.6875
L54.3906 54.6875
z
" id="DejaVuSans-67"/>
     <path d="
M30.6094 48.3906
Q23.3906 48.3906 19.1875 42.75
Q14.9844 37.1094 14.9844 27.2969
Q14.9844 17.4844 19.1562 11.8438
Q23.3438 6.20312 30.6094 6.20312
Q37.7969 6.20312 41.9844 11.8594
Q46.1875 17.5312 46.1875 27.2969
Q46.1875 37.0156 41.9844 42.7031
Q37.7969 48.3906 30.6094 48.3906
M30.6094 56
Q42.3281 56 49.0156 48.375
Q55.7188 40.7656 55.7188 27.2969
Q55.7188 13.875 49.0156 6.21875
Q42.3281 -1.42188 30.6094 -1.42188
Q18.8438 -1.42188 12.1719 6.21875
Q5.51562 13.875 5.51562 27.2969
Q5.51562 40.7656 12.1719 48.375
Q18.8438 56 30.6094 56" id="DejaVuSans-6f"/>
     <path d="
M54.8906 33.0156
L54.8906 0
L45.9062 0
L45.9062 32.7188
Q45.9062 40.4844 42.875 44.3281
Q39.8438 48.1875 33.7969 48.1875
Q26.5156 48.1875 22.3125 43.5469
Q18.1094 38.9219 18.1094 30.9062
L18.1094 0
L9.07812 0
L9.07812 54.6875
L18.1094 54.6875
L18.1094 46.1875
Q21.3438 51.125 25.7031 53.5625
Q30.0781 56 35.7969 56
Q45.2188 56 50.0469 50.1719
Q54.8906 44.3438 54.8906 33.0156" id="DejaVuSans-6e"/>
     <path d="
M9.07812 75.9844
L18.1094 75.9844
L18.1094 31.1094
L44.9219 54.6875
L56.3906 54.6875
L27.3906 29.1094
L57.625 0
L45.9062 0
L18.1094 26.7031
L18.1094 0
L9.07812 0
z
" id="DejaVuSans-6b"/>
     <path d="
M9.42188 75.9844
L18.4062 75.9844
L18.4062 0
L9.42188 0
z
" id="DejaVuSans-6c"/>
     <path d="
M28.6094 0
L0.78125 72.9062
L11.0781 72.9062
L34.1875 11.5312
L57.3281 72.9062
L67.5781 72.9062
L39.7969 0
z
" id="DejaVuSans-56"/>
     <path d="
M19.6719 64.7969
L19.6719 8.10938
L31.5938 8.10938
Q46.6875 8.10938 53.6875 14.9375
Q60.6875 21.7812 60.6875 36.5312
Q60.6875 51.1719 53.6875 57.9844
Q46.6875 64.7969 31.5938 64.7969
z

M9.8125 72.9062
L30.0781 72.9062
Q51.2656 72.9062 61.1719 64.0938
Q71.0938 55.2812 71.0938 36.5312
Q71.0938 17.6719 61.125 8.82812
Q51.1719 0 30.0781 0
L9.8125 0
z
" id="DejaVuSans-44"/>
     <path d="
M48.7812 52.5938
L48.7812 44.1875
Q44.9688 46.2969 41.1406 47.3438
Q37.3125 48.3906 33.4062 48.3906
Q24.6562 48.3906 19.8125 42.8438
Q14.9844 37.3125 14.9844 27.2969
Q14.9844 17.2812 19.8125 11.7344
Q24.6562 6.20312 33.4062 6.20312
Q37.3125 6.20312 41.1406 7.25
Q44.9688 8.29688 48.7812 10.4062
L48.7812 2.09375
Q45.0156 0.34375 40.9844 -0.53125
Q36.9688 -1.42188 32.4219 -1.42188
Q20.0625 -1.42188 12.7812 6.34375
Q5.51562 14.1094 5.51562 27.2969
Q5.51562 40.6719 12.8594 48.3281
Q20.2188 56 33.0156 56
Q37.1562 56 41.1094 55.1406
Q45.0625 54.2969 48.7812 52.5938" id="DejaVuSans-63"/>
     <path id="DejaVuSans-20"/>
     <path d="
M54.8906 33.0156
L54.8906 0
L45.9062 0
L45.9062 32.7188
Q45.9062 40.4844 42.875 44.3281
Q39.8438 48.1875 33.7969 48.1875
Q26.5156 48.1875 22.3125 43.5469
Q18.1094 38.9219 18.1094 30.9062
L18.1094 0
L9.07812 0
L9.07812 75.9844
L18.1094 75.9844
L18.1094 46.1875
Q21.3438 51.125 25.7031 53.5625
Q30.0781 56 35.7969 56
Q45.2188 56 50.0469 50.1719
Q54.8906 44.3438 54.8906 33.0156" id="DejaVuSans-68"/>
     <path d="
M9.42188 54.6875
L18.4062 54.6875
L18.4062 0
L9.42188 0
z

M9.42188 75.9844
L18.4062 75.9844
L18.4062 64.5938
L9.42188 64.5938
z
" id="DejaVuSans-69"/>
     <path d="
M8.5 21.5781
L8.5 54.6875
L17.4844 54.6875
L17.4844 21.9219
Q17.4844 14.1562 20.5 10.2656
Q23.5312 6.39062 29.5938 6.39062
Q36.8594 6.39062 41.0781 11.0312
Q45.3125 15.6719 45.3125 23.6875
L45.3125 54.6875
L54.2969 54.6875
L54.2969 0
L45.3125 0
L45.3125 8.40625
Q42.0469 3.42188 37.7188 1
Q33.4062 -1.42188 27.6875 -1.42188
Q18.2656 -1.42188 13.375 4.4375
Q8.5 10.2969 8.5 21.5781
M31.1094 56
z
" id="DejaVuSans-75"/>
     <path d="
M18.3125 70.2188
L18.3125 54.6875
L36.8125 54.6875
L36.8125 47.7031
L18.3125 47.7031
L18.3125 18.0156
Q18.3125 11.3281 20.1406 9.42188
Q21.9688 7.51562 27.5938 7.51562
L36.8125 7.51562
L36.8125 0
L27.5938 0
Q17.1875 0 13.2344 3.875
Q9.28125 7.76562 9.28125 18.0156
L9.28125 47.7031
L2.6875 47.7031
L2.6875 54.6875
L9.28125 54.6875
L9.28125 70.2188
z
" id="DejaVuSans-74"/>
     <path d="
M45.4062 46.3906
L45.4062 75.9844
L54.3906 75.9844
L54.3906 0
L45.4062 0
L45.4062 8.20312
Q42.5781 3.32812 38.25 0.953125
Q33.9375 -1.42188 27.875 -1.42188
Q17.9688 -1.42188 11.7344 6.48438
Q5.51562 14.4062 5.51562 27.2969
Q5.51562 40.1875 11.7344 48.0938
Q17.9688 56 27.875 56
Q33.9375 56 38.25 53.625
Q42.5781 51.2656 45.4062 46.3906
M14.7969 27.2969
Q14.7969 17.3906 18.875 11.75
Q22.9531 6.10938 30.0781 6.10938
Q37.2031 6.10938 41.2969 11.75
Q45.4062 17.3906 45.4062 27.2969
Q45.4062 37.2031 41.2969 42.8438
Q37.2031 48.4844 30.0781 48.4844
Q22.9531 48.4844 18.875 42.8438
Q14.7969 37.2031 14.7969 27.2969" id="DejaVuSans-64"/>
     <path d="
M37.1094 75.9844
L37.1094 68.5
L28.5156 68.5
Q23.6875 68.5 21.7969 66.5469
Q19.9219 64.5938 19.9219 59.5156
L19.9219 54.6875
L34.7188 54.6875
L34.7188 47.7031
L19.9219 47.7031
L19.9219 0
L10.8906 0
L10.8906 47.7031
L2.29688 47.7031
L2.29688 54.6875
L10.8906 54.6875
L10.8906 58.5
Q10.8906 67.625 15.1406 71.7969
Q19.3906 75.9844 28.6094 75.9844
z
" id="DejaVuSans-66"/>
     <path d="
M18.1094 8.20312
L18.1094 -20.7969
L9.07812 -20.7969
L9.07812 54.6875
L18.1094 54.6875
L18.1094 46.3906
Q20.9531 51.2656 25.2656 53.625
Q29.5938 56 35.5938 56
Q45.5625 56 51.7812 48.0938
Q58.0156 40.1875 58.0156 27.2969
Q58.0156 14.4062 51.7812 6.48438
Q45.5625 -1.42188 35.5938 -1.42188
Q29.5938 -1.42188 25.2656 0.953125
Q20.9531 3.32812 18.1094 8.20312
M48.6875 27.2969
Q48.6875 37.2031 44.6094 42.8438
Q40.5312 48.4844 33.4062 48.4844
Q26.2656 48.4844 22.1875 42.8438
Q18.1094 37.2031 18.1094 27.2969
Q18.1094 17.3906 22.1875 11.75
Q26.2656 6.10938 33.4062 6.10938
Q40.5312 6.10938 44.6094 11.75
Q48.6875 17.3906 48.6875 27.2969" id="DejaVuSans-70"/>
    </defs>
    <g transform="translate(160.63425 39.1)scale(0.144 -0.144)">
     <use xlink:href="#DejaVuSans-53"/>
     <use x="63.4765625" xlink:href="#DejaVuSans-70"/>
     <use x="126.953125" xlink:href="#DejaVuSans-65"/>
     <use x="188.4765625" xlink:href="#DejaVuSans-65"/>
     <use x="250.0" xlink:href="#DejaVuSans-64"/>
     <use x="313.4765625" xlink:href="#DejaVuSans-75"/>
     <use x="376.85546875" xlink:href="#DejaVuSans-70"/>
     <use x="440.33203125" xlink:href="#DejaVuSans-20"/>
     <use x="472.119140625" xlink:href="#DejaVuSans-31"/>
     <use x="535.7421875" xlink:href="#DejaVuSans-3a"/>
     <use x="569.43359375" xlink:href="#DejaVuSans-6e"/>
     <use x="632.8125" xlink:href="#DejaVuSans-20"/>
     <use x="664.599609375" xlink:href="#DejaVuSans-56"/>
     <use x="725.2578125" xlink:href="#DejaVuSans-65"/>
     <use x="786.78125" xlink:href="#DejaVuSans-72"/>
     <use x="827.89453125" xlink:href="#DejaVuSans-74"/>
     <use x="867.103515625" xlink:href="#DejaVuSans-65"/>
     <use x="928.626953125" xlink:href="#DejaVuSans-69"/>
     <use x="956.41015625" xlink:href="#DejaVuSans-6c"/>
     <use x="984.193359375" xlink:href="#DejaVuSans-75"/>
     <use x="1047.57226562" xlink:href="#DejaVuSans-6e"/>
     <use x="1110.95117188" xlink:href="#DejaVuSans-67"/>
     <use x="1174.42773438" xlink:href="#DejaVuSans-20"/>
     <use x="1206.21484375" xlink:href="#DejaVuSans-44"/>
     <use x="1283.21679688" xlink:href="#DejaVuSans-69"/>
     <use x="1311.0" xlink:href="#DejaVuSans-63"/>
     <use x="1365.98046875" xlink:href="#DejaVuSans-68"/>
     <use x="1429.359375" xlink:href="#DejaVuSans-74"/>
     <use x="1468.56835938" xlink:href="#DejaVuSans-65"/>
     <use x="1530.09179688" xlink:href="#DejaVuSans-66"/>
     <use x="1565.296875" xlink:href="#DejaVuSans-75"/>
     <use x="1628.67578125" xlink:href="#DejaVuSans-6e"/>
     <use x="1692.0546875" xlink:href="#DejaVuSans-6b"/>
     <use x="1749.96484375" xlink:href="#DejaVuSans-74"/>
     <use x="1789.17382812" xlink:href="#DejaVuSans-69"/>
     <use x="1816.95703125" xlink:href="#DejaVuSans-6f"/>
     <use x="1878.13867188" xlink:href="#DejaVuSans-6e"/>
    </g>
   </g>
   <g id="legend_1">
    <g id="patch_7">
     <path d="
M411.883 245.848
L519.3 245.848
L519.3 51.3
L411.883 51.3
z
" style="fill:#ffffff;stroke:#000000;stroke-linejoin:miter;"/>
    </g>
    <g id="line2d_55">
     <path d="
M421.963 62.9617
L442.123 62.9617" style="fill:none;stroke:#0000ff;stroke-linecap:square;"/>
    </g>
    <g id="line2d_56"/>
    <g id="text_19">
     <!-- n=1000 -->
     <defs>
      <path d="
M10.5938 45.4062
L73.1875 45.4062
L73.1875 37.2031
L10.5938 37.2031
z

M10.5938 25.4844
L73.1875 25.4844
L73.1875 17.1875
L10.5938 17.1875
z
" id="DejaVuSans-3d"/>
     </defs>
     <g transform="translate(457.96275 68.00175)scale(0.144 -0.144)">
      <use xlink:href="#DejaVuSans-6e"/>
      <use x="63.37890625" xlink:href="#DejaVuSans-3d"/>
      <use x="147.16796875" xlink:href="#DejaVuSans-31"/>
      <use x="210.791015625" xlink:href="#DejaVuSans-30"/>
      <use x="274.4140625" xlink:href="#DejaVuSans-30"/>
      <use x="338.037109375" xlink:href="#DejaVuSans-30"/>
     </g>
    </g>
    <g id="line2d_57">
     <path d="
M421.963 84.0982
L442.123 84.0982" style="fill:none;stroke:#008000;stroke-linecap:square;"/>
    </g>
    <g id="line2d_58"/>
    <g id="text_20">
     <!-- n=1500 -->
     <g transform="translate(457.96275 89.13825)scale(0.144 -0.144)">
      <use xlink:href="#DejaVuSans-6e"/>
      <use x="63.37890625" xlink:href="#DejaVuSans-3d"/>
      <use x="147.16796875" xlink:href="#DejaVuSans-31"/>
      <use x="210.791015625" xlink:href="#DejaVuSans-35"/>
      <use x="274.4140625" xlink:href="#DejaVuSans-30"/>
      <use x="338.037109375" xlink:href="#DejaVuSans-30"/>
     </g>
    </g>
    <g id="line2d_59">
     <path d="
M421.963 105.235
L442.123 105.235" style="fill:none;stroke:#ff0000;stroke-linecap:square;"/>
    </g>
    <g id="line2d_60"/>
    <g id="text_21">
     <!-- n=2000 -->
     <g transform="translate(457.96275 110.27475)scale(0.144 -0.144)">
      <use xlink:href="#DejaVuSans-6e"/>
      <use x="63.37890625" xlink:href="#DejaVuSans-3d"/>
      <use x="147.16796875" xlink:href="#DejaVuSans-32"/>
      <use x="210.791015625" xlink:href="#DejaVuSans-30"/>
      <use x="274.4140625" xlink:href="#DejaVuSans-30"/>
      <use x="338.037109375" xlink:href="#DejaVuSans-30"/>
     </g>
    </g>
    <g id="line2d_61">
     <path d="
M421.963 126.371
L442.123 126.371" style="fill:none;stroke:#00bfbf;stroke-linecap:square;"/>
    </g>
    <g id="line2d_62"/>
    <g id="text_22">
     <!-- n=2500 -->
     <g transform="translate(457.96275 131.41125)scale(0.144 -0.144)">
      <use xlink:href="#DejaVuSans-6e"/>
      <use x="63.37890625" xlink:href="#DejaVuSans-3d"/>
      <use x="147.16796875" xlink:href="#DejaVuSans-32"/>
      <use x="210.791015625" xlink:href="#DejaVuSans-35"/>
      <use x="274.4140625" xlink:href="#DejaVuSans-30"/>
      <use x="338.037109375" xlink:href="#DejaVuSans-30"/>
     </g>
    </g>
    <g id="line2d_63">
     <path d="
M421.963 147.508
L442.123 147.508" style="fill:none;stroke:#bf00bf;stroke-linecap:square;"/>
    </g>
    <g id="line2d_64"/>
    <g id="text_23">
     <!-- n=3000 -->
     <g transform="translate(457.96275 152.54775)scale(0.144 -0.144)">
      <use xlink:href="#DejaVuSans-6e"/>
      <use x="63.37890625" xlink:href="#DejaVuSans-3d"/>
      <use x="147.16796875" xlink:href="#DejaVuSans-33"/>
      <use x="210.791015625" xlink:href="#DejaVuSans-30"/>
      <use x="274.4140625" xlink:href="#DejaVuSans-30"/>
      <use x="338.037109375" xlink:href="#DejaVuSans-30"/>
     </g>
    </g>
    <g id="line2d_65">
     <path d="
M421.963 168.644
L442.123 168.644" style="fill:none;stroke:#bfbf00;stroke-linecap:square;"/>
    </g>
    <g id="line2d_66"/>
    <g id="text_24">
     <!-- n=3500 -->
     <g transform="translate(457.96275 173.68425)scale(0.144 -0.144)">
      <use xlink:href="#DejaVuSans-6e"/>
      <use x="63.37890625" xlink:href="#DejaVuSans-3d"/>
      <use x="147.16796875" xlink:href="#DejaVuSans-33"/>
      <use x="210.791015625" xlink:href="#DejaVuSans-35"/>
      <use x="274.4140625" xlink:href="#DejaVuSans-30"/>
      <use x="338.037109375" xlink:href="#DejaVuSans-30"/>
     </g>
    </g>
    <g id="line2d_67">
     <path d="
M421.963 189.781
L442.123 189.781" style="fill:none;stroke:#000000;stroke-linecap:square;"/>
    </g>
    <g id="line2d_68"/>
    <g id="text_25">
     <!-- n=4000 -->
     <g transform="translate(457.96275 194.82075)scale(0.144 -0.144)">
      <use xlink:href="#DejaVuSans-6e"/>
      <use x="63.37890625" xlink:href="#DejaVuSans-3d"/>
      <use x="147.16796875" xlink:href="#DejaVuSans-34"/>
      <use x="210.791015625" xlink:href="#DejaVuSans-30"/>
      <use x="274.4140625" xlink:href="#DejaVuSans-30"/>
      <use x="338.037109375" xlink:href="#DejaVuSans-30"/>
     </g>
    </g>
    <g id="line2d_69">
     <path d="
M421.963 210.917
L442.123 210.917" style="fill:none;stroke:#0000ff;stroke-linecap:square;"/>
    </g>
    <g id="line2d_70"/>
    <g id="text_26">
     <!-- n=4500 -->
     <g transform="translate(457.96275 215.95725)scale(0.144 -0.144)">
      <use xlink:href="#DejaVuSans-6e"/>
      <use x="63.37890625" xlink:href="#DejaVuSans-3d"/>
      <use x="147.16796875" xlink:href="#DejaVuSans-34"/>
      <use x="210.791015625" xlink:href="#DejaVuSans-35"/>
      <use x="274.4140625" xlink:href="#DejaVuSans-30"/>
      <use x="338.037109375" xlink:href="#DejaVuSans-30"/>
     </g>
    </g>
    <g id="line2d_71">
     <path d="
M421.963 232.054
L442.123 232.054" style="fill:none;stroke:#008000;stroke-linecap:square;"/>
    </g>
    <g id="line2d_72"/>
    <g id="text_27">
     <!-- n=5000 -->
     <g transform="translate(457.96275 237.09375)scale(0.144 -0.144)">
      <use xlink:href="#DejaVuSans-6e"/>
      <use x="63.37890625" xlink:href="#DejaVuSans-3d"/>
      <use x="147.16796875" xlink:href="#DejaVuSans-35"/>
      <use x="210.791015625" xlink:href="#DejaVuSans-30"/>
      <use x="274.4140625" xlink:href="#DejaVuSans-30"/>
      <use x="338.037109375" xlink:href="#DejaVuSans-30"/>
     </g>
    </g>
   </g>
  </g>
 </g>
 <defs>
  <clipPath id="p5873ec822d">
   <rect height="352.8" width="453.375" x="73.125" y="44.1"/>
  </clipPath>
 </defs>
</svg>
