<?xml version="1.0" encoding="utf-8" standalone="no"?>
<!DOCTYPE svg PUBLIC "-//W3C//DTD SVG 1.1//EN"
  "http://www.w3.org/Graphics/SVG/1.1/DTD/svg11.dtd">
<!-- Created with matplotlib (http://matplotlib.org/) -->
<svg height="441pt" version="1.1" viewBox="0 0 585 441" width="585pt" xmlns="http://www.w3.org/2000/svg" xmlns:xlink="http://www.w3.org/1999/xlink">
 <defs>
  <style type="text/css">
*{stroke-linecap:butt;stroke-linejoin:round;}
  </style>
 </defs>
 <g id="figure_1">
  <g id="patch_1">
   <path d="
M0 441
L585 441
L585 0
L0 0
z
" style="fill:#ffffff;"/>
  </g>
  <g id="axes_1">
   <g id="patch_2">
    <path d="
M73.125 396.9
L526.5 396.9
L526.5 44.1
L73.125 44.1
z
" style="fill:#ffffff;"/>
   </g>
   <g id="line2d_1">
    <path clip-path="url(#p5873ec822d)" d="
M73.125 370.572
L137.893 377.777
L145.824 372.654
L153.754 367.708
L161.685 362.943
L169.616 358.365
L177.547 353.98
L185.477 349.794
L193.408 345.812
L201.339 342.039
L209.27 338.481
L217.2 335.134
L225.131 331.991
L233.062 329.047
L240.993 326.294
L248.923 323.727
L256.854 321.339
L264.785 319.124
L272.716 317.074
L280.647 315.165
L288.577 313.365
L296.508 311.642
L304.439 309.96
L312.37 308.289
L320.3 306.593
L328.231 304.841
L336.162 303.001
L344.093 301.068
L352.023 299.071
L359.954 297.035
L367.885 294.988
L375.816 292.958
L383.746 290.971
L391.677 289.056
L399.608 287.238
L407.539 285.534
L415.469 283.942
L423.4 282.455
L431.331 281.071
L439.262 279.784
L447.192 278.591
L455.123 277.486
L463.054 276.467
L470.985 275.524
L478.915 274.641
L486.846 273.802
L494.777 272.987
L502.708 272.181
L510.638 271.364
L518.569 270.519
L526.5 269.63" style="fill:none;stroke:#0000ff;stroke-dasharray:3.000000,5.000000,1.000000,5.000000;stroke-dashoffset:0.0;"/>
   </g>
   <g id="line2d_2">
    <path clip-path="url(#p5873ec822d)" d="
M73.125 370.572
L137.893 377.503
L145.824 370.117
L153.754 363.128
L161.685 356.527
L169.616 350.305
L177.547 344.452
L185.477 338.96
L193.408 333.819
L201.339 329.021
L209.27 324.554
L217.2 320.401
L225.131 316.537
L233.062 312.94
L240.993 309.587
L248.923 306.456
L256.854 303.523
L264.785 300.766
L272.716 298.161
L280.647 295.671
L288.577 293.254
L296.508 290.865
L304.439 288.461
L312.37 285.997
L320.3 283.431
L328.231 280.719
L336.162 277.819
L344.093 274.735
L352.023 271.522
L359.954 268.234
L367.885 264.925
L375.816 261.65
L383.746 258.464
L391.677 255.422
L399.608 252.578
L407.539 249.963
L415.469 247.571
L423.4 245.394
L431.331 243.421
L439.262 241.646
L447.192 240.059
L455.123 238.65
L463.054 237.412
L470.985 236.329
L478.915 235.37
L486.846 234.502
L494.777 233.692
L502.708 232.906
L510.638 232.111
L518.569 231.274
L526.5 230.362" style="fill:none;stroke:#008000;stroke-dasharray:6.000000,6.000000;stroke-dashoffset:0.0;"/>
   </g>
   <g id="line2d_3">
    <path clip-path="url(#p5873ec822d)" d="
M73.125 370.572
L137.893 371.83
L145.824 361.997
L153.754 352.977
L161.685 344.712
L169.616 337.147
L177.547 330.225
L185.477 323.889
L193.408 318.082
L201.339 312.749
L209.27 307.833
L217.2 303.28
L225.131 299.041
L233.062 295.062
L240.993 291.293
L248.923 287.682
L256.854 284.178
L264.785 280.728
L272.716 277.284
L280.647 273.82
L288.577 270.326
L296.508 266.791
L304.439 263.206
L312.37 259.56
L320.3 255.843
L328.231 252.045
L336.162 248.158
L344.093 244.201
L352.023 240.224
L359.954 236.277
L367.885 232.409
L375.816 228.671
L383.746 225.114
L391.677 221.787
L399.608 218.741
L407.539 215.988
L415.469 213.488
L423.4 211.194
L431.331 209.061
L439.262 207.041
L447.192 205.088
L455.123 203.158
L463.054 201.202
L470.985 199.167
L478.915 196.981
L486.846 194.567
L494.777 191.85
L502.708 188.755
L510.638 185.205
L518.569 181.125
L526.5 176.44" style="fill:none;stroke:#ff0000;stroke-linecap:square;"/>
   </g>
   <g id="line2d_4">
    <path clip-path="url(#p5873ec822d)" d="
M73.125 370.572
L137.893 373.416
L145.824 366.858
L153.754 360.171
L161.685 353.407
L169.616 346.619
L177.547 339.859
L185.477 333.179
L193.408 326.633
L201.339 320.271
L209.27 314.143
L217.2 308.277
L225.131 302.691
L233.062 297.405
L240.993 292.436
L248.923 287.803
L256.854 283.526
L264.785 279.622
L272.716 276.106
L280.647 272.937
L288.577 270.039
L296.508 267.336
L304.439 264.75
L312.37 262.206
L320.3 259.627
L328.231 256.935
L336.162 254.058
L344.093 250.974
L352.023 247.714
L359.954 244.313
L367.885 240.806
L375.816 237.226
L383.746 233.607
L391.677 229.984
L399.608 226.391
L407.539 222.857
L415.469 219.403
L423.4 216.05
L431.331 212.818
L439.262 209.727
L447.192 206.799
L455.123 204.054
L463.054 201.512
L470.985 199.19
L478.915 197.098
L486.846 195.241
L494.777 193.628
L502.708 192.266
L510.638 191.161
L518.569 190.322
L526.5 189.755" style="fill:none;stroke:#00bfbf;stroke-linecap:square;"/>
   </g>
   <g id="line2d_5">
    <path clip-path="url(#p5873ec822d)" d="
M73.125 370.572
L137.893 372.065
L145.824 362.824
L153.754 354.275
L161.685 346.359
L169.616 339.017
L177.547 332.192
L185.477 325.825
L193.408 319.859
L201.339 314.234
L209.27 308.895
L217.2 303.802
L225.131 298.92
L233.062 294.215
L240.993 289.653
L248.923 285.2
L256.854 280.82
L264.785 276.481
L272.716 272.151
L280.647 267.835
L288.577 263.565
L296.508 259.371
L304.439 255.282
L312.37 251.329
L320.3 247.543
L328.231 243.954
L336.162 240.591
L344.093 237.446
L352.023 234.475
L359.954 231.631
L367.885 228.869
L375.816 226.141
L383.746 223.404
L391.677 220.609
L399.608 217.712
L407.539 214.691
L415.469 211.563
L423.4 208.347
L431.331 205.062
L439.262 201.73
L447.192 198.368
L455.123 194.997
L463.054 191.636
L470.985 188.312
L478.915 185.065
L486.846 181.941
L494.777 178.981
L502.708 176.231
L510.638 173.734
L518.569 171.534
L526.5 169.675" style="fill:none;stroke:#bf00bf;stroke-linecap:square;"/>
   </g>
   <g id="line2d_6">
    <path clip-path="url(#p5873ec822d)" d="
M73.125 370.572
L137.893 372.966
L145.824 361.48
L153.754 351.346
L161.685 342.422
L169.616 334.569
L177.547 327.646
L185.477 321.512
L193.408 316.027
L201.339 311.052
L209.27 306.451
L217.2 302.132
L225.131 298.02
L233.062 294.039
L240.993 290.115
L248.923 286.171
L256.854 282.133
L264.785 277.924
L272.716 273.479
L280.647 268.832
L288.577 264.083
L296.508 259.333
L304.439 254.683
L312.37 250.235
L320.3 246.089
L328.231 242.347
L336.162 239.105
L344.093 236.359
L352.023 234.002
L359.954 231.924
L367.885 230.014
L375.816 228.161
L383.746 226.254
L391.677 224.183
L399.608 221.839
L407.539 219.164
L415.469 216.189
L423.4 212.947
L431.331 209.476
L439.262 205.809
L447.192 201.984
L455.123 198.035
L463.054 193.998
L470.985 189.924
L478.915 185.9
L486.846 182.02
L494.777 178.375
L502.708 175.059
L510.638 172.166
L518.569 169.788
L526.5 168.018" style="fill:none;stroke:#bfbf00;stroke-linecap:square;"/>
   </g>
   <g id="line2d_7">
    <path clip-path="url(#p5873ec822d)" d="
M73.125 370.572
L137.893 371.651
L145.824 362.468
L153.754 353.964
L161.685 346.078
L169.616 338.751
L177.547 331.922
L185.477 325.531
L193.408 319.518
L201.339 313.822
L209.27 308.387
L217.2 303.176
L225.131 298.161
L233.062 293.313
L240.993 288.604
L248.923 284.006
L256.854 279.491
L264.785 275.03
L272.716 270.599
L280.647 266.217
L288.577 261.933
L296.508 257.796
L304.439 253.855
L312.37 250.157
L320.3 246.752
L328.231 243.689
L336.162 241.014
L344.093 238.708
L352.023 236.691
L359.954 234.878
L367.885 233.186
L375.816 231.53
L383.746 229.826
L391.677 227.989
L399.608 225.938
L407.539 223.624
L415.469 221.062
L423.4 218.268
L431.331 215.259
L439.262 212.053
L447.192 208.666
L455.123 205.117
L463.054 201.423
L470.985 197.61
L478.915 193.73
L486.846 189.84
L494.777 185.993
L502.708 182.246
L510.638 178.653
L518.569 175.271
L526.5 172.154" style="fill:none;stroke:#000000;stroke-linecap:square;"/>
   </g>
   <g id="line2d_8">
    <path clip-path="url(#p5873ec822d)" d="
M73.125 370.572
L137.893 372.2
L145.824 365.487
L153.754 358.713
L161.685 351.905
L169.616 345.091
L177.547 338.3
L185.477 331.558
L193.408 324.893
L201.339 318.334
L209.27 311.907
L217.2 305.634
L225.131 299.533
L233.062 293.625
L240.993 287.927
L248.923 282.46
L256.854 277.242
L264.785 272.292
L272.716 267.628
L280.647 263.247
L288.577 259.133
L296.508 255.271
L304.439 251.645
L312.37 248.238
L320.3 245.035
L328.231 242.02
L336.162 239.178
L344.093 236.487
L352.023 233.927
L359.954 231.474
L367.885 229.105
L375.816 226.797
L383.746 224.528
L391.677 222.275
L399.608 220.015
L407.539 217.729
L415.469 215.404
L423.4 213.03
L431.331 210.594
L439.262 208.084
L447.192 205.488
L455.123 202.795
L463.054 199.993
L470.985 197.07
L478.915 194.017
L486.846 190.826
L494.777 187.487
L502.708 183.99
L510.638 180.328
L518.569 176.491
L526.5 172.47" style="fill:none;stroke:#0000ff;stroke-linecap:square;"/>
   </g>
   <g id="line2d_9">
    <path clip-path="url(#p5873ec822d)" d="
M73.125 370.572
L137.893 373.589
L145.824 362.924
L153.754 353.21
L161.685 344.355
L169.616 336.267
L177.547 328.853
L185.477 322.023
L193.408 315.683
L201.339 309.742
L209.27 304.113
L217.2 298.742
L225.131 293.588
L233.062 288.612
L240.993 283.772
L248.923 279.029
L256.854 274.341
L264.785 269.67
L272.716 264.98
L280.647 260.303
L288.577 255.717
L296.508 251.296
L304.439 247.118
L312.37 243.26
L320.3 239.799
L328.231 236.81
L336.162 234.365
L344.093 232.429
L352.023 230.857
L359.954 229.499
L367.885 228.207
L375.816 226.829
L383.746 225.219
L391.677 223.225
L399.608 220.7
L407.539 217.582
L415.469 213.944
L423.4 209.869
L431.331 205.441
L439.262 200.744
L447.192 195.861
L455.123 190.876
L463.054 185.872
L470.985 180.955
L478.915 176.281
L486.846 172.015
L494.777 168.32
L502.708 165.362
L510.638 163.304
L518.569 162.31
L526.5 162.546" style="fill:none;stroke:#008000;stroke-linecap:square;"/>
   </g>
   <g id="patch_3">
    <path d="
M73.125 44.1
L526.5 44.1" style="fill:none;stroke:#000000;stroke-linecap:square;stroke-linejoin:miter;"/>
   </g>
   <g id="patch_4">
    <path d="
M526.5 396.9
L526.5 44.1" style="fill:none;stroke:#000000;stroke-linecap:square;stroke-linejoin:miter;"/>
   </g>
   <g id="patch_5">
    <path d="
M73.125 396.9
L526.5 396.9" style="fill:none;stroke:#000000;stroke-linecap:square;stroke-linejoin:miter;"/>
   </g>
   <g id="patch_6">
    <path d="
M73.125 396.9
L73.125 44.1" style="fill:none;stroke:#000000;stroke-linecap:square;stroke-linejoin:miter;"/>
   </g>
   <g id="matplotlib.axis_1">
    <g id="xtick_1">
     <g id="line2d_10">
      <path clip-path="url(#p5873ec822d)" d="
M73.125 396.9
L73.125 44.1" style="fill:none;stroke:#000000;stroke-dasharray:1.000000,3.000000;stroke-dashoffset:0.0;stroke-width:0.5;"/>
     </g>
     <g id="line2d_11">
      <defs>
       <path d="
M0 0
L0 -4" id="m93b0483c22" style="stroke:#000000;stroke-width:0.5;"/>
      </defs>
      <g>
       <use style="stroke:#000000;stroke-width:0.5;" x="73.125" xlink:href="#m93b0483c22" y="396.9"/>
      </g>
     </g>
     <g id="line2d_12">
      <defs>
       <path d="
M0 0
L0 4" id="m741efc42ff" style="stroke:#000000;stroke-width:0.5;"/>
      </defs>
      <g>
       <use style="stroke:#000000;stroke-width:0.5;" x="73.125" xlink:href="#m741efc42ff" y="44.1"/>
      </g>
     </g>
     <g id="text_1">
      <!-- 0 -->
      <defs>
       <path d="
M31.7812 66.4062
Q24.1719 66.4062 20.3281 58.9062
Q16.5 51.4219 16.5 36.375
Q16.5 21.3906 20.3281 13.8906
Q24.1719 6.39062 31.7812 6.39062
Q39.4531 6.39062 43.2812 13.8906
Q47.125 21.3906 47.125 36.375
Q47.125 51.4219 43.2812 58.9062
Q39.4531 66.4062 31.7812 66.4062
M31.7812 74.2188
Q44.0469 74.2188 50.5156 64.5156
Q56.9844 54.8281 56.9844 36.375
Q56.9844 17.9688 50.5156 8.26562
Q44.0469 -1.42188 31.7812 -1.42188
Q19.5312 -1.42188 13.0625 8.26562
Q6.59375 17.9688 6.59375 36.375
Q6.59375 54.8281 13.0625 64.5156
Q19.5312 74.2188 31.7812 74.2188" id="DejaVuSans-30"/>
      </defs>
      <g transform="translate(70.1015625 410.018125)scale(0.12 -0.12)">
       <use xlink:href="#DejaVuSans-30"/>
      </g>
     </g>
    </g>
    <g id="xtick_2">
     <g id="line2d_13">
      <path clip-path="url(#p5873ec822d)" d="
M137.893 396.9
L137.893 44.1" style="fill:none;stroke:#000000;stroke-dasharray:1.000000,3.000000;stroke-dashoffset:0.0;stroke-width:0.5;"/>
     </g>
     <g id="line2d_14">
      <g>
       <use style="stroke:#000000;stroke-width:0.5;" x="137.892857143" xlink:href="#m93b0483c22" y="396.9"/>
      </g>
     </g>
     <g id="line2d_15">
      <g>
       <use style="stroke:#000000;stroke-width:0.5;" x="137.892857143" xlink:href="#m741efc42ff" y="44.1"/>
      </g>
     </g>
     <g id="text_2">
      <!-- 1 -->
      <defs>
       <path d="
M12.4062 8.29688
L28.5156 8.29688
L28.5156 63.9219
L10.9844 60.4062
L10.9844 69.3906
L28.4219 72.9062
L38.2812 72.9062
L38.2812 8.29688
L54.3906 8.29688
L54.3906 0
L12.4062 0
z
" id="DejaVuSans-31"/>
      </defs>
      <g transform="translate(135.288482143 410.018125)scale(0.12 -0.12)">
       <use xlink:href="#DejaVuSans-31"/>
      </g>
     </g>
    </g>
    <g id="xtick_3">
     <g id="line2d_16">
      <path clip-path="url(#p5873ec822d)" d="
M202.661 396.9
L202.661 44.1" style="fill:none;stroke:#000000;stroke-dasharray:1.000000,3.000000;stroke-dashoffset:0.0;stroke-width:0.5;"/>
     </g>
     <g id="line2d_17">
      <g>
       <use style="stroke:#000000;stroke-width:0.5;" x="202.660714286" xlink:href="#m93b0483c22" y="396.9"/>
      </g>
     </g>
     <g id="line2d_18">
      <g>
       <use style="stroke:#000000;stroke-width:0.5;" x="202.660714286" xlink:href="#m741efc42ff" y="44.1"/>
      </g>
     </g>
     <g id="text_3">
      <!-- 2 -->
      <defs>
       <path d="
M19.1875 8.29688
L53.6094 8.29688
L53.6094 0
L7.32812 0
L7.32812 8.29688
Q12.9375 14.1094 22.625 23.8906
Q32.3281 33.6875 34.8125 36.5312
Q39.5469 41.8438 41.4219 45.5312
Q43.3125 49.2188 43.3125 52.7812
Q43.3125 58.5938 39.2344 62.25
Q35.1562 65.9219 28.6094 65.9219
Q23.9688 65.9219 18.8125 64.3125
Q13.6719 62.7031 7.8125 59.4219
L7.8125 69.3906
Q13.7656 71.7812 18.9375 73
Q24.125 74.2188 28.4219 74.2188
Q39.75 74.2188 46.4844 68.5469
Q53.2188 62.8906 53.2188 53.4219
Q53.2188 48.9219 51.5312 44.8906
Q49.8594 40.875 45.4062 35.4062
Q44.1875 33.9844 37.6406 27.2188
Q31.1094 20.4531 19.1875 8.29688" id="DejaVuSans-32"/>
      </defs>
      <g transform="translate(199.883839286 410.018125)scale(0.12 -0.12)">
       <use xlink:href="#DejaVuSans-32"/>
      </g>
     </g>
    </g>
    <g id="xtick_4">
     <g id="line2d_19">
      <path clip-path="url(#p5873ec822d)" d="
M267.429 396.9
L267.429 44.1" style="fill:none;stroke:#000000;stroke-dasharray:1.000000,3.000000;stroke-dashoffset:0.0;stroke-width:0.5;"/>
     </g>
     <g id="line2d_20">
      <g>
       <use style="stroke:#000000;stroke-width:0.5;" x="267.428571429" xlink:href="#m93b0483c22" y="396.9"/>
      </g>
     </g>
     <g id="line2d_21">
      <g>
       <use style="stroke:#000000;stroke-width:0.5;" x="267.428571429" xlink:href="#m741efc42ff" y="44.1"/>
      </g>
     </g>
     <g id="text_4">
      <!-- 3 -->
      <defs>
       <path d="
M40.5781 39.3125
Q47.6562 37.7969 51.625 33
Q55.6094 28.2188 55.6094 21.1875
Q55.6094 10.4062 48.1875 4.48438
Q40.7656 -1.42188 27.0938 -1.42188
Q22.5156 -1.42188 17.6562 -0.515625
Q12.7969 0.390625 7.625 2.20312
L7.625 11.7188
Q11.7188 9.32812 16.5938 8.10938
Q21.4844 6.89062 26.8125 6.89062
Q36.0781 6.89062 40.9375 10.5469
Q45.7969 14.2031 45.7969 21.1875
Q45.7969 27.6406 41.2812 31.2656
Q36.7656 34.9062 28.7188 34.9062
L20.2188 34.9062
L20.2188 43.0156
L29.1094 43.0156
Q36.375 43.0156 40.2344 45.9219
Q44.0938 48.8281 44.0938 54.2969
Q44.0938 59.9062 40.1094 62.9062
Q36.1406 65.9219 28.7188 65.9219
Q24.6562 65.9219 20.0156 65.0312
Q15.375 64.1562 9.8125 62.3125
L9.8125 71.0938
Q15.4375 72.6562 20.3438 73.4375
Q25.25 74.2188 29.5938 74.2188
Q40.8281 74.2188 47.3594 69.1094
Q53.9062 64.0156 53.9062 55.3281
Q53.9062 49.2656 50.4375 45.0938
Q46.9688 40.9219 40.5781 39.3125" id="DejaVuSans-33"/>
      </defs>
      <g transform="translate(264.549508929 410.018125)scale(0.12 -0.12)">
       <use xlink:href="#DejaVuSans-33"/>
      </g>
     </g>
    </g>
    <g id="xtick_5">
     <g id="line2d_22">
      <path clip-path="url(#p5873ec822d)" d="
M332.196 396.9
L332.196 44.1" style="fill:none;stroke:#000000;stroke-dasharray:1.000000,3.000000;stroke-dashoffset:0.0;stroke-width:0.5;"/>
     </g>
     <g id="line2d_23">
      <g>
       <use style="stroke:#000000;stroke-width:0.5;" x="332.196428571" xlink:href="#m93b0483c22" y="396.9"/>
      </g>
     </g>
     <g id="line2d_24">
      <g>
       <use style="stroke:#000000;stroke-width:0.5;" x="332.196428571" xlink:href="#m741efc42ff" y="44.1"/>
      </g>
     </g>
     <g id="text_5">
      <!-- 4 -->
      <defs>
       <path d="
M37.7969 64.3125
L12.8906 25.3906
L37.7969 25.3906
z

M35.2031 72.9062
L47.6094 72.9062
L47.6094 25.3906
L58.0156 25.3906
L58.0156 17.1875
L47.6094 17.1875
L47.6094 0
L37.7969 0
L37.7969 17.1875
L4.89062 17.1875
L4.89062 26.7031
z
" id="DejaVuSans-34"/>
      </defs>
      <g transform="translate(329.008928571 410.018125)scale(0.12 -0.12)">
       <use xlink:href="#DejaVuSans-34"/>
      </g>
     </g>
    </g>
    <g id="xtick_6">
     <g id="line2d_25">
      <path clip-path="url(#p5873ec822d)" d="
M396.964 396.9
L396.964 44.1" style="fill:none;stroke:#000000;stroke-dasharray:1.000000,3.000000;stroke-dashoffset:0.0;stroke-width:0.5;"/>
     </g>
     <g id="line2d_26">
      <g>
       <use style="stroke:#000000;stroke-width:0.5;" x="396.964285714" xlink:href="#m93b0483c22" y="396.9"/>
      </g>
     </g>
     <g id="line2d_27">
      <g>
       <use style="stroke:#000000;stroke-width:0.5;" x="396.964285714" xlink:href="#m741efc42ff" y="44.1"/>
      </g>
     </g>
     <g id="text_6">
      <!-- 5 -->
      <defs>
       <path d="
M10.7969 72.9062
L49.5156 72.9062
L49.5156 64.5938
L19.8281 64.5938
L19.8281 46.7344
Q21.9688 47.4688 24.1094 47.8281
Q26.2656 48.1875 28.4219 48.1875
Q40.625 48.1875 47.75 41.5
Q54.8906 34.8125 54.8906 23.3906
Q54.8906 11.625 47.5625 5.09375
Q40.2344 -1.42188 26.9062 -1.42188
Q22.3125 -1.42188 17.5469 -0.640625
Q12.7969 0.140625 7.71875 1.70312
L7.71875 11.625
Q12.1094 9.23438 16.7969 8.0625
Q21.4844 6.89062 26.7031 6.89062
Q35.1562 6.89062 40.0781 11.3281
Q45.0156 15.7656 45.0156 23.3906
Q45.0156 31 40.0781 35.4375
Q35.1562 39.8906 26.7031 39.8906
Q22.75 39.8906 18.8125 39.0156
Q14.8906 38.1406 10.7969 36.2812
z
" id="DejaVuSans-35"/>
      </defs>
      <g transform="translate(394.133973214 410.018125)scale(0.12 -0.12)">
       <use xlink:href="#DejaVuSans-35"/>
      </g>
     </g>
    </g>
    <g id="xtick_7">
     <g id="line2d_28">
      <path clip-path="url(#p5873ec822d)" d="
M461.732 396.9
L461.732 44.1" style="fill:none;stroke:#000000;stroke-dasharray:1.000000,3.000000;stroke-dashoffset:0.0;stroke-width:0.5;"/>
     </g>
     <g id="line2d_29">
      <g>
       <use style="stroke:#000000;stroke-width:0.5;" x="461.732142857" xlink:href="#m93b0483c22" y="396.9"/>
      </g>
     </g>
     <g id="line2d_30">
      <g>
       <use style="stroke:#000000;stroke-width:0.5;" x="461.732142857" xlink:href="#m741efc42ff" y="44.1"/>
      </g>
     </g>
     <g id="text_7">
      <!-- 6 -->
      <defs>
       <path d="
M33.0156 40.375
Q26.375 40.375 22.4844 35.8281
Q18.6094 31.2969 18.6094 23.3906
Q18.6094 15.5312 22.4844 10.9531
Q26.375 6.39062 33.0156 6.39062
Q39.6562 6.39062 43.5312 10.9531
Q47.4062 15.5312 47.4062 23.3906
Q47.4062 31.2969 43.5312 35.8281
Q39.6562 40.375 33.0156 40.375
M52.5938 71.2969
L52.5938 62.3125
Q48.875 64.0625 45.0938 64.9844
Q41.3125 65.9219 37.5938 65.9219
Q27.8281 65.9219 22.6719 59.3281
Q17.5312 52.7344 16.7969 39.4062
Q19.6719 43.6562 24.0156 45.9219
Q28.375 48.1875 33.5938 48.1875
Q44.5781 48.1875 50.9531 41.5156
Q57.3281 34.8594 57.3281 23.3906
Q57.3281 12.1562 50.6875 5.35938
Q44.0469 -1.42188 33.0156 -1.42188
Q20.3594 -1.42188 13.6719 8.26562
Q6.98438 17.9688 6.98438 36.375
Q6.98438 53.6562 15.1875 63.9375
Q23.3906 74.2188 37.2031 74.2188
Q40.9219 74.2188 44.7031 73.4844
Q48.4844 72.75 52.5938 71.2969" id="DejaVuSans-36"/>
      </defs>
      <g transform="translate(458.711517857 410.018125)scale(0.12 -0.12)">
       <use xlink:href="#DejaVuSans-36"/>
      </g>
     </g>
    </g>
    <g id="xtick_8">
     <g id="line2d_31">
      <path clip-path="url(#p5873ec822d)" d="
M526.5 396.9
L526.5 44.1" style="fill:none;stroke:#000000;stroke-dasharray:1.000000,3.000000;stroke-dashoffset:0.0;stroke-width:0.5;"/>
     </g>
     <g id="line2d_32">
      <g>
       <use style="stroke:#000000;stroke-width:0.5;" x="526.5" xlink:href="#m93b0483c22" y="396.9"/>
      </g>
     </g>
     <g id="line2d_33">
      <g>
       <use style="stroke:#000000;stroke-width:0.5;" x="526.5" xlink:href="#m741efc42ff" y="44.1"/>
      </g>
     </g>
     <g id="text_8">
      <!-- 7 -->
      <defs>
       <path d="
M8.20312 72.9062
L55.0781 72.9062
L55.0781 68.7031
L28.6094 0
L18.3125 0
L43.2188 64.5938
L8.20312 64.5938
z
" id="DejaVuSans-37"/>
      </defs>
      <g transform="translate(523.6875 410.018125)scale(0.12 -0.12)">
       <use xlink:href="#DejaVuSans-37"/>
      </g>
     </g>
    </g>
    <g id="text_9">
     <!-- Server -->
     <defs>
      <path d="
M53.5156 70.5156
L53.5156 60.8906
Q47.9062 63.5781 42.9219 64.8906
Q37.9375 66.2188 33.2969 66.2188
Q25.25 66.2188 20.875 63.0938
Q16.5 59.9688 16.5 54.2031
Q16.5 49.3594 19.4062 46.8906
Q22.3125 44.4375 30.4219 42.9219
L36.375 41.7031
Q47.4062 39.5938 52.6562 34.2969
Q57.9062 29 57.9062 20.125
Q57.9062 9.51562 50.7969 4.04688
Q43.7031 -1.42188 29.9844 -1.42188
Q24.8125 -1.42188 18.9688 -0.25
Q13.1406 0.921875 6.89062 3.21875
L6.89062 13.375
Q12.8906 10.0156 18.6562 8.29688
Q24.4219 6.59375 29.9844 6.59375
Q38.4219 6.59375 43.0156 9.90625
Q47.6094 13.2344 47.6094 19.3906
Q47.6094 24.75 44.3125 27.7812
Q41.0156 30.8125 33.5 32.3281
L27.4844 33.5
Q16.4531 35.6875 11.5156 40.375
Q6.59375 45.0625 6.59375 53.4219
Q6.59375 63.0938 13.4062 68.6562
Q20.2188 74.2188 32.1719 74.2188
Q37.3125 74.2188 42.625 73.2812
Q47.9531 72.3594 53.5156 70.5156" id="DejaVuSans-53"/>
      <path d="
M56.2031 29.5938
L56.2031 25.2031
L14.8906 25.2031
Q15.4844 15.9219 20.4844 11.0625
Q25.4844 6.20312 34.4219 6.20312
Q39.5938 6.20312 44.4531 7.46875
Q49.3125 8.73438 54.1094 11.2812
L54.1094 2.78125
Q49.2656 0.734375 44.1875 -0.34375
Q39.1094 -1.42188 33.8906 -1.42188
Q20.7969 -1.42188 13.1562 6.1875
Q5.51562 13.8125 5.51562 26.8125
Q5.51562 40.2344 12.7656 48.1094
Q20.0156 56 32.3281 56
Q43.3594 56 49.7812 48.8906
Q56.2031 41.7969 56.2031 29.5938
M47.2188 32.2344
Q47.125 39.5938 43.0938 43.9844
Q39.0625 48.3906 32.4219 48.3906
Q24.9062 48.3906 20.3906 44.1406
Q15.875 39.8906 15.1875 32.1719
z
" id="DejaVuSans-65"/>
      <path d="
M2.98438 54.6875
L12.5 54.6875
L29.5938 8.79688
L46.6875 54.6875
L56.2031 54.6875
L35.6875 0
L23.4844 0
z
" id="DejaVuSans-76"/>
      <path d="
M41.1094 46.2969
Q39.5938 47.1719 37.8125 47.5781
Q36.0312 48 33.8906 48
Q26.2656 48 22.1875 43.0469
Q18.1094 38.0938 18.1094 28.8125
L18.1094 0
L9.07812 0
L9.07812 54.6875
L18.1094 54.6875
L18.1094 46.1875
Q20.9531 51.1719 25.4844 53.5781
Q30.0312 56 36.5312 56
Q37.4531 56 38.5781 55.875
Q39.7031 55.7656 41.0625 55.5156
z
" id="DejaVuSans-72"/>
     </defs>
     <g transform="translate(280.5309375 426.631875)scale(0.12 -0.12)">
      <use xlink:href="#DejaVuSans-53"/>
      <use x="63.4765625" xlink:href="#DejaVuSans-65"/>
      <use x="125.0" xlink:href="#DejaVuSans-72"/>
      <use x="166.11328125" xlink:href="#DejaVuSans-76"/>
      <use x="225.29296875" xlink:href="#DejaVuSans-65"/>
      <use x="286.81640625" xlink:href="#DejaVuSans-72"/>
     </g>
    </g>
   </g>
   <g id="matplotlib.axis_2">
    <g id="ytick_1">
     <g id="line2d_34">
      <path clip-path="url(#p5873ec822d)" d="
M73.125 370.572
L526.5 370.572" style="fill:none;stroke:#000000;stroke-dasharray:1.000000,3.000000;stroke-dashoffset:0.0;stroke-width:0.5;"/>
     </g>
     <g id="line2d_35">
      <defs>
       <path d="
M0 0
L4 0" id="m728421d6d4" style="stroke:#000000;stroke-width:0.5;"/>
      </defs>
      <g>
       <use style="stroke:#000000;stroke-width:0.5;" x="73.125" xlink:href="#m728421d6d4" y="370.571641791"/>
      </g>
     </g>
     <g id="line2d_36">
      <defs>
       <path d="
M0 0
L-4 0" id="mcb0005524f" style="stroke:#000000;stroke-width:0.5;"/>
      </defs>
      <g>
       <use style="stroke:#000000;stroke-width:0.5;" x="526.5" xlink:href="#mcb0005524f" y="370.571641791"/>
      </g>
     </g>
     <g id="text_10">
      <!-- 1 -->
      <g transform="translate(63.91625 373.882891791)scale(0.12 -0.12)">
       <use xlink:href="#DejaVuSans-31"/>
      </g>
     </g>
    </g>
    <g id="ytick_2">
     <g id="line2d_37">
      <path clip-path="url(#p5873ec822d)" d="
M73.125 317.915
L526.5 317.915" style="fill:none;stroke:#000000;stroke-dasharray:1.000000,3.000000;stroke-dashoffset:0.0;stroke-width:0.5;"/>
     </g>
     <g id="line2d_38">
      <g>
       <use style="stroke:#000000;stroke-width:0.5;" x="73.125" xlink:href="#m728421d6d4" y="317.914925373"/>
      </g>
     </g>
     <g id="line2d_39">
      <g>
       <use style="stroke:#000000;stroke-width:0.5;" x="526.5" xlink:href="#mcb0005524f" y="317.914925373"/>
      </g>
     </g>
     <g id="text_11">
      <!-- 2 -->
      <g transform="translate(63.57125 321.226175373)scale(0.12 -0.12)">
       <use xlink:href="#DejaVuSans-32"/>
      </g>
     </g>
    </g>
    <g id="ytick_3">
     <g id="line2d_40">
      <path clip-path="url(#p5873ec822d)" d="
M73.125 265.258
L526.5 265.258" style="fill:none;stroke:#000000;stroke-dasharray:1.000000,3.000000;stroke-dashoffset:0.0;stroke-width:0.5;"/>
     </g>
     <g id="line2d_41">
      <g>
       <use style="stroke:#000000;stroke-width:0.5;" x="73.125" xlink:href="#m728421d6d4" y="265.258208955"/>
      </g>
     </g>
     <g id="line2d_42">
      <g>
       <use style="stroke:#000000;stroke-width:0.5;" x="526.5" xlink:href="#mcb0005524f" y="265.258208955"/>
      </g>
     </g>
     <g id="text_12">
      <!-- 3 -->
      <g transform="translate(63.366875 268.569458955)scale(0.12 -0.12)">
       <use xlink:href="#DejaVuSans-33"/>
      </g>
     </g>
    </g>
    <g id="ytick_4">
     <g id="line2d_43">
      <path clip-path="url(#p5873ec822d)" d="
M73.125 212.601
L526.5 212.601" style="fill:none;stroke:#000000;stroke-dasharray:1.000000,3.000000;stroke-dashoffset:0.0;stroke-width:0.5;"/>
     </g>
     <g id="line2d_44">
      <g>
       <use style="stroke:#000000;stroke-width:0.5;" x="73.125" xlink:href="#m728421d6d4" y="212.601492537"/>
      </g>
     </g>
     <g id="line2d_45">
      <g>
       <use style="stroke:#000000;stroke-width:0.5;" x="526.5" xlink:href="#mcb0005524f" y="212.601492537"/>
      </g>
     </g>
     <g id="text_13">
      <!-- 4 -->
      <g transform="translate(62.75 215.912742537)scale(0.12 -0.12)">
       <use xlink:href="#DejaVuSans-34"/>
      </g>
     </g>
    </g>
    <g id="ytick_5">
     <g id="line2d_46">
      <path clip-path="url(#p5873ec822d)" d="
M73.125 159.945
L526.5 159.945" style="fill:none;stroke:#000000;stroke-dasharray:1.000000,3.000000;stroke-dashoffset:0.0;stroke-width:0.5;"/>
     </g>
     <g id="line2d_47">
      <g>
       <use style="stroke:#000000;stroke-width:0.5;" x="73.125" xlink:href="#m728421d6d4" y="159.944776119"/>
      </g>
     </g>
     <g id="line2d_48">
      <g>
       <use style="stroke:#000000;stroke-width:0.5;" x="526.5" xlink:href="#mcb0005524f" y="159.944776119"/>
      </g>
     </g>
     <g id="text_14">
      <!-- 5 -->
      <g transform="translate(63.464375 163.256026119)scale(0.12 -0.12)">
       <use xlink:href="#DejaVuSans-35"/>
      </g>
     </g>
    </g>
    <g id="ytick_6">
     <g id="line2d_49">
      <path clip-path="url(#p5873ec822d)" d="
M73.125 107.288
L526.5 107.288" style="fill:none;stroke:#000000;stroke-dasharray:1.000000,3.000000;stroke-dashoffset:0.0;stroke-width:0.5;"/>
     </g>
     <g id="line2d_50">
      <g>
       <use style="stroke:#000000;stroke-width:0.5;" x="73.125" xlink:href="#m728421d6d4" y="107.288059701"/>
      </g>
     </g>
     <g id="line2d_51">
      <g>
       <use style="stroke:#000000;stroke-width:0.5;" x="526.5" xlink:href="#mcb0005524f" y="107.288059701"/>
      </g>
     </g>
     <g id="text_15">
      <!-- 6 -->
      <g transform="translate(63.08375 110.599309701)scale(0.12 -0.12)">
       <use xlink:href="#DejaVuSans-36"/>
      </g>
     </g>
    </g>
    <g id="ytick_7">
     <g id="line2d_52">
      <path clip-path="url(#p5873ec822d)" d="
M73.125 54.6313
L526.5 54.6313" style="fill:none;stroke:#000000;stroke-dasharray:1.000000,3.000000;stroke-dashoffset:0.0;stroke-width:0.5;"/>
     </g>
     <g id="line2d_53">
      <g>
       <use style="stroke:#000000;stroke-width:0.5;" x="73.125" xlink:href="#m728421d6d4" y="54.6313432836"/>
      </g>
     </g>
     <g id="line2d_54">
      <g>
       <use style="stroke:#000000;stroke-width:0.5;" x="526.5" xlink:href="#mcb0005524f" y="54.6313432836"/>
      </g>
     </g>
     <g id="text_16">
      <!-- 7 -->
      <g transform="translate(63.5 57.9425932836)scale(0.12 -0.12)">
       <use xlink:href="#DejaVuSans-37"/>
      </g>
     </g>
    </g>
    <g id="text_17">
     <!-- $\eta$ -->
     <defs>
      <path d="
M10.6875 -1.125
Q9.46875 -1.125 8.59375 -0.34375
Q7.71875 0.4375 7.71875 1.70312
Q7.71875 2.29688 7.8125 2.59375
L15.2812 32.4219
Q16.0156 35.2031 16.0156 37.3125
Q16.0156 41.6094 13.0938 41.6094
Q9.96875 41.6094 8.45312 37.8594
Q6.9375 34.125 5.51562 28.4219
Q5.51562 28.125 5.21875 27.9531
Q4.9375 27.7812 4.6875 27.7812
L3.51562 27.7812
Q3.17188 27.7812 2.92188 28.1406
Q2.6875 28.5156 2.6875 28.8125
Q3.76562 33.1562 4.76562 36.1719
Q5.76562 39.2031 7.89062 41.6875
Q10.0156 44.1875 13.1875 44.1875
Q16.8906 44.1875 19.7969 41.8438
Q22.7031 39.5 22.7031 35.7969
Q25.6406 39.7031 29.5938 41.9375
Q33.5469 44.1875 38.1875 44.1875
Q43.4062 44.1875 46.5469 41.375
Q49.7031 38.5781 49.7031 33.4062
Q49.7031 30.4219 49.0312 27.875
L37.4062 -18.4062
Q37.1094 -19.8281 35.9375 -20.7031
Q34.7656 -21.5781 33.2969 -21.5781
Q32.0781 -21.5781 31.2031 -20.8125
Q30.3281 -20.0625 30.3281 -18.7969
Q30.3281 -18.2188 30.4219 -18.0156
L41.8906 28.0781
Q42.9219 32.1719 42.9219 34.9062
Q42.9219 37.7031 41.75 39.6562
Q40.5781 41.6094 37.9844 41.6094
Q28.1719 41.6094 21.6875 29.5
L14.8906 2.20312
Q14.5469 0.828125 13.3438 -0.140625
Q12.1562 -1.125 10.6875 -1.125" id="Cmmi10-b4"/>
     </defs>
     <g transform="translate(55.11 223.5)rotate(-90.0)scale(0.12 -0.12)">
      <use transform="translate(0.0 0.8125)" xlink:href="#Cmmi10-b4"/>
     </g>
    </g>
   </g>
   <g id="text_18">
    <!-- Speedup 1:n Verteilung Gesamtzeit -->
    <defs>
     <path d="
M11.7188 12.4062
L22.0156 12.4062
L22.0156 0
L11.7188 0
z

M11.7188 51.7031
L22.0156 51.7031
L22.0156 39.3125
L11.7188 39.3125
z
" id="DejaVuSans-3a"/>
     <path d="
M45.4062 27.9844
Q45.4062 37.75 41.375 43.1094
Q37.3594 48.4844 30.0781 48.4844
Q22.8594 48.4844 18.8281 43.1094
Q14.7969 37.75 14.7969 27.9844
Q14.7969 18.2656 18.8281 12.8906
Q22.8594 7.51562 30.0781 7.51562
Q37.3594 7.51562 41.375 12.8906
Q45.4062 18.2656 45.4062 27.9844
M54.3906 6.78125
Q54.3906 -7.17188 48.1875 -13.9844
Q42 -20.7969 29.2031 -20.7969
Q24.4688 -20.7969 20.2656 -20.0938
Q16.0625 -19.3906 12.1094 -17.9219
L12.1094 -9.1875
Q16.0625 -11.3281 19.9219 -12.3438
Q23.7812 -13.375 27.7812 -13.375
Q36.625 -13.375 41.0156 -8.76562
Q45.4062 -4.15625 45.4062 5.17188
L45.4062 9.625
Q42.625 4.78125 38.2812 2.39062
Q33.9375 0 27.875 0
Q17.8281 0 11.6719 7.65625
Q5.51562 15.3281 5.51562 27.9844
Q5.51562 40.6719 11.6719 48.3281
Q17.8281 56 27.875 56
Q33.9375 56 38.2812 53.6094
Q42.625 51.2188 45.4062 46.3906
L45.4062 54.6875
L54.3906 54.6875
z
" id="DejaVuSans-67"/>
     <path d="
M52 44.1875
Q55.375 50.25 60.0625 53.125
Q64.75 56 71.0938 56
Q79.6406 56 84.2812 50.0156
Q88.9219 44.0469 88.9219 33.0156
L88.9219 0
L79.8906 0
L79.8906 32.7188
Q79.8906 40.5781 77.0938 44.375
Q74.3125 48.1875 68.6094 48.1875
Q61.625 48.1875 57.5625 43.5469
Q53.5156 38.9219 53.5156 30.9062
L53.5156 0
L44.4844 0
L44.4844 32.7188
Q44.4844 40.625 41.7031 44.4062
Q38.9219 48.1875 33.1094 48.1875
Q26.2188 48.1875 22.1562 43.5312
Q18.1094 38.875 18.1094 30.9062
L18.1094 0
L9.07812 0
L9.07812 54.6875
L18.1094 54.6875
L18.1094 46.1875
Q21.1875 51.2188 25.4844 53.6094
Q29.7812 56 35.6875 56
Q41.6562 56 45.8281 52.9688
Q50 49.9531 52 44.1875" id="DejaVuSans-6d"/>
     <path d="
M54.8906 33.0156
L54.8906 0
L45.9062 0
L45.9062 32.7188
Q45.9062 40.4844 42.875 44.3281
Q39.8438 48.1875 33.7969 48.1875
Q26.5156 48.1875 22.3125 43.5469
Q18.1094 38.9219 18.1094 30.9062
L18.1094 0
L9.07812 0
L9.07812 54.6875
L18.1094 54.6875
L18.1094 46.1875
Q21.3438 51.125 25.7031 53.5625
Q30.0781 56 35.7969 56
Q45.2188 56 50.0469 50.1719
Q54.8906 44.3438 54.8906 33.0156" id="DejaVuSans-6e"/>
     <path d="
M5.51562 54.6875
L48.1875 54.6875
L48.1875 46.4844
L14.4062 7.17188
L48.1875 7.17188
L48.1875 0
L4.29688 0
L4.29688 8.20312
L38.0938 47.5156
L5.51562 47.5156
z
" id="DejaVuSans-7a"/>
     <path d="
M9.42188 75.9844
L18.4062 75.9844
L18.4062 0
L9.42188 0
z
" id="DejaVuSans-6c"/>
     <path d="
M28.6094 0
L0.78125 72.9062
L11.0781 72.9062
L34.1875 11.5312
L57.3281 72.9062
L67.5781 72.9062
L39.7969 0
z
" id="DejaVuSans-56"/>
     <path id="DejaVuSans-20"/>
     <path d="
M59.5156 10.4062
L59.5156 29.9844
L43.4062 29.9844
L43.4062 38.0938
L69.2812 38.0938
L69.2812 6.78125
Q63.5781 2.73438 56.6875 0.65625
Q49.8125 -1.42188 42 -1.42188
Q24.9062 -1.42188 15.25 8.5625
Q5.60938 18.5625 5.60938 36.375
Q5.60938 54.25 15.25 64.2344
Q24.9062 74.2188 42 74.2188
Q49.125 74.2188 55.5469 72.4531
Q61.9688 70.7031 67.3906 67.2812
L67.3906 56.7812
Q61.9219 61.4219 55.7656 63.7656
Q49.6094 66.1094 42.8281 66.1094
Q29.4375 66.1094 22.7188 58.6406
Q16.0156 51.1719 16.0156 36.375
Q16.0156 21.625 22.7188 14.1562
Q29.4375 6.6875 42.8281 6.6875
Q48.0469 6.6875 52.1406 7.59375
Q56.25 8.5 59.5156 10.4062" id="DejaVuSans-47"/>
     <path d="
M9.42188 54.6875
L18.4062 54.6875
L18.4062 0
L9.42188 0
z

M9.42188 75.9844
L18.4062 75.9844
L18.4062 64.5938
L9.42188 64.5938
z
" id="DejaVuSans-69"/>
     <path d="
M8.5 21.5781
L8.5 54.6875
L17.4844 54.6875
L17.4844 21.9219
Q17.4844 14.1562 20.5 10.2656
Q23.5312 6.39062 29.5938 6.39062
Q36.8594 6.39062 41.0781 11.0312
Q45.3125 15.6719 45.3125 23.6875
L45.3125 54.6875
L54.2969 54.6875
L54.2969 0
L45.3125 0
L45.3125 8.40625
Q42.0469 3.42188 37.7188 1
Q33.4062 -1.42188 27.6875 -1.42188
Q18.2656 -1.42188 13.375 4.4375
Q8.5 10.2969 8.5 21.5781
M31.1094 56
z
" id="DejaVuSans-75"/>
     <path d="
M18.3125 70.2188
L18.3125 54.6875
L36.8125 54.6875
L36.8125 47.7031
L18.3125 47.7031
L18.3125 18.0156
Q18.3125 11.3281 20.1406 9.42188
Q21.9688 7.51562 27.5938 7.51562
L36.8125 7.51562
L36.8125 0
L27.5938 0
Q17.1875 0 13.2344 3.875
Q9.28125 7.76562 9.28125 18.0156
L9.28125 47.7031
L2.6875 47.7031
L2.6875 54.6875
L9.28125 54.6875
L9.28125 70.2188
z
" id="DejaVuSans-74"/>
     <path d="
M45.4062 46.3906
L45.4062 75.9844
L54.3906 75.9844
L54.3906 0
L45.4062 0
L45.4062 8.20312
Q42.5781 3.32812 38.25 0.953125
Q33.9375 -1.42188 27.875 -1.42188
Q17.9688 -1.42188 11.7344 6.48438
Q5.51562 14.4062 5.51562 27.2969
Q5.51562 40.1875 11.7344 48.0938
Q17.9688 56 27.875 56
Q33.9375 56 38.25 53.625
Q42.5781 51.2656 45.4062 46.3906
M14.7969 27.2969
Q14.7969 17.3906 18.875 11.75
Q22.9531 6.10938 30.0781 6.10938
Q37.2031 6.10938 41.2969 11.75
Q45.4062 17.3906 45.4062 27.2969
Q45.4062 37.2031 41.2969 42.8438
Q37.2031 48.4844 30.0781 48.4844
Q22.9531 48.4844 18.875 42.8438
Q14.7969 37.2031 14.7969 27.2969" id="DejaVuSans-64"/>
     <path d="
M18.1094 8.20312
L18.1094 -20.7969
L9.07812 -20.7969
L9.07812 54.6875
L18.1094 54.6875
L18.1094 46.3906
Q20.9531 51.2656 25.2656 53.625
Q29.5938 56 35.5938 56
Q45.5625 56 51.7812 48.0938
Q58.0156 40.1875 58.0156 27.2969
Q58.0156 14.4062 51.7812 6.48438
Q45.5625 -1.42188 35.5938 -1.42188
Q29.5938 -1.42188 25.2656 0.953125
Q20.9531 3.32812 18.1094 8.20312
M48.6875 27.2969
Q48.6875 37.2031 44.6094 42.8438
Q40.5312 48.4844 33.4062 48.4844
Q26.2656 48.4844 22.1875 42.8438
Q18.1094 37.2031 18.1094 27.2969
Q18.1094 17.3906 22.1875 11.75
Q26.2656 6.10938 33.4062 6.10938
Q40.5312 6.10938 44.6094 11.75
Q48.6875 17.3906 48.6875 27.2969" id="DejaVuSans-70"/>
     <path d="
M44.2812 53.0781
L44.2812 44.5781
Q40.4844 46.5312 36.375 47.5
Q32.2812 48.4844 27.875 48.4844
Q21.1875 48.4844 17.8438 46.4375
Q14.5 44.3906 14.5 40.2812
Q14.5 37.1562 16.8906 35.375
Q19.2812 33.5938 26.5156 31.9844
L29.5938 31.2969
Q39.1562 29.25 43.1875 25.5156
Q47.2188 21.7812 47.2188 15.0938
Q47.2188 7.46875 41.1875 3.01562
Q35.1562 -1.42188 24.6094 -1.42188
Q20.2188 -1.42188 15.4531 -0.5625
Q10.6875 0.296875 5.42188 2
L5.42188 11.2812
Q10.4062 8.6875 15.2344 7.39062
Q20.0625 6.10938 24.8125 6.10938
Q31.1562 6.10938 34.5625 8.28125
Q37.9844 10.4531 37.9844 14.4062
Q37.9844 18.0625 35.5156 20.0156
Q33.0625 21.9688 24.7031 23.7812
L21.5781 24.5156
Q13.2344 26.2656 9.51562 29.9062
Q5.8125 33.5469 5.8125 39.8906
Q5.8125 47.6094 11.2812 51.7969
Q16.75 56 26.8125 56
Q31.7812 56 36.1719 55.2656
Q40.5781 54.5469 44.2812 53.0781" id="DejaVuSans-73"/>
     <path d="
M34.2812 27.4844
Q23.3906 27.4844 19.1875 25
Q14.9844 22.5156 14.9844 16.5
Q14.9844 11.7188 18.1406 8.90625
Q21.2969 6.10938 26.7031 6.10938
Q34.1875 6.10938 38.7031 11.4062
Q43.2188 16.7031 43.2188 25.4844
L43.2188 27.4844
z

M52.2031 31.2031
L52.2031 0
L43.2188 0
L43.2188 8.29688
Q40.1406 3.32812 35.5469 0.953125
Q30.9531 -1.42188 24.3125 -1.42188
Q15.9219 -1.42188 10.9531 3.29688
Q6 8.01562 6 15.9219
Q6 25.1406 12.1719 29.8281
Q18.3594 34.5156 30.6094 34.5156
L43.2188 34.5156
L43.2188 35.4062
Q43.2188 41.6094 39.1406 45
Q35.0625 48.3906 27.6875 48.3906
Q23 48.3906 18.5469 47.2656
Q14.1094 46.1406 10.0156 43.8906
L10.0156 52.2031
Q14.9375 54.1094 19.5781 55.0469
Q24.2188 56 28.6094 56
Q40.4844 56 46.3438 49.8438
Q52.2031 43.7031 52.2031 31.2031" id="DejaVuSans-61"/>
    </defs>
    <g transform="translate(172.09575 39.1)scale(0.144 -0.144)">
     <use xlink:href="#DejaVuSans-53"/>
     <use x="63.4765625" xlink:href="#DejaVuSans-70"/>
     <use x="126.953125" xlink:href="#DejaVuSans-65"/>
     <use x="188.4765625" xlink:href="#DejaVuSans-65"/>
     <use x="250.0" xlink:href="#DejaVuSans-64"/>
     <use x="313.4765625" xlink:href="#DejaVuSans-75"/>
     <use x="376.85546875" xlink:href="#DejaVuSans-70"/>
     <use x="440.33203125" xlink:href="#DejaVuSans-20"/>
     <use x="472.119140625" xlink:href="#DejaVuSans-31"/>
     <use x="535.7421875" xlink:href="#DejaVuSans-3a"/>
     <use x="569.43359375" xlink:href="#DejaVuSans-6e"/>
     <use x="632.8125" xlink:href="#DejaVuSans-20"/>
     <use x="664.599609375" xlink:href="#DejaVuSans-56"/>
     <use x="725.2578125" xlink:href="#DejaVuSans-65"/>
     <use x="786.78125" xlink:href="#DejaVuSans-72"/>
     <use x="827.89453125" xlink:href="#DejaVuSans-74"/>
     <use x="867.103515625" xlink:href="#DejaVuSans-65"/>
     <use x="928.626953125" xlink:href="#DejaVuSans-69"/>
     <use x="956.41015625" xlink:href="#DejaVuSans-6c"/>
     <use x="984.193359375" xlink:href="#DejaVuSans-75"/>
     <use x="1047.57226562" xlink:href="#DejaVuSans-6e"/>
     <use x="1110.95117188" xlink:href="#DejaVuSans-67"/>
     <use x="1174.42773438" xlink:href="#DejaVuSans-20"/>
     <use x="1206.21484375" xlink:href="#DejaVuSans-47"/>
     <use x="1283.70507812" xlink:href="#DejaVuSans-65"/>
     <use x="1345.22851562" xlink:href="#DejaVuSans-73"/>
     <use x="1397.328125" xlink:href="#DejaVuSans-61"/>
     <use x="1458.60742188" xlink:href="#DejaVuSans-6d"/>
     <use x="1556.01953125" xlink:href="#DejaVuSans-74"/>
     <use x="1595.22851562" xlink:href="#DejaVuSans-7a"/>
     <use x="1647.71875" xlink:href="#DejaVuSans-65"/>
     <use x="1709.2421875" xlink:href="#DejaVuSans-69"/>
     <use x="1737.02539062" xlink:href="#DejaVuSans-74"/>
    </g>
   </g>
   <g id="legend_1">
    <g id="patch_7">
     <path d="
M80.325 245.848
L187.742 245.848
L187.742 51.3
L80.325 51.3
z
" style="fill:#ffffff;stroke:#000000;stroke-linejoin:miter;"/>
    </g>
    <g id="line2d_55">
     <path d="
M90.405 62.9617
L110.565 62.9617" style="fill:none;stroke:#0000ff;stroke-dasharray:3.000000,5.000000,1.000000,5.000000;stroke-dashoffset:0.0;"/>
    </g>
    <g id="line2d_56"/>
    <g id="text_19">
     <!-- n=1000 -->
     <defs>
      <path d="
M10.5938 45.4062
L73.1875 45.4062
L73.1875 37.2031
L10.5938 37.2031
z

M10.5938 25.4844
L73.1875 25.4844
L73.1875 17.1875
L10.5938 17.1875
z
" id="DejaVuSans-3d"/>
     </defs>
     <g transform="translate(126.405 68.00175)scale(0.144 -0.144)">
      <use xlink:href="#DejaVuSans-6e"/>
      <use x="63.37890625" xlink:href="#DejaVuSans-3d"/>
      <use x="147.16796875" xlink:href="#DejaVuSans-31"/>
      <use x="210.791015625" xlink:href="#DejaVuSans-30"/>
      <use x="274.4140625" xlink:href="#DejaVuSans-30"/>
      <use x="338.037109375" xlink:href="#DejaVuSans-30"/>
     </g>
    </g>
    <g id="line2d_57">
     <path d="
M90.405 84.0982
L110.565 84.0982" style="fill:none;stroke:#008000;stroke-dasharray:6.000000,6.000000;stroke-dashoffset:0.0;"/>
    </g>
    <g id="line2d_58"/>
    <g id="text_20">
     <!-- n=1500 -->
     <g transform="translate(126.405 89.13825)scale(0.144 -0.144)">
      <use xlink:href="#DejaVuSans-6e"/>
      <use x="63.37890625" xlink:href="#DejaVuSans-3d"/>
      <use x="147.16796875" xlink:href="#DejaVuSans-31"/>
      <use x="210.791015625" xlink:href="#DejaVuSans-35"/>
      <use x="274.4140625" xlink:href="#DejaVuSans-30"/>
      <use x="338.037109375" xlink:href="#DejaVuSans-30"/>
     </g>
    </g>
    <g id="line2d_59">
     <path d="
M90.405 105.235
L110.565 105.235" style="fill:none;stroke:#ff0000;stroke-linecap:square;"/>
    </g>
    <g id="line2d_60"/>
    <g id="text_21">
     <!-- n=2000 -->
     <g transform="translate(126.405 110.27475)scale(0.144 -0.144)">
      <use xlink:href="#DejaVuSans-6e"/>
      <use x="63.37890625" xlink:href="#DejaVuSans-3d"/>
      <use x="147.16796875" xlink:href="#DejaVuSans-32"/>
      <use x="210.791015625" xlink:href="#DejaVuSans-30"/>
      <use x="274.4140625" xlink:href="#DejaVuSans-30"/>
      <use x="338.037109375" xlink:href="#DejaVuSans-30"/>
     </g>
    </g>
    <g id="line2d_61">
     <path d="
M90.405 126.371
L110.565 126.371" style="fill:none;stroke:#00bfbf;stroke-linecap:square;"/>
    </g>
    <g id="line2d_62"/>
    <g id="text_22">
     <!-- n=2500 -->
     <g transform="translate(126.405 131.41125)scale(0.144 -0.144)">
      <use xlink:href="#DejaVuSans-6e"/>
      <use x="63.37890625" xlink:href="#DejaVuSans-3d"/>
      <use x="147.16796875" xlink:href="#DejaVuSans-32"/>
      <use x="210.791015625" xlink:href="#DejaVuSans-35"/>
      <use x="274.4140625" xlink:href="#DejaVuSans-30"/>
      <use x="338.037109375" xlink:href="#DejaVuSans-30"/>
     </g>
    </g>
    <g id="line2d_63">
     <path d="
M90.405 147.508
L110.565 147.508" style="fill:none;stroke:#bf00bf;stroke-linecap:square;"/>
    </g>
    <g id="line2d_64"/>
    <g id="text_23">
     <!-- n=3000 -->
     <g transform="translate(126.405 152.54775)scale(0.144 -0.144)">
      <use xlink:href="#DejaVuSans-6e"/>
      <use x="63.37890625" xlink:href="#DejaVuSans-3d"/>
      <use x="147.16796875" xlink:href="#DejaVuSans-33"/>
      <use x="210.791015625" xlink:href="#DejaVuSans-30"/>
      <use x="274.4140625" xlink:href="#DejaVuSans-30"/>
      <use x="338.037109375" xlink:href="#DejaVuSans-30"/>
     </g>
    </g>
    <g id="line2d_65">
     <path d="
M90.405 168.644
L110.565 168.644" style="fill:none;stroke:#bfbf00;stroke-linecap:square;"/>
    </g>
    <g id="line2d_66"/>
    <g id="text_24">
     <!-- n=3500 -->
     <g transform="translate(126.405 173.68425)scale(0.144 -0.144)">
      <use xlink:href="#DejaVuSans-6e"/>
      <use x="63.37890625" xlink:href="#DejaVuSans-3d"/>
      <use x="147.16796875" xlink:href="#DejaVuSans-33"/>
      <use x="210.791015625" xlink:href="#DejaVuSans-35"/>
      <use x="274.4140625" xlink:href="#DejaVuSans-30"/>
      <use x="338.037109375" xlink:href="#DejaVuSans-30"/>
     </g>
    </g>
    <g id="line2d_67">
     <path d="
M90.405 189.781
L110.565 189.781" style="fill:none;stroke:#000000;stroke-linecap:square;"/>
    </g>
    <g id="line2d_68"/>
    <g id="text_25">
     <!-- n=4000 -->
     <g transform="translate(126.405 194.82075)scale(0.144 -0.144)">
      <use xlink:href="#DejaVuSans-6e"/>
      <use x="63.37890625" xlink:href="#DejaVuSans-3d"/>
      <use x="147.16796875" xlink:href="#DejaVuSans-34"/>
      <use x="210.791015625" xlink:href="#DejaVuSans-30"/>
      <use x="274.4140625" xlink:href="#DejaVuSans-30"/>
      <use x="338.037109375" xlink:href="#DejaVuSans-30"/>
     </g>
    </g>
    <g id="line2d_69">
     <path d="
M90.405 210.917
L110.565 210.917" style="fill:none;stroke:#0000ff;stroke-linecap:square;"/>
    </g>
    <g id="line2d_70"/>
    <g id="text_26">
     <!-- n=4500 -->
     <g transform="translate(126.405 215.95725)scale(0.144 -0.144)">
      <use xlink:href="#DejaVuSans-6e"/>
      <use x="63.37890625" xlink:href="#DejaVuSans-3d"/>
      <use x="147.16796875" xlink:href="#DejaVuSans-34"/>
      <use x="210.791015625" xlink:href="#DejaVuSans-35"/>
      <use x="274.4140625" xlink:href="#DejaVuSans-30"/>
      <use x="338.037109375" xlink:href="#DejaVuSans-30"/>
     </g>
    </g>
    <g id="line2d_71">
     <path d="
M90.405 232.054
L110.565 232.054" style="fill:none;stroke:#008000;stroke-linecap:square;"/>
    </g>
    <g id="line2d_72"/>
    <g id="text_27">
     <!-- n=5000 -->
     <g transform="translate(126.405 237.09375)scale(0.144 -0.144)">
      <use xlink:href="#DejaVuSans-6e"/>
      <use x="63.37890625" xlink:href="#DejaVuSans-3d"/>
      <use x="147.16796875" xlink:href="#DejaVuSans-35"/>
      <use x="210.791015625" xlink:href="#DejaVuSans-30"/>
      <use x="274.4140625" xlink:href="#DejaVuSans-30"/>
      <use x="338.037109375" xlink:href="#DejaVuSans-30"/>
     </g>
    </g>
   </g>
  </g>
 </g>
 <defs>
  <clipPath id="p5873ec822d">
   <rect height="352.8" width="453.375" x="73.125" y="44.1"/>
  </clipPath>
 </defs>
</svg>
