<?xml version="1.0" encoding="UTF-8" standalone="no"?>
<!-- Created with Inkscape (http://www.inkscape.org/) -->

<svg
   xmlns:dc="http://purl.org/dc/elements/1.1/"
   xmlns:cc="http://creativecommons.org/ns#"
   xmlns:rdf="http://www.w3.org/1999/02/22-rdf-syntax-ns#"
   xmlns:svg="http://www.w3.org/2000/svg"
   xmlns="http://www.w3.org/2000/svg"
   xmlns:sodipodi="http://sodipodi.sourceforge.net/DTD/sodipodi-0.dtd"
   xmlns:inkscape="http://www.inkscape.org/namespaces/inkscape"
   width="467.71652"
   height="212.59842"
   viewBox="0 0 425.19684 0"
   id="svg2"
   version="1.1"
   inkscape:version="0.91 r13725"
   sodipodi:docname="ExpectedVolumeGain.svg">
  <defs
     id="defs4">
    <inkscape:path-effect
       effect="spiro"
       id="path-effect6263"
       is_visible="true" />
    <inkscape:path-effect
       is_visible="true"
       id="path-effect6260"
       effect="spiro" />
    <inkscape:path-effect
       is_visible="true"
       id="path-effect6241"
       effect="spiro" />
    <inkscape:path-effect
       effect="spiro"
       id="path-effect6238"
       is_visible="true" />
    <inkscape:path-effect
       is_visible="true"
       id="path-effect6231"
       effect="spiro" />
    <inkscape:path-effect
       effect="spiro"
       id="path-effect6228"
       is_visible="true" />
    <inkscape:path-effect
       is_visible="true"
       id="path-effect5821"
       effect="spiro" />
    <inkscape:path-effect
       effect="spiro"
       id="path-effect5437"
       is_visible="true" />
    <marker
       inkscape:stockid="StopM"
       orient="auto"
       refY="0"
       refX="0"
       id="StopM"
       style="overflow:visible">
      <path
         id="path4019"
         d="M 0,5.65 0,-5.65"
         style="fill:none;stroke:#000000;stroke-width:1pt"
         transform="scale(0.4,0.4)"
         inkscape:connector-curvature="0" />
    </marker>
    <marker
       inkscape:stockid="StopL"
       orient="auto"
       refY="0"
       refX="0"
       id="StopL"
       style="overflow:visible">
      <path
         id="path4016"
         d="M 0,5.65 0,-5.65"
         style="fill:none;stroke:#000000;stroke-width:1pt"
         transform="scale(0.8,0.8)"
         inkscape:connector-curvature="0" />
    </marker>
    <inkscape:path-effect
       effect="spiro"
       id="path-effect3055"
       is_visible="true" />
    <marker
       inkscape:stockid="Arrow2Mend"
       orient="auto"
       refY="0"
       refX="0"
       id="marker4598"
       style="overflow:visible"
       inkscape:isstock="true">
      <path
         id="path4600"
         style="fill:#000000;fill-opacity:1;fill-rule:evenodd;stroke:#000000;stroke-width:0.625;stroke-linejoin:round;stroke-opacity:1"
         d="M 8.7185878,4.0337352 -2.2072895,0.01601326 8.7185884,-4.0017078 c -1.7454984,2.3720609 -1.7354408,5.6174519 -6e-7,8.035443 z"
         transform="scale(-0.6,-0.6)"
         inkscape:connector-curvature="0" />
    </marker>
    <marker
       inkscape:stockid="Arrow2Mend"
       orient="auto"
       refY="0"
       refX="0"
       id="Arrow2Mend"
       style="overflow:visible"
       inkscape:isstock="true">
      <path
         id="path4177"
         style="fill:#000000;fill-opacity:1;fill-rule:evenodd;stroke:#000000;stroke-width:0.625;stroke-linejoin:round;stroke-opacity:1"
         d="M 8.7185878,4.0337352 -2.2072895,0.01601326 8.7185884,-4.0017078 c -1.7454984,2.3720609 -1.7354408,5.6174519 -6e-7,8.035443 z"
         transform="scale(-0.6,-0.6)"
         inkscape:connector-curvature="0" />
    </marker>
    <marker
       inkscape:stockid="Arrow1Lend"
       orient="auto"
       refY="0"
       refX="0"
       id="Arrow1Lend"
       style="overflow:visible"
       inkscape:isstock="true">
      <path
         id="path4153"
         d="M 0,0 5,-5 -12.5,0 5,5 0,0 z"
         style="fill:#000000;fill-opacity:1;fill-rule:evenodd;stroke:#000000;stroke-width:1pt;stroke-opacity:1"
         transform="matrix(-0.8,0,0,-0.8,-10,0)"
         inkscape:connector-curvature="0" />
    </marker>
  </defs>
  <sodipodi:namedview
     id="base"
     pagecolor="#ffffff"
     bordercolor="#666666"
     borderopacity="1.0"
     inkscape:pageopacity="0.0"
     inkscape:pageshadow="2"
     inkscape:zoom="2"
     inkscape:cx="228.44976"
     inkscape:cy="88.898098"
     inkscape:document-units="px"
     inkscape:current-layer="g3136"
     showgrid="true"
     units="mm"
     showguides="true"
     inkscape:guide-bbox="true"
     inkscape:window-width="1920"
     inkscape:window-height="1005"
     inkscape:window-x="-9"
     inkscape:window-y="-9"
     inkscape:window-maximized="1">
    <inkscape:grid
       type="xygrid"
       id="grid4758"
       visible="false"
       empspacing="5"
       enabled="true"
       snapvisiblegridlinesonly="true"
       spacingx="0.2px"
       spacingy="0.2px" />
  </sodipodi:namedview>
  <metadata
     id="metadata7">
    <rdf:RDF>
      <cc:Work
         rdf:about="">
        <dc:format>image/svg+xml</dc:format>
        <dc:type
           rdf:resource="http://purl.org/dc/dcmitype/StillImage" />
        <dc:title></dc:title>
      </cc:Work>
    </rdf:RDF>
  </metadata>
  <g
     inkscape:label="Ebene 1"
     inkscape:groupmode="layer"
     id="layer1"
     transform="translate(0,-939.76392)">
    <rect
       style="fill:#fcf8ef;fill-opacity:1;stroke:#000000;stroke-width:0.405;stroke-miterlimit:4;stroke-opacity:1;stroke-dasharray:1.62, 0.81;stroke-dashoffset:0"
       id="rect4746"
       width="195.55914"
       height="162.47667"
       x="22.437815"
       y="966.89667" />
    <path
       style="fill:none;stroke:none"
       d="m 182.96562,1071.1892 0,14.5891 34.91848,0"
       id="path4756"
       inkscape:connector-curvature="0" />
    <path
       style="fill:none;stroke:none"
       d="m 118.9547,1045.2435 0,16.8569 33.01937,0"
       id="path4750"
       inkscape:connector-curvature="0" />
    <path
       style="fill:#d0d0d0;fill-opacity:1;stroke:none"
       d="m 119.88557,1060.5003 -0.8684,-1.5061 0.0161,-6.596 0.0161,-6.5959 1.01015,0.7845 c 2.03081,1.5774 4.34202,3.1705 6.55171,4.5162 0.91289,0.556 1.05342,0.6624 1.01853,0.7712 -0.0223,0.069 -0.0538,0.3394 -0.0702,0.5998 -0.0544,0.8675 0.32558,1.5243 1.10333,1.9072 0.36429,0.1793 0.48748,0.2078 0.89835,0.2078 0.41096,0 0.53402,-0.028 0.89874,-0.208 0.23242,-0.1144 0.50173,-0.3034 0.59845,-0.4199 l 0.17587,-0.2119 1.79934,0.895 c 4.49561,2.236 9.25058,4.2256 15.87833,6.6438 l 1.95717,0.7141 -15.05759,0 -15.05758,0 -0.86839,-1.5061 0,0 z"
       id="path4762"
       inkscape:connector-curvature="0" />
    <path
       style="fill:none;stroke:none"
       d="m 81.399588,989.80934 0,36.79616 20.570592,0"
       id="path4748"
       inkscape:connector-curvature="0" />
    <path
       style="fill:none;stroke:#000000;stroke-width:0.91512764;stroke-linecap:butt;stroke-linejoin:miter;stroke-miterlimit:4;stroke-opacity:1;stroke-dasharray:none;marker-end:url(#Arrow2Mend)"
       d="m 22.485138,1129.5912 0,-177.22882"
       id="path4144"
       inkscape:connector-curvature="0" />
    <path
       style="fill:none;stroke:#000000;stroke-width:1px;stroke-linecap:butt;stroke-linejoin:miter;stroke-opacity:1;marker-end:url(#marker4598)"
       d="m 22.485138,1129.5912 258.093972,0"
       id="path4596"
       inkscape:connector-curvature="0" />
    <path
       style="fill:none;stroke:#000000;stroke-width:0.5;stroke-linecap:butt;stroke-linejoin:miter;stroke-miterlimit:4;stroke-opacity:1;stroke-dasharray:none"
       d="m 76.528304,970.74469 c 7.576138,35.60791 18.121378,46.95501 32.072336,64.14471 14.14214,17.4252 30.30458,22.9809 57.07362,31.8198 26.76904,8.8388 52.14913,7.1374 52.14913,7.1374"
       id="path4634"
       inkscape:connector-curvature="0"
       sodipodi:nodetypes="cssc" />
    <circle
       style="fill:#3139ae;stroke-width:0.5;stroke-miterlimit:4;stroke-dasharray:none;stroke-dashoffset:0"
       id="path4636"
       cx="94.196724"
       cy="957.65552"
       r="2.0203052"
       sodipodi:cx="94.196724"
       sodipodi:cy="957.65552"
       sodipodi:rx="2.0203052"
       sodipodi:ry="2.0203052"
       transform="translate(-17.415888,13.594268)" />
    <circle
       style="fill:#3139ae;stroke-width:0.5;stroke-miterlimit:4;stroke-dasharray:none;stroke-dashoffset:0"
       id="path4636-7"
       cx="103.79317"
       cy="988.71765"
       r="2.0203052"
       sodipodi:cx="103.79317"
       sodipodi:cy="988.71765"
       sodipodi:rx="2.0203052"
       sodipodi:ry="2.0203052"
       transform="translate(-17.415888,13.594268)" />
    <circle
       style="fill:#3139ae;stroke-width:0.5;stroke-miterlimit:4;stroke-dasharray:none;stroke-dashoffset:0"
       id="path4636-4"
       cx="122.73354"
       cy="1017.002"
       r="2.0203052"
       sodipodi:cx="122.73354"
       sodipodi:cy="1017.002"
       sodipodi:rx="2.0203052"
       sodipodi:ry="2.0203052"
       transform="translate(-17.415888,13.594268)" />
    <circle
       style="fill:#3139ae;stroke-width:0.5;stroke-miterlimit:4;stroke-dasharray:none;stroke-dashoffset:0"
       id="path4636-2"
       cx="146.9772"
       cy="1038.9728"
       r="2.0203052"
       sodipodi:cx="146.9772"
       sodipodi:cy="1038.9728"
       sodipodi:rx="2.0203052"
       sodipodi:ry="2.0203052"
       transform="translate(-17.415888,13.594268)" />
    <circle
       style="fill:#3139ae;stroke-width:0.5;stroke-miterlimit:4;stroke-dasharray:none;stroke-dashoffset:0"
       id="path4636-75"
       cx="179.55461"
       cy="1051.8522"
       r="2.0203052"
       sodipodi:cx="179.55461"
       sodipodi:cy="1051.8522"
       sodipodi:rx="2.0203052"
       sodipodi:ry="2.0203052"
       transform="translate(-17.415888,13.594268)" />
    <circle
       style="fill:#3139ae;stroke-width:0.5;stroke-miterlimit:4;stroke-dasharray:none;stroke-dashoffset:0"
       id="path4636-3"
       cx="217.94041"
       cy="1059.6809"
       r="2.0203052"
       sodipodi:cx="217.94041"
       sodipodi:cy="1059.6809"
       sodipodi:rx="2.0203052"
       sodipodi:ry="2.0203052"
       transform="translate(-17.415888,13.594268)" />
    <circle
       style="fill:#dd2a2b;stroke-width:0.5;stroke-miterlimit:4;stroke-dasharray:none;stroke-dashoffset:0"
       id="path4636-9"
       cx="126.5216"
       cy="970.02979"
       r="2.0203052"
       sodipodi:cx="126.5216"
       sodipodi:cy="970.02979"
       sodipodi:rx="2.0203052"
       sodipodi:ry="2.0203052"
       transform="translate(-17.415888,13.594268)" />
    <circle
       style="fill:#dd2a2b;stroke-width:0.5;stroke-miterlimit:4;stroke-dasharray:none;stroke-dashoffset:0"
       id="path4636-46"
       cx="155.81602"
       cy="1006.3953"
       r="2.0203052"
       sodipodi:cx="155.81602"
       sodipodi:cy="1006.3953"
       sodipodi:rx="2.0203052"
       sodipodi:ry="2.0203052"
       transform="translate(-17.415888,13.594268)" />
    <circle
       style="fill:#dd2a2b;fill-opacity:1;stroke-width:0.5;stroke-miterlimit:4;stroke-dasharray:none;stroke-dashoffset:0"
       id="path4636-1"
       cx="186.87822"
       cy="982.9093"
       r="2.0203052"
       sodipodi:cx="186.87822"
       sodipodi:cy="982.9093"
       sodipodi:rx="2.0203052"
       sodipodi:ry="2.0203052"
       transform="translate(-17.415888,13.594268)" />
    <circle
       style="fill:#dd2a2b;stroke-width:0.5;stroke-miterlimit:4;stroke-dasharray:none;stroke-dashoffset:0"
       id="path4636-8"
       cx="198.74751"
       cy="1027.8611"
       r="2.0203052"
       sodipodi:cx="198.74751"
       sodipodi:cy="1027.8611"
       sodipodi:rx="2.0203052"
       sodipodi:ry="2.0203052"
       transform="translate(-17.415888,13.594268)" />
    <path
       sodipodi:type="star"
       style="fill:#338000;stroke-width:0.5;stroke-miterlimit:4;stroke-dasharray:none;stroke-dashoffset:0"
       id="path4701"
       sodipodi:sides="3"
       sodipodi:cx="98.868683"
       sodipodi:cy="1012.938"
       sodipodi:r1="3.2926946"
       sodipodi:r2="1.6463472"
       sodipodi:arg1="-1.5707963"
       sodipodi:arg2="-0.52359878"
       inkscape:flatsided="false"
       inkscape:rounded="0"
       inkscape:randomized="0"
       d="m 98.868683,1009.6453 1.425777,2.4695 1.42578,2.4695 -2.851557,0 -2.851557,0 1.425778,-2.4695 z"
       inkscape:transform-center-y="-0.82317361"
       transform="translate(-17.415888,13.594268)" />
    <path
       sodipodi:type="star"
       style="fill:#338000;stroke-width:0.5;stroke-miterlimit:4;stroke-dasharray:none;stroke-dashoffset:0"
       id="path4701-2"
       sodipodi:sides="3"
       sodipodi:cx="136.42528"
       sodipodi:cy="1048.6271"
       sodipodi:r1="3.2926946"
       sodipodi:r2="1.6463472"
       sodipodi:arg1="-1.5707963"
       sodipodi:arg2="-0.52359878"
       inkscape:flatsided="false"
       inkscape:rounded="0"
       inkscape:randomized="0"
       d="m 136.42528,1045.3344 1.42578,2.4695 1.42577,2.4695 -2.85155,0 -2.85156,0 1.42578,-2.4695 z"
       inkscape:transform-center-y="-0.82317361"
       transform="translate(-17.415888,13.594268)" />
    <rect
       style="fill:#dacf2f;stroke-width:0.5;stroke-miterlimit:4;stroke-dasharray:none;stroke-dashoffset:0"
       id="rect4730"
       width="0"
       height="0"
       x="0"
       y="0"
       transform="translate(0,868.89783)" />
    <path
       style="fill:#d0d0d0;fill-opacity:1;stroke:none"
       d="m 81.463305,1001.7743 9.65e-4,-11.38548 0.383264,1.11591 c 1.111738,3.2369 2.073738,5.7562 3.243388,8.49378 0.20346,0.47619 0.2388,0.57509 0.2111,0.59059 -0.10649,0.06 -0.32265,0.2426 -0.43188,0.3656 -0.34301,0.3862 -0.51308,0.8355 -0.51308,1.3555 0,0.4278 0.10688,0.7848 0.33971,1.1348 0.26973,0.4053 0.69051,0.7017 1.18646,0.8355 0.24936,0.067 0.69893,0.071 0.95394,0.01 0.094,-0.023 0.17537,-0.038 0.18076,-0.032 0.005,0.01 0.18275,0.3627 0.39414,0.794 0.95176,1.9418 2.15938,4.1838 3.32652,6.1758 0.2904,0.4957 1.05702,1.7695 1.11243,1.8485 0.0226,0.032 0.0411,0.065 0.0411,0.072 0,0.01 -2.34671,0.013 -5.21491,0.013 l -5.214912,0 9.65e-4,-11.3855 z"
       id="path4770"
       inkscape:connector-curvature="0" />
    <path
       style="fill:#d0d0d0;fill-opacity:1;stroke:none"
       d="m 82.405126,1024.8954 -0.942786,-1.6333 0,-5.0511 0,-5.0511 5.220442,3e-4 5.22043,4e-4 0.26381,0.425 c 2.34307,3.7746 5.53602,8.2142 9.217218,12.8159 l 0.10164,0.1271 -9.068988,0 -9.06898,0 -0.942786,-1.6332 z"
       id="path4772"
       inkscape:connector-curvature="0" />
    <path
       style="fill:#d0d0d0;fill-opacity:1;stroke:none"
       d="m 82.406991,1024.8888 -0.944651,-1.6386 0,-13.4531 0,-13.45311 1.069345,0 c 1.133377,0 1.082397,-0.004 1.106257,0.0884 0.0136,0.0529 0.0667,0.19657 0.0857,0.23202 0.013,0.0243 0.0255,0.0541 0.0277,0.0663 0.009,0.051 0.30022,0.77345 0.32211,0.79982 0.0132,0.0159 0.0166,0.0288 0.008,0.0288 -0.009,0 -1e-5,0.0249 0.0199,0.0552 0.0199,0.0304 0.0298,0.0552 0.0221,0.0552 -0.008,0 0.002,0.0249 0.0221,0.0553 0.0199,0.0304 0.0298,0.0552 0.0221,0.0552 -0.008,0 0.002,0.0249 0.0221,0.0552 0.0199,0.0304 0.0306,0.0553 0.0239,0.0553 -0.007,0 -5e-5,0.0224 0.015,0.0497 0.015,0.0273 0.0293,0.0597 0.0317,0.0718 0.002,0.0122 0.025,0.0695 0.0501,0.12734 0.0252,0.0579 0.0444,0.10761 0.0427,0.11049 -0.002,0.003 0.0106,0.0301 0.0272,0.0605 0.0167,0.0304 0.0324,0.0652 0.0351,0.0773 0.0101,0.0468 0.1244,0.31073 0.14588,0.33698 0.0124,0.0152 0.0153,0.0276 0.006,0.0276 -0.009,0 -2.3e-4,0.0245 0.0194,0.0545 0.0196,0.0299 0.0357,0.0654 0.0357,0.0787 0,0.0133 0.0233,0.0758 0.0517,0.13888 0.0636,0.14099 0.0954,0.21825 0.10201,0.24722 0.003,0.0122 0.0175,0.047 0.0328,0.0773 0.051,0.10144 0.13678,0.30582 0.14153,0.33722 10e-4,0.009 0.0197,0.049 0.0407,0.0884 0.021,0.0394 0.0388,0.0766 0.0395,0.0826 0.003,0.0271 0.2395,0.58674 0.25187,0.59664 0.008,0.01 0.0165,0.037 0.0198,0.069 0.004,0.043 -0.01,0.068 -0.0552,0.097 -0.19151,0.1227 -0.60254,0.566 -0.60254,0.6499 0,0.013 -0.008,0.024 -0.0183,0.024 -0.0164,0 -0.0482,0.064 -0.15198,0.3044 -0.0543,0.126 -0.11696,0.5073 -0.11696,0.712 0,0.2051 0.0627,0.5865 0.1171,0.712 0.0173,0.04 0.0434,0.1023 0.0581,0.1388 0.0233,0.058 0.16833,0.2959 0.23341,0.3834 0.0772,0.1039 0.33007,0.3432 0.44209,0.4184 0.2874,0.193 0.60803,0.3262 0.84994,0.3531 0.16073,0.018 0.54429,0.015 0.66371,0 0.0425,-0.01 0.1167,-0.018 0.16479,-0.025 0.0481,-0.01 0.0953,-0.017 0.10487,-0.023 0.01,-0.01 0.029,0.015 0.0432,0.046 0.0142,0.031 0.0347,0.057 0.0456,0.057 0.0109,0 0.0137,0.01 0.006,0.022 -0.008,0.012 -0.003,0.022 0.011,0.022 0.0136,0 0.0186,0.01 0.011,0.022 -0.008,0.012 -0.003,0.022 0.011,0.022 0.0136,0 0.0186,0.01 0.0111,0.022 -0.008,0.012 -0.003,0.022 0.011,0.022 0.0136,0 0.0186,0.01 0.011,0.022 -0.008,0.012 -10e-4,0.022 0.0134,0.022 0.0149,0 0.021,0.01 0.0135,0.014 -0.0159,0.016 0.92979,1.9164 0.95899,1.9273 0.0108,0 0.0141,0.016 0.007,0.028 -0.007,0.011 -0.001,0.02 0.0122,0.02 0.0136,0 0.0186,0.01 0.011,0.022 -0.008,0.012 -0.003,0.022 0.0111,0.022 0.0136,0 0.0191,0.01 0.0122,0.02 -0.007,0.011 -0.005,0.024 0.004,0.028 0.009,0 0.0664,0.1109 0.12719,0.2373 0.0608,0.1264 0.12139,0.241 0.13472,0.2546 0.0133,0.014 0.066,0.1092 0.1171,0.2122 0.20333,0.4099 0.2719,0.5409 0.28882,0.5517 0.01,0.01 0.0487,0.076 0.0865,0.1548 0.0379,0.079 0.10282,0.2033 0.14436,0.2762 0.0415,0.073 0.10163,0.1823 0.13353,0.2431 0.0319,0.061 0.0917,0.1701 0.13284,0.2431 0.0412,0.073 0.096,0.1723 0.12175,0.2209 0.0258,0.049 0.0753,0.1381 0.11001,0.1989 0.0347,0.061 0.084,0.1503 0.10943,0.1989 0.0255,0.049 0.0754,0.1381 0.11084,0.1988 0.0355,0.061 0.0813,0.1478 0.10175,0.1934 0.0205,0.046 0.0441,0.083 0.0525,0.083 0.008,0 0.0278,0.035 0.0432,0.077 0.0154,0.043 0.0353,0.077 0.0442,0.077 0.009,0 0.0288,0.035 0.0442,0.077 0.0154,0.043 0.0353,0.077 0.0442,0.077 0.009,0 0.0288,0.035 0.0442,0.077 0.0154,0.043 0.0353,0.077 0.0442,0.077 0.009,0 0.0288,0.035 0.0442,0.077 0.0154,0.043 0.0353,0.077 0.0442,0.077 0.009,0 0.0288,0.035 0.0442,0.077 0.0154,0.042 0.0363,0.077 0.0465,0.077 0.0102,0 0.0298,0.027 0.0436,0.061 0.0336,0.081 0.093,0.1907 0.1109,0.2044 0.008,0.01 0.0275,0.043 0.0435,0.083 0.016,0.039 0.0378,0.072 0.0485,0.072 0.0107,0 0.0194,0.014 0.0194,0.032 0,0.017 0.0129,0.045 0.0286,0.061 0.0157,0.016 0.0418,0.062 0.0579,0.101 0.0161,0.04 0.037,0.072 0.0464,0.072 0.009,0 0.0233,0.025 0.0309,0.055 0.008,0.03 0.0236,0.055 0.0355,0.055 0.0119,0 0.0217,0.011 0.0217,0.024 0,0.013 0.11684,0.2175 0.25965,0.4542 0.1428,0.2367 0.28349,0.472 0.31264,0.523 0.0292,0.051 0.0615,0.096 0.0718,0.1001 0.0103,0 0.0188,0.021 0.0188,0.037 0,0.016 0.0124,0.043 0.0276,0.059 0.0152,0.016 0.0525,0.077 0.0829,0.1356 0.0304,0.058 0.0714,0.1236 0.0912,0.145 0.0198,0.021 0.0428,0.06 0.0512,0.087 0.008,0.026 0.0245,0.048 0.0358,0.048 0.0113,0 0.0206,0.015 0.0206,0.033 0,0.028 -0.0959,0.034 -0.67949,0.039 l -0.67948,0.01 0.69022,0 0.69022,0.01 0.0609,0.094 c 0.0335,0.052 0.066,0.099 0.0723,0.1049 0.006,0.01 0.031,0.048 0.055,0.094 0.0239,0.046 0.0512,0.083 0.0606,0.083 0.009,0 0.0171,0.015 0.0171,0.033 0,0.018 0.009,0.033 0.0197,0.033 0.0108,0 0.0254,0.023 0.0323,0.05 0.007,0.028 0.0304,0.07 0.0521,0.095 0.0217,0.024 0.0585,0.081 0.0817,0.1267 0.0232,0.045 0.0494,0.082 0.0584,0.082 0.009,0 0.0219,0.023 0.0288,0.05 0.007,0.028 0.0304,0.07 0.0521,0.095 0.0217,0.024 0.0582,0.081 0.0811,0.1256 0.0229,0.045 0.0602,0.1011 0.0829,0.1255 0.0227,0.024 0.0413,0.055 0.0413,0.067 0,0.013 0.01,0.023 0.0221,0.023 0.0122,0 0.0198,0.01 0.017,0.017 -0.007,0.023 0.077,0.1602 0.0982,0.1602 0.01,0 0.0173,0.014 0.0173,0.031 0,0.017 0.007,0.035 0.0166,0.039 0.009,0 0.0353,0.044 0.0582,0.089 0.0229,0.045 0.0602,0.1018 0.0829,0.1261 0.0227,0.024 0.0413,0.055 0.0413,0.067 0,0.013 0.01,0.023 0.0221,0.023 0.0121,0 0.0221,0.011 0.0221,0.024 0,0.03 0.24169,0.4041 0.26788,0.4141 0.0107,0 0.0194,0.021 0.0194,0.039 0,0.017 0.01,0.031 0.0221,0.031 0.0122,0 0.0221,0.015 0.0221,0.033 0,0.018 0.009,0.033 0.0195,0.033 0.0107,0 0.0242,0.018 0.03,0.04 0.0129,0.049 0.74361,1.1392 0.77068,1.1494 0.0107,0 0.0195,0.022 0.0195,0.039 0,0.017 0.01,0.031 0.0221,0.031 0.0121,0 0.0221,0.015 0.0221,0.033 0,0.018 0.01,0.033 0.0221,0.033 0.0122,0 0.0221,0.015 0.0221,0.033 0,0.018 0.01,0.033 0.0221,0.033 0.0122,0 0.0221,0.015 0.0221,0.033 0,0.018 0.01,0.033 0.0221,0.033 0.0122,0 0.0221,0.01 0.0221,0.021 0,0.025 0.20125,0.3184 0.22582,0.3288 0.009,0 0.0173,0.022 0.0173,0.039 0,0.017 0.008,0.031 0.0174,0.031 0.01,0 0.0465,0.05 0.082,0.1105 0.0355,0.061 0.0724,0.1105 0.082,0.1105 0.01,0 0.0175,0.015 0.0175,0.033 0,0.018 0.008,0.033 0.0173,0.033 0.01,0 0.0567,0.065 0.10496,0.1436 0.0482,0.079 0.0951,0.1436 0.10427,0.1436 0.009,0 0.0166,0.014 0.0166,0.031 0,0.017 0.009,0.035 0.0192,0.039 0.0106,0 0.0725,0.087 0.13758,0.1842 0.0651,0.097 0.12417,0.1817 0.13128,0.1878 0.007,0.01 0.067,0.09 0.13312,0.1867 0.0661,0.097 0.13217,0.1911 0.14683,0.2099 0.0147,0.019 0.22529,0.3127 0.46809,0.653 0.24279,0.3403 0.44986,0.6287 0.46015,0.6408 0.0103,0.012 0.0532,0.072 0.0954,0.1326 0.0422,0.061 0.0822,0.1155 0.0889,0.1215 0.007,0.01 0.0465,0.061 0.0884,0.1213 0.0419,0.061 0.0862,0.1215 0.0983,0.1354 0.0122,0.014 0.037,0.047 0.0552,0.075 0.0182,0.027 0.058,0.082 0.0884,0.1217 0.0304,0.04 0.0702,0.094 0.0884,0.1211 0.0182,0.027 0.0504,0.07 0.0714,0.096 0.0635,0.079 0.0709,0.089 0.11482,0.1576 0.0232,0.036 0.0507,0.076 0.061,0.088 0.0559,0.068 0.0988,0.1232 0.12842,0.1663 0.0182,0.027 0.0481,0.066 0.0663,0.088 0.0182,0.022 0.0481,0.062 0.0663,0.088 0.0182,0.027 0.0481,0.066 0.0663,0.088 0.0182,0.022 0.0481,0.062 0.0663,0.088 0.0182,0.027 0.0481,0.066 0.0663,0.088 0.0182,0.022 0.0481,0.062 0.0663,0.088 0.0182,0.027 0.0481,0.066 0.0663,0.088 0.0182,0.022 0.0481,0.062 0.0663,0.088 0.0182,0.027 0.0506,0.069 0.0718,0.094 0.0213,0.025 0.0388,0.052 0.039,0.059 2e-4,0.01 0.0275,0.045 0.0608,0.084 0.0332,0.039 0.0994,0.1259 0.14714,0.1933 0.0477,0.067 0.0949,0.1226 0.10496,0.1226 0.01,0 0.0182,0.015 0.0182,0.034 0,0.019 0.0149,0.04 0.0332,0.047 0.0182,0.01 0.0331,0.027 0.0331,0.044 0,0.017 0.0149,0.037 0.0332,0.044 0.0182,0.01 0.0332,0.024 0.0332,0.038 7e-5,0.014 0.0349,0.063 0.0773,0.1093 0.0425,0.046 0.0772,0.094 0.0772,0.1057 0,0.012 0.0149,0.027 0.0331,0.034 0.0182,0.01 0.0332,0.027 0.0332,0.044 0,0.017 0.0149,0.037 0.0331,0.044 0.0182,0.01 0.0331,0.022 0.0331,0.033 0,0.025 0.17387,0.2482 0.20128,0.2585 0.0108,0 0.0197,0.019 0.0198,0.033 7e-5,0.014 0.0334,0.062 0.0741,0.1063 0.0407,0.044 0.0801,0.096 0.0876,0.116 0.007,0.019 0.0239,0.036 0.0364,0.036 0.0125,0 0.0228,0.012 0.0229,0.028 6e-5,0.015 0.0349,0.066 0.0773,0.1117 0.0425,0.046 0.0773,0.091 0.0773,0.099 6e-5,0.01 0.0349,0.053 0.0773,0.099 0.0425,0.046 0.0772,0.091 0.0772,0.1006 0,0.01 0.0348,0.055 0.0773,0.101 0.0425,0.046 0.0773,0.091 0.0773,0.099 0,0.01 0.0348,0.053 0.0773,0.099 0.0425,0.046 0.0774,0.091 0.0774,0.098 7e-5,0.01 0.0349,0.052 0.0773,0.098 0.0425,0.046 0.0772,0.093 0.0772,0.1048 0,0.011 0.0199,0.033 0.0442,0.048 0.0243,0.015 0.0442,0.037 0.0442,0.048 0,0.011 0.0144,0.036 0.0321,0.055 0.1065,0.1161 0.12256,0.1365 0.12256,0.1564 0,0.012 0.0199,0.034 0.0442,0.049 0.0243,0.015 0.0442,0.038 0.0443,0.05 7e-5,0.012 0.0349,0.06 0.0773,0.1064 0.0425,0.046 0.0772,0.093 0.0772,0.1047 0,0.011 0.0199,0.033 0.0442,0.048 0.0243,0.015 0.0443,0.038 0.0445,0.05 1.8e-4,0.012 0.0375,0.065 0.0829,0.1167 0.0454,0.052 0.10244,0.1198 0.12674,0.151 0.0963,0.1233 0.13419,0.1698 0.17126,0.2099 0.0213,0.023 0.0387,0.052 0.0387,0.064 0,0.012 0.0199,0.034 0.0442,0.05 0.0243,0.015 0.0442,0.04 0.0442,0.055 0,0.015 0.0199,0.04 0.0442,0.055 0.0243,0.015 0.0442,0.039 0.0442,0.052 0,0.013 0.0199,0.042 0.0442,0.064 0.0243,0.022 0.0442,0.048 0.0442,0.059 0,0.01 -4.07419,0.018 -9.05405,0.018 l -9.05428,-5e-4 -0.944651,-1.6386 z"
       id="path4774"
       inkscape:connector-curvature="0" />
    <path
       style="fill:#d0d0d0;fill-opacity:1;stroke:none"
       d="m 82.406194,1024.8928 -0.943854,-1.6357 0,-13.4566 0,-13.45651 1.063749,0 c 0.987183,0 1.065863,0.003 1.093103,0.0387 0.0161,0.0213 0.0297,0.0521 0.0301,0.0685 3.8e-4,0.0164 0.0166,0.0661 0.0361,0.11048 0.0571,0.13005 0.0991,0.2377 0.10918,0.27955 0.006,0.025 0.13106,0.34071 0.17504,0.44195 0.0158,0.0365 0.0498,0.11341 0.0756,0.17101 0.0257,0.0576 0.0468,0.1149 0.0468,0.12736 0,0.0125 0.009,0.0399 0.0195,0.061 0.0183,0.0359 0.0369,0.0799 0.091,0.21515 l 0.0442,0.11049 c 0.0122,0.0304 0.0318,0.0776 0.0437,0.10496 0.0268,0.0615 0.0599,0.15284 0.0661,0.1823 0.003,0.0122 0.0175,0.0469 0.0331,0.0773 0.0157,0.0304 0.0383,0.0801 0.0504,0.11048 0.0121,0.0304 0.0481,0.1118 0.08,0.18091 0.0319,0.0691 0.0581,0.14062 0.0581,0.1589 0,0.0183 0.009,0.0387 0.0196,0.0454 0.0108,0.007 0.0261,0.0379 0.034,0.0694 0.008,0.0315 0.0488,0.13174 0.0908,0.22279 0.0421,0.0911 0.0765,0.17291 0.0765,0.1819 0,0.009 0.0249,0.0679 0.0552,0.13086 0.0304,0.063 0.0552,0.12051 0.0552,0.12785 0,0.007 0.016,0.0496 0.0355,0.094 0.0831,0.18874 0.0955,0.21754 0.12963,0.30165 0.0197,0.0486 0.0453,0.10562 0.0569,0.12672 0.0116,0.021 0.021,0.047 0.021,0.059 0,0.011 0.0315,0.088 0.0699,0.1716 0.10211,0.2209 0.10235,0.2513 0.003,0.3275 -0.17936,0.1369 -0.48717,0.4686 -0.57902,0.624 -0.3344,0.5656 -0.37876,1.2892 -0.11473,1.8715 0.13839,0.3052 0.39762,0.6203 0.67646,0.8223 0.14541,0.1054 0.47453,0.2622 0.65303,0.3113 0.21051,0.058 0.90644,0.054 1.10591,-0.01 0.0509,-0.015 0.12674,0.1052 0.29281,0.4653 0.0785,0.1702 0.30427,0.6276 0.5018,1.0165 0.19754,0.3889 0.41326,0.8165 0.47938,0.9501 0.0661,0.1337 0.15299,0.2978 0.19305,0.3647 0.04,0.067 0.14694,0.2657 0.23753,0.4419 0.18569,0.3612 0.44776,0.8449 0.92188,1.7015 0.17827,0.322 0.33142,0.6005 0.34034,0.6187 0.009,0.018 0.0405,0.073 0.0702,0.1215 0.0297,0.049 0.0697,0.1182 0.0888,0.1547 0.0191,0.037 0.0589,0.1061 0.0884,0.1547 0.0295,0.049 0.0693,0.1221 0.0885,0.1634 0.0192,0.041 0.0491,0.089 0.0665,0.1065 0.0173,0.017 0.0315,0.044 0.0315,0.059 0,0.015 0.012,0.039 0.0266,0.054 0.026,0.026 0.13825,0.2151 0.20591,0.3469 0.0187,0.037 0.0533,0.096 0.0768,0.1325 0.0235,0.036 0.058,0.096 0.0766,0.1326 0.0186,0.036 0.0512,0.094 0.0725,0.1272 0.0213,0.034 0.1829,0.3007 0.35913,0.5938 0.17622,0.2932 0.34267,0.5691 0.36989,0.6132 0.0272,0.044 0.0584,0.1 0.0694,0.1242 0.0109,0.024 0.0558,0.097 0.0997,0.1625 0.0439,0.065 0.0798,0.1259 0.0798,0.1354 0,0.01 0.0149,0.03 0.0331,0.045 0.0182,0.015 0.0332,0.041 0.0332,0.057 0,0.023 -0.0636,0.031 -0.28174,0.037 l -0.28174,0.01 0.30235,0 c 0.28072,0 0.30335,0.01 0.31637,0.049 0.008,0.024 0.0233,0.044 0.0346,0.044 0.0113,0 0.0206,0.014 0.0206,0.03 0,0.017 0.014,0.042 0.0311,0.056 0.0171,0.014 0.0472,0.058 0.0669,0.097 0.0403,0.08 0.0842,0.1537 0.10108,0.1702 0.006,0.01 0.0308,0.048 0.0547,0.094 0.0239,0.046 0.0512,0.083 0.0606,0.083 0.009,0 0.0171,0.011 0.0171,0.024 0,0.013 0.0249,0.056 0.0552,0.096 0.0304,0.04 0.0552,0.081 0.0552,0.09 0,0.01 0.0249,0.05 0.0553,0.09 0.0304,0.04 0.0552,0.079 0.0552,0.088 0,0.01 0.0348,0.064 0.0773,0.1231 0.0425,0.059 0.0773,0.1175 0.0773,0.1297 0,0.012 0.01,0.022 0.0221,0.022 0.0122,0 0.0221,0.011 0.0221,0.025 0,0.014 0.0249,0.058 0.0553,0.098 0.0304,0.04 0.0552,0.083 0.0552,0.096 0,0.013 0.01,0.024 0.0221,0.024 0.0121,0 0.0221,0.011 0.0221,0.025 0,0.014 0.0348,0.073 0.0773,0.1326 0.0425,0.059 0.0773,0.113 0.0773,0.1196 0,0.01 0.01,0.024 0.0214,0.039 0.0587,0.073 0.31002,0.463 0.31002,0.481 0,0.011 0.01,0.021 0.0221,0.021 0.0122,0 0.0221,0.01 0.0221,0.023 0,0.013 0.01,0.035 0.0211,0.05 0.0244,0.031 0.77435,1.1503 0.80752,1.2054 0.0122,0.02 0.0279,0.042 0.035,0.048 0.007,0.01 0.0761,0.1055 0.15328,0.2209 0.88596,1.325 3.1237,4.4272 4.13006,5.7256 0.0434,0.056 0.0939,0.1246 0.11212,0.1523 0.049,0.074 0.1412,0.1867 0.1602,0.1951 0.009,0 0.0166,0.019 0.0166,0.034 0,0.014 0.0174,0.042 0.0387,0.061 0.0213,0.019 0.0536,0.058 0.0718,0.085 0.0182,0.028 0.0702,0.097 0.11558,0.1526 0.0453,0.056 0.11839,0.1541 0.16235,0.2179 0.044,0.064 0.0889,0.116 0.0999,0.116 0.011,0 0.02,0.014 0.02,0.032 0,0.018 0.0127,0.04 0.0281,0.05 0.0155,0.01 0.0446,0.043 0.0646,0.073 0.02,0.03 0.0621,0.084 0.0934,0.1195 0.0313,0.035 0.057,0.07 0.057,0.077 7e-5,0.01 0.0299,0.045 0.0663,0.084 0.0364,0.039 0.0662,0.079 0.0663,0.088 7e-5,0.01 0.0324,0.053 0.0718,0.096 0.0394,0.043 0.10041,0.1202 0.13548,0.1712 0.0351,0.051 0.0717,0.093 0.0814,0.093 0.01,0 0.0232,0.017 0.0301,0.039 0.007,0.021 0.0423,0.07 0.0788,0.1093 0.0365,0.039 0.0663,0.079 0.0663,0.09 0,0.011 0.0224,0.04 0.0497,0.065 0.0703,0.065 0.1794,0.2041 0.19816,0.2525 0.009,0.023 0.0259,0.041 0.0381,0.041 0.0122,0 0.0368,0.027 0.0545,0.061 0.0178,0.033 0.0578,0.088 0.089,0.1206 0.0312,0.033 0.0567,0.068 0.0567,0.079 0,0.01 0.0224,0.039 0.0497,0.064 0.0273,0.025 0.069,0.072 0.0925,0.1048 0.0236,0.033 0.062,0.082 0.0854,0.1081 0.0234,0.027 0.0688,0.083 0.10081,0.1257 0.032,0.043 0.0856,0.1072 0.11893,0.1436 0.0334,0.036 0.0607,0.072 0.0608,0.08 7e-5,0.01 0.0252,0.042 0.056,0.077 0.0307,0.035 0.0679,0.079 0.0827,0.096 0.04,0.048 0.12662,0.178 0.12662,0.1896 0,0.01 -4.07455,0.01 -9.05485,0.01 l -9.05507,0 -0.943858,-1.6358 z"
       id="path4776"
       inkscape:connector-curvature="0" />
    <path
       style="fill:#d0d0d0;fill-opacity:1;stroke:none"
       d="m 91.632522,1013.1438 c 0.0456,-0.01 0.12016,-0.01 0.16573,0 0.0456,0 0.008,0.01 -0.0829,0.01 -0.0911,0 -0.12844,0 -0.0829,-0.01 z"
       id="path4778"
       inkscape:connector-curvature="0" />
    <path
       style="fill:#d0d0d0;fill-opacity:1;stroke:none"
       d="m 91.522702,1013.1436 c 0.0581,0 0.14759,0 0.19888,10e-5 0.0513,0 0.004,0.01 -0.10563,0.01 -0.10938,0 -0.15134,0 -0.0932,-0.01 z"
       id="path4780"
       inkscape:connector-curvature="0" />
    <text
       xml:space="preserve"
       style="font-size:12.5px;font-style:normal;font-variant:normal;font-weight:normal;font-stretch:normal;text-align:start;line-height:125%;letter-spacing:0px;word-spacing:0px;writing-mode:lr-tb;text-anchor:start;fill:#000000;fill-opacity:1;stroke:none;font-family:Arial;-inkscape-font-specification:'Arial, Normal'"
       x="122.82994"
       y="1155.3347"
       id="text4782"
       sodipodi:linespacing="125%"
       transform="scale(1.0081754,0.9918909)"><tspan
         sodipodi:role="line"
         id="tspan4784"
         x="122.82994"
         y="1155.3347">Fitness 1</tspan></text>
    <text
       xml:space="preserve"
       style="font-size:12.5px;font-style:normal;font-variant:normal;font-weight:normal;font-stretch:normal;text-align:start;line-height:125%;letter-spacing:0px;word-spacing:0px;writing-mode:lr-tb;text-anchor:start;fill:#000000;fill-opacity:1;stroke:none;font-family:Arial;-inkscape-font-specification:'Arial, Normal'"
       x="-1033.9098"
       y="15.122631"
       id="text4782-9"
       sodipodi:linespacing="125%"
       transform="matrix(0,-1.0081754,0.9918909,0,0,0)"><tspan
         sodipodi:role="line"
         id="tspan4784-4"
         x="-1033.9098"
         y="15.122631">Fitness 2</tspan></text>
    <g
       id="g6243">
      <path
         inkscape:connector-curvature="0"
         inkscape:original-d="m 119,1052.0088 c 0,20 0,20 0,20"
         inkscape:path-effect="#path-effect6241"
         id="path5435"
         d="m 119,1052.0088 0,20"
         style="fill:#112b00;stroke:#000000;stroke-width:0.40000001;stroke-linecap:butt;stroke-linejoin:miter;stroke-miterlimit:4;stroke-opacity:1;stroke-dasharray:none;marker-start:url(#StopM);marker-end:url(#StopM)" />
      <path
         style="fill:#112b00;stroke:#000000;stroke-width:0.40000001;stroke-linecap:butt;stroke-linejoin:miter;stroke-miterlimit:4;stroke-opacity:1;stroke-dasharray:none;marker-start:url(#StopM);marker-end:url(#StopM)"
         d="m 109,1062.0499 20,0"
         id="path5819"
         inkscape:path-effect="#path-effect6238"
         inkscape:original-d="m 109,1062.0499 c 20,0 20,0 20,0"
         inkscape:connector-curvature="0" />
    </g>
    <g
       id="g6249">
      <path
         style="fill:#112b00;stroke:#000000;stroke-width:0.40000001;stroke-linecap:butt;stroke-linejoin:miter;stroke-miterlimit:4;stroke-opacity:1;stroke-dasharray:none;marker-start:url(#StopM);marker-end:url(#StopM)"
         d="m 81.5,1022.3624 0,8.2928"
         id="path6223"
         inkscape:path-effect="#path-effect6231"
         inkscape:original-d="m 81.5,1022.3624 c 0,8.2928 0,8.2928 0,8.2928"
         inkscape:connector-curvature="0" />
      <path
         inkscape:connector-curvature="0"
         inkscape:original-d="m 71.5,1026.5258 c 20,0 20,0 20,0"
         inkscape:path-effect="#path-effect6228"
         id="path6225"
         d="m 71.5,1026.5258 20,0"
         style="fill:#112b00;stroke:#000000;stroke-width:0.40000001;stroke-linecap:butt;stroke-linejoin:miter;stroke-miterlimit:4;stroke-opacity:1;stroke-dasharray:none;marker-start:url(#StopM);marker-end:url(#StopM)" />
    </g>
    <g
       id="g3136">
      <path
         inkscape:connector-curvature="0"
         id="path4829"
         d="m 226.4581,1025.9218 25,0"
         style="fill:none;stroke:#000000;stroke-width:0.5;stroke-linecap:butt;stroke-linejoin:miter;stroke-miterlimit:4;stroke-dasharray:none;stroke-opacity:1" />
      <text
         transform="scale(1.0081754,0.9918909)"
         sodipodi:linespacing="125%"
         id="text4782-0"
         y="1038.7861"
         x="257.19852"
         style="font-style:normal;font-variant:normal;font-weight:normal;font-stretch:normal;font-size:12.5px;line-height:125%;font-family:Arial;-inkscape-font-specification:'Arial, Normal';text-align:start;letter-spacing:0px;word-spacing:0px;writing-mode:lr-tb;text-anchor:start;fill:#000000;fill-opacity:1;stroke:none"
         xml:space="preserve"><tspan
           y="1038.7861"
           x="257.19852"
           id="tspan4784-0"
           sodipodi:role="line">Paretofront</tspan></text>
      <rect
         y="1033.5697"
         x="230.95012"
         height="15.47667"
         width="14.059144"
         id="rect4746-6-5"
         style="fill:#d0d0d0;fill-opacity:1;stroke:none" />
      <text
         transform="scale(1.0081754,0.9918909)"
         sodipodi:linespacing="125%"
         id="text4782-0-5"
         y="1054.295"
         x="256.22806"
         style="font-style:normal;font-variant:normal;font-weight:normal;font-stretch:normal;font-size:12.5px;line-height:125%;font-family:Arial;-inkscape-font-specification:'Arial, Normal';text-align:start;letter-spacing:0px;word-spacing:0px;writing-mode:lr-tb;text-anchor:start;fill:#000000;fill-opacity:1;stroke:none"
         xml:space="preserve"><tspan
           id="tspan4931"
           y="1054.295"
           x="256.22806"
           sodipodi:role="line">Erwarteter Volumenzugewinn</tspan></text>
      <circle
         transform="translate(-24.340312,38.904751)"
         r="2.0203052"
         cy="1020.0438"
         cx="262.32001"
         id="path4636-75-7"
         style="fill:#3139ae;stroke-width:0.5;stroke-miterlimit:4;stroke-dasharray:none;stroke-dashoffset:0"
         sodipodi:cx="262.32001"
         sodipodi:cy="1020.0438"
         sodipodi:rx="2.0203052"
         sodipodi:ry="2.0203052" />
      <text
         transform="scale(1.0081754,0.9918909)"
         sodipodi:linespacing="125%"
         id="text4782-0-2"
         y="1070.7828"
         x="256.22806"
         style="font-size:12.5px;font-style:normal;font-variant:normal;font-weight:normal;font-stretch:normal;text-align:start;line-height:125%;letter-spacing:0px;word-spacing:0px;writing-mode:lr-tb;text-anchor:start;fill:#000000;fill-opacity:1;stroke:none;font-family:Arial;-inkscape-font-specification:'Arial, Normal'"
         xml:space="preserve"><tspan
           y="1070.7828"
           x="256.22806"
           id="tspan4784-0-05"
           sodipodi:role="line">Member Rang 1</tspan></text>
      <circle
         transform="translate(-18.767803,36.721905)"
         sodipodi:ry="2.0203052"
         sodipodi:rx="2.0203052"
         sodipodi:cy="1039.8671"
         sodipodi:cx="256.7475"
         r="2.0203052"
         cy="1039.8671"
         cx="256.7475"
         id="path4636-8-1"
         style="fill:#dd2a2b;stroke-width:0.5;stroke-miterlimit:4;stroke-dasharray:none;stroke-dashoffset:0" />
      <text
         transform="scale(1.0081754,0.9918909)"
         sodipodi:linespacing="125%"
         id="text4782-0-91"
         y="1088.5674"
         x="256.22806"
         style="font-size:12.5px;font-style:normal;font-variant:normal;font-weight:normal;font-stretch:normal;text-align:start;line-height:125%;letter-spacing:0px;word-spacing:0px;writing-mode:lr-tb;text-anchor:start;fill:#000000;fill-opacity:1;stroke:none;font-family:Arial;-inkscape-font-specification:'Arial, Normal'"
         xml:space="preserve"><tspan
           y="1088.5674"
           x="256.22806"
           id="tspan4784-0-3"
           sodipodi:role="line">Member &gt; Rang 1</tspan></text>
      <path
         transform="translate(-24.340312,35.455655)"
         inkscape:transform-center-y="-0.82317361"
         d="m 262.32001,1056.3044 1.42578,2.4695 1.42577,2.4695 -2.85155,0 -2.85156,0 1.42578,-2.4695 z"
         inkscape:randomized="0"
         inkscape:rounded="0"
         inkscape:flatsided="false"
         sodipodi:arg2="-0.52359878"
         sodipodi:arg1="-1.5707963"
         sodipodi:r2="1.6463472"
         sodipodi:r1="3.2926946"
         sodipodi:cy="1059.597"
         sodipodi:cx="262.32001"
         sodipodi:sides="3"
         id="path4701-2-8"
         style="fill:#338000;stroke-width:0.5;stroke-miterlimit:4;stroke-dasharray:none;stroke-dashoffset:0"
         sodipodi:type="star" />
      <text
         transform="scale(1.0081754,0.9918909)"
         sodipodi:linespacing="125%"
         id="text4782-0-51"
         y="1106.3337"
         x="256.22806"
         style="font-size:12.5px;font-style:normal;font-variant:normal;font-weight:normal;font-stretch:normal;text-align:start;line-height:125%;letter-spacing:0px;word-spacing:0px;writing-mode:lr-tb;text-anchor:start;fill:#000000;fill-opacity:1;stroke:none;font-family:Arial;-inkscape-font-specification:'Arial, Normal'"
         xml:space="preserve"><tspan
           y="1106.3337"
           x="256.22806"
           id="tspan4784-0-2"
           sodipodi:role="line">Member Vorhersage</tspan></text>
      <g
         transform="matrix(0.5,0,0,0.5,178.47969,580.15239)"
         id="g6215"
         style="stroke:#000000;stroke-width:1.20000005;stroke-miterlimit:4;stroke-opacity:1;stroke-dasharray:none">
        <path
           inkscape:connector-curvature="0"
           inkscape:original-d="m 119,1052.0088 c 0,20 0,20 0,20"
           inkscape:path-effect="#path-effect5437"
           id="path6217"
           d="m 119,1052.0088 0,20"
           style="fill:#112b00;stroke:#000000;stroke-width:1.20000005;stroke-linecap:butt;stroke-linejoin:miter;stroke-miterlimit:4;stroke-opacity:1;stroke-dasharray:none;marker-start:url(#StopM);marker-end:url(#StopM)" />
        <path
           style="fill:#112b00;stroke:#000000;stroke-width:1.20000005;stroke-linecap:butt;stroke-linejoin:miter;stroke-miterlimit:4;stroke-opacity:1;stroke-dasharray:none;marker-start:url(#StopM);marker-end:url(#StopM)"
           d="m 109,1062.0499 20,0"
           id="path6219"
           inkscape:path-effect="#path-effect5821"
           inkscape:original-d="m 109,1062.0499 c 20,0 20,0 20,0"
           inkscape:connector-curvature="0" />
      </g>
      <text
         xml:space="preserve"
         style="font-size:12.5px;font-style:normal;font-variant:normal;font-weight:normal;font-stretch:normal;text-align:start;line-height:125%;letter-spacing:0px;word-spacing:0px;writing-mode:lr-tb;text-anchor:start;fill:#000000;fill-opacity:1;stroke:none;font-family:Arial;-inkscape-font-specification:'Arial, Normal'"
         x="257.19852"
         y="1123.4728"
         id="text6290"
         sodipodi:linespacing="125%"
         transform="scale(1.0081754,0.9918909)"><tspan
           sodipodi:role="line"
           id="tspan6292"
           x="257.19852"
           y="1123.4728">Standardabweichung der Vorhersage</tspan></text>
    </g>
  </g>
</svg>
